<mxfile host="app.diagrams.net" modified="2023-09-24T16:05:41.348Z" agent="Mozilla/5.0 (Macintosh; Intel Mac OS X 10_15_7) AppleWebKit/537.36 (KHTML, like Gecko) Chrome/116.0.0.0 Safari/537.36" etag="puX2qZbh9iSwfoJE9qEC" version="21.5.0" type="device" pages="3">
  <diagram name="Page-1" id="pIoVD0iAspJO_9bzJm9g">
    <mxGraphModel dx="2954" dy="1157" grid="1" gridSize="10" guides="1" tooltips="1" connect="1" arrows="1" fold="1" page="1" pageScale="1" pageWidth="850" pageHeight="1100" math="0" shadow="0">
      <root>
        <mxCell id="0" />
        <mxCell id="1" parent="0" />
        <mxCell id="drv6iqz0Df6hRnRfteLl-40" value="" style="ellipse;shape=cloud;whiteSpace=wrap;html=1;fontStyle=1;labelPosition=center;verticalLabelPosition=bottom;align=center;verticalAlign=top;strokeWidth=2;fillColor=#f5f5f5;fontColor=#333333;strokeColor=#666666;dashed=1;" parent="1" vertex="1">
          <mxGeometry x="440" y="510" width="390" height="250" as="geometry" />
        </mxCell>
        <mxCell id="drv6iqz0Df6hRnRfteLl-38" style="edgeStyle=orthogonalEdgeStyle;orthogonalLoop=1;jettySize=auto;html=1;exitX=0;exitY=0.75;exitDx=0;exitDy=0;entryX=1;entryY=0.75;entryDx=0;entryDy=0;strokeWidth=2;" parent="1" source="drv6iqz0Df6hRnRfteLl-36" target="drv6iqz0Df6hRnRfteLl-2" edge="1">
          <mxGeometry relative="1" as="geometry">
            <Array as="points">
              <mxPoint x="510" y="470" />
              <mxPoint x="510" y="435" />
            </Array>
          </mxGeometry>
        </mxCell>
        <mxCell id="BXOqnoNX5bFxCncvQAfk-1" value="&lt;b&gt;Capability Callbacks&lt;/b&gt;" style="edgeLabel;html=1;align=center;verticalAlign=middle;resizable=0;points=[];" parent="drv6iqz0Df6hRnRfteLl-38" vertex="1" connectable="0">
          <mxGeometry x="0.4222" y="2" relative="1" as="geometry">
            <mxPoint x="64" y="43" as="offset" />
          </mxGeometry>
        </mxCell>
        <mxCell id="drv6iqz0Df6hRnRfteLl-36" value="WASM Functions" style="rounded=1;whiteSpace=wrap;html=1;fontStyle=1;labelPosition=center;verticalLabelPosition=bottom;align=center;verticalAlign=top;fillColor=#f5f5f5;fontColor=#333333;strokeColor=#666666;dashed=1;strokeWidth=2;" parent="1" vertex="1">
          <mxGeometry x="722" y="320" width="140" height="200" as="geometry" />
        </mxCell>
        <mxCell id="drv6iqz0Df6hRnRfteLl-22" style="edgeStyle=orthogonalEdgeStyle;rounded=0;orthogonalLoop=1;jettySize=auto;html=1;exitX=1;exitY=0.5;exitDx=0;exitDy=0;entryX=0;entryY=0.5;entryDx=0;entryDy=0;strokeWidth=2;" parent="1" source="drv6iqz0Df6hRnRfteLl-1" target="drv6iqz0Df6hRnRfteLl-2" edge="1">
          <mxGeometry relative="1" as="geometry" />
        </mxCell>
        <mxCell id="drv6iqz0Df6hRnRfteLl-1" value="Client" style="rounded=1;whiteSpace=wrap;html=1;strokeWidth=2;fontStyle=1;fillColor=#dae8fc;strokeColor=#6c8ebf;" parent="1" vertex="1">
          <mxGeometry x="50" y="390" width="120" height="60" as="geometry" />
        </mxCell>
        <mxCell id="drv6iqz0Df6hRnRfteLl-9" value="" style="shape=image;verticalLabelPosition=bottom;labelBackgroundColor=default;verticalAlign=top;aspect=fixed;imageAspect=0;image=https://upload.wikimedia.org/wikipedia/commons/thumb/5/5b/HTTP_logo.svg/2560px-HTTP_logo.svg.png;strokeWidth=2;rounded=0;" parent="1" vertex="1">
          <mxGeometry x="173.81" y="394.4" width="38.51" height="20.6" as="geometry" />
        </mxCell>
        <mxCell id="drv6iqz0Df6hRnRfteLl-19" value="" style="group;strokeWidth=2;fontStyle=1;rounded=0;fillColor=none;strokeColor=none;" parent="1" vertex="1" connectable="0">
          <mxGeometry x="290" y="390" width="120" height="60" as="geometry" />
        </mxCell>
        <mxCell id="drv6iqz0Df6hRnRfteLl-2" value="&lt;b&gt;Tarmac&lt;/b&gt;" style="rounded=1;whiteSpace=wrap;html=1;labelPosition=center;verticalLabelPosition=top;align=center;verticalAlign=bottom;strokeWidth=2;fillColor=#f5f5f5;strokeColor=#666666;fontColor=#333333;" parent="drv6iqz0Df6hRnRfteLl-19" vertex="1">
          <mxGeometry width="120" height="60" as="geometry" />
        </mxCell>
        <mxCell id="drv6iqz0Df6hRnRfteLl-4" value="" style="shape=image;verticalLabelPosition=bottom;verticalAlign=top;imageAspect=0;aspect=fixed;image=data:image/png,iVBORw0KGgoAAAANSUhEUgAAAjAAAADZCAYAAAA+JQoMAAAAAXNSR0IArs4c6QAAAMJlWElmTU0AKgAAAAgABwESAAMAAAABAAEAAAEaAAUAAAABAAAAYgEbAAUAAAABAAAAagEoAAMAAAABAAIAAAExAAIAAAARAAAAcgEyAAIAAAAUAAAAhIdpAAQAAAABAAAAmAAAAAAAAABIAAAAAQAAAEgAAAABUGl4ZWxtYXRvciAzLjkuOAAAMjAyMToxMDoxNyAxNDoxMDoxNwAAA6ABAAMAAAABAAEAAKACAAQAAAABAAACMKADAAQAAAABAAAA2QAAAADdjcWiAAAACXBIWXMAAAsTAAALEwEAmpwYAAADqmlUWHRYTUw6Y29tLmFkb2JlLnhtcAAAAAAAPHg6eG1wbWV0YSB4bWxuczp4PSJhZG9iZTpuczptZXRhLyIgeDp4bXB0az0iWE1QIENvcmUgNi4wLjAiPgogICA8cmRmOlJERiB4bWxuczpyZGY9Imh0dHA6Ly93d3cudzMub3JnLzE5OTkvMDIvMjItcmRmLXN5bnRheC1ucyMiPgogICAgICA8cmRmOkRlc2NyaXB0aW9uIHJkZjphYm91dD0iIgogICAgICAgICAgICB4bWxuczp0aWZmPSJodHRwOi8vbnMuYWRvYmUuY29tL3RpZmYvMS4wLyIKICAgICAgICAgICAgeG1sbnM6ZXhpZj0iaHR0cDovL25zLmFkb2JlLmNvbS9leGlmLzEuMC8iCiAgICAgICAgICAgIHhtbG5zOnhtcD0iaHR0cDovL25zLmFkb2JlLmNvbS94YXAvMS4wLyI+CiAgICAgICAgIDx0aWZmOkNvbXByZXNzaW9uPjA8L3RpZmY6Q29tcHJlc3Npb24+CiAgICAgICAgIDx0aWZmOlJlc29sdXRpb25Vbml0PjI8L3RpZmY6UmVzb2x1dGlvblVuaXQ+CiAgICAgICAgIDx0aWZmOlhSZXNvbHV0aW9uPjcyPC90aWZmOlhSZXNvbHV0aW9uPgogICAgICAgICA8dGlmZjpZUmVzb2x1dGlvbj43MjwvdGlmZjpZUmVzb2x1dGlvbj4KICAgICAgICAgPHRpZmY6T3JpZW50YXRpb24+MTwvdGlmZjpPcmllbnRhdGlvbj4KICAgICAgICAgPGV4aWY6UGl4ZWxYRGltZW5zaW9uPjU2MDwvZXhpZjpQaXhlbFhEaW1lbnNpb24+CiAgICAgICAgIDxleGlmOkNvbG9yU3BhY2U+MTwvZXhpZjpDb2xvclNwYWNlPgogICAgICAgICA8ZXhpZjpQaXhlbFlEaW1lbnNpb24+MjE3PC9leGlmOlBpeGVsWURpbWVuc2lvbj4KICAgICAgICAgPHhtcDpDcmVhdG9yVG9vbD5QaXhlbG1hdG9yIDMuOS44PC94bXA6Q3JlYXRvclRvb2w+CiAgICAgICAgIDx4bXA6TW9kaWZ5RGF0ZT4yMDIxLTEwLTE3VDE0OjEwOjE3PC94bXA6TW9kaWZ5RGF0ZT4KICAgICAgPC9yZGY6RGVzY3JpcHRpb24+CiAgIDwvcmRmOlJERj4KPC94OnhtcG1ldGE+CrXx0l4AADJHSURBVHgB7Z0J3B1VecaBEAiELSxhTz4ggLIjO7IEKCAgZQeRTVuXVq12UX9aa4tWtLW02hbr0sUKAtKCBURZhJCwagAlKjuYBAJhTyBAICHQ54F7yDiZe+ecM+fcOTPzvL/f8818M2d5z3/uzH3nnDNzl1tOJgIiIAIiIAIiIAIiIAIiIAIiIAIiIAIiIAIiIAIiIAIiIAIiIAIiIAIiIAIiIAIiIAIiIAIiIAIiIAIiIAIiIAIiIAIiIAIiIAIiIAIiIAIiIAIiIAIiIAIiIAIiIAIiIAIiIAIiIAIiIAIiIAIiIAIiIAIiIAIiIAIiIAIiIAIiIAIiIAIiIAIiIAIiIAIiIAIiIAIiIAIiIAL+BJb3z6qcItAIAhPh5X7Q643wVk6KgAi4EOB32DzoamixS0albT6BFZvfBLVABAYS2AN7zx2YQjtFQASaTOB+OD8NUgDT5KPo4fsKHnmURQSaROC1JjkrX0VABJwJLHLOoQytIKAAphWHUY0QAREQAREQgW4RUADTreOt1oqACIiACIhAKwgogGnFYVQjREAEREAERKBbBBTAdOt4q7UiIAIiIAIi0AoCCmBacRjVCBEQAREQARHoFgEFMN063mqtCIiACIiACLSCgAKYVhxGNUIEREAEREAEukVAAUy3jrdaKwIiIAIiIAKtIKAAphWHUY0QAREQAREQgW4RUADTreOt1oqACIiACIhAKwgogGnFYVQjREAEREAERKBbBPRjjt063mqtPYHnkPRX9smVUgREoAIB/lr8mtAOEH9hWiYCpQQUwJQiUoKOErgT7Z7c0bar2SJQB4F3otKpkL6X6qDfwDo1hNTAgyaXRUAERKCFBNTz0sKDGrNJCmBi0lXZIiACIiACIiACUQgogImCVYWKgAiIgAiIgAjEJKAAJiZdlS0CIiACIiACIhCFgAKYKFhVqAiIgAiIgAiIQEwCCmBi0lXZIiACIiACIiACUQgogImCVYWKgAiIgAiIgAjEJBDiefuN4eC/QWMhvozImFnvt2Q6m3226fJl5fNl92fXXdMV5c1uM+umXP5vtmWX2XWT1iz75cnuN+tmmc2T3TZofdC+bHlFvma3ZddZJs3kL9o3D/vPh15lQpkIiIAIiIAIuBIIEcAwcDkEGuNaudJ3lsAjaPlFkAKYzn4E1HAREAERqEYgxBAS77BfqeaGcneMgD4vHTvgaq4IiIAIhCYQIoChT3qDYugjo/JEQAREQAREQAT6EggRwCh46YtXO/oQMPNj+uzWZhEQARFwIsDvIX0XOSFrfuIQc2BIQR+c5n8W1AIREAERaCIBDknzhyA/Dj3T07NY8mEBaj7E/yn+yvxCaBG0uCfzoAH+lTWJQKgApkltlq/1E9AFo/5jIA9EoC0EXkND1oPeNaBBS7CPDw1QL0AMaor0NLabIMgsF2AbgyQjBj+yBAgogEngIHTQBQUwHTzoarIIRCTAIGaQjcJOamWIT86uD5UZr1MMfF6G2HOTl+nZyQY9XOd25mFPjxF7e2SBCYQIYDT2GPigqDgREAEREIHaCfC7jd+Rq/XEd57ZGIMe9to8n1madfbqMMgxQQ+XHOZ6saeXMkuWIxtAIEQAM6B47RIBERABERCBThFgT89aPdk2nMNTHNrKi/N2ssEO17mNAVE+LYOgTpkCmE4d7mQaqyGkZA6FHBEBEUiAAIe2qHUcfGFvTbbHhuscvsoGPKbHh8NfplfI9AZxycCpsRYigNEQUmMPf22OK4CpDb0qFgERaAmBVdEOal3L9nCekJmTwyXn6TCoMZOVTbBjhrUY4DDweQq6B0rOQgQwbJQeo07u0MohERABERABEXiLAN/7xgnMlK3xqS326kyG7oKSslAvsgsVCCUFR85EI7ASSlYvTDS8KlgEREAEghDgdzt7eE4JUlrgQkIEHo/2Gjc645vpkRn2ki5kh7T61W+Trihv2TazP1u+2Va0LNqWzWvWzbIsvdlflN7sK1pmt5l12zJM+qJlv238zJQ99sj6Ze4EeB5yLN01QGR3ctWnHlg3g1MXM4+puuTJp+XnbBXIfN7y+/v9z0dbY7zTgwyy18N+9Rdt5x1vo+clFDVK2xpP4ES04O8hDiklYyECGI6TXZxMi+SICHSbwCfR/PdALgEiv/i/Af07VMXORubJkG3drPcJ6FSI4+y+9k5k/BfIJYBh7/M5UNU2o4jfsTH47wJoc8g1iKT/j0MnQJybIBOBVAhsAUeOgPjZTsZCBDDJNEaOiIAIvPFo5Q4eHPgW0ypf5uOQn1+8G3rU/XbkqRLATEb+nT3qrVJnv+r2xo5j+u202L4j0hwAXW6RVklEYJgETkNlF0KugXk0H0PMgYnmnAoWARFwJjAVOXyGRbZBvtWda1uagQHE+KX/Oq3t65R62cR7LbupdAt7fqaXpnJPwN6vqsbuepkIpEZgPzjE60QypgAmmUMhR0QgCIEHUMqDHiVxyGNTj3wmC3se+AIvH+MQkO+1iO/N8LmozkC+x3ycHZBnbew7bMB+212HImGVY2Fbj9KJgAuBVZH4JJcMsdP6XjRi+6XyRUAE/AhwMu6tHlk58XRXj3wmy4FmxWPJIa/1PPIxy1bQxh55r/PIU5bl95Bgk7JEFvv51EeIQMiiKiURAScCJyP1mk45IiZWABMRrooWgZoITPWsd3fPfBOQbzvPvMzGAMSnF4V5d4Fcn/jhkz63MHNgC3l3yrJ0fQ58gAqKm4ltZ0Jfh74HXQZNg9hDNxviO1BeghZDycz9gC912SRUfEhdlefr1STePBH9LwLNJ3AzmsCnWFzntHACKa8J/IJ3Mc5/8e1BMfXsj5XrzT8OSw4/udocZOAXVEjbHIUdFLDAPVHW9lBoPwO62Iqi+Fn4Qq4lHAplj6R5LQB7HDg8yOFKyqwzeH431DU7HQ3+3xQarQAmhaMgH0QgLIFHUBy/+PZxLJa9IBy+4KO8LjbZJXGftJyIyy+OJX32F21eDRt9nrgyAV5Rmb7bfh8ZQ3atc77BsZACGN8jYpePvVz5zx0/gwt7YilPQw9xJWdH4f8uBjAHoN08736V4zH0f9VFOXTkqlAEohPwHSIZB8/YC+NivFN1DZSKyt8JGxk8udgIErPnw9WmumYoSc8bwRhPDh2DcseW1K3d9RHgCyO7aPxMhhwu9WaoAMYbnTKKQNIEpnh4tzzy7OGYbwuk38oxT1Hy8djIIMbFdkZivjjOxXwnOQ+qg0MJ7xiUwHMfe8R8HhH3rE7ZRMCaAAP2taxTR0qoACYSWBUrAjUTuBP1z/XwgUEBAxlb2w0J17BNXJKO82BczKfn515U8IBLJRZpj0OaGHfjHNp4j0X9SiICwybAG5faJ/MqgBn2YVd9IjAcAk+iml94VMUhJM6/sLWDbBNapGPvD7+0bYwBg+twF8vlRGGfF/0xb5GtiY1HF+0ItO1QlMPeKZkIpESANzmczFtrDFFr5SkdDfkiAi0j8DraM82jTRshD++ubIxPOVV5d0y+DgYktk8z0c+35Quw+P8mizQuSfZF4kkuGRzTboL0td/pOvqs5N0gwB7TbetsqgKYOumrbhGIS+AGFM8JvS7Gng0+YWBjnPsS8subj6fublMx0tBH9n642HNIPN0lg0VavtjLZcjNoshlknDCpK7Vy2DRhpoJ8CnAWoc4dVLU/AlQ9SIQkcB9KLvo8c+yKjkp1cbY+7CSTULLNAwEbOe18KcLXG0GMsx1zTQgPXtHXIfQrkKemQPKLNrFO13bXrGi/NomArEInICCa5vMqwAm1mFVuSJQP4H5cOE2Dzf2RB6ba8Nkj7LLsvCpm7K6OU/GNsjK1sf3vyzJbqi4fjjyr+9YxjlI/yPHPByq4zthZCKQGoEt4RDnadViZReKWpxSpSIgAsEIXOdREoeGOMdkkPGdLTEeHeaY+oaDKsa+dSC+pdbVfFj0q4NBFO8+XYwvCLwBusIlUy8tAxgO78lEIDUCp8GhWmKJWipNjb78EYEWE2APzAuO7WOXcNnkPAYQmzqWa5OcdZf1rtA31ydzHkWeO20csEyzDdK5/owBA6gF0M8g10e5GSzuCslEIDUCB8Ihng9DNwUwQ0euCkVgqAT4Rcm5MC7G6wLfBzPIeNGytdeQkLIxzoPhENYgcw0cWBYDuWcHFeq473ikX8Uxzw976RnEXO2Yl2/75WRemQikRoDnwal1OKUApg7qqlMEhkdgEaryeXR4UBDB4ROXSbTXIv1shyZz0mq/axMDnLIemqKqbsDG14t2eGxbFXmOdsz3MNJPzeRhMGMb1JlsR2LF9ckrk1dLEYhJgMOpQ/9s9rtIxGyoyhYBERgugake1XGIiI9JFhnnqJT10GTzfRf/3JHdULLO7ugJfdLQJ5e6Wcyr0DSuBDIGd9s5lsUgLtsDxB6hex3LGEF6BneyZhN4Hu7/CmJQPx9aDLkGs8iSlG0Ob949bI/YLSkTARFoN4FfoHlPQbYviSMNBilbQ0WBB9+YOw6yMV6s+fTPOhCHXWyM82AYpMwqSMynHjYu2D5oE4fQOJQWyk5GQa43f5fkKue8pCsh17kD/A2ay3Nl6d9mEfgl3OWXPSdlU+zR4/mR19rYxl4Nng9myfNudWh0Tyl9h3My7wVQqJ5OFDXYUmr8YE+1VwREwJcAhy/ugiY7FMBxbU6WLQpgXMphLwMn0E6HOJxl+94YznP5Pyhv78AG1+vW7cizIF+Q5//rIt9hjnkfQvpbCvJchm2fgFzaw7o5efoRSNZMAuxtYQBLGXvQrPRZmoCF5w/FQIYBD4Mcs+Q6tzPg4dKs8/+x0BpQTNsPhTMg57VmKOZy4gzFIVUiAiIQhQCHMCY7lrwX0p+by8OLp8v8l5uQnhfs30AzIfbq2BgvhpxrsySXmL0/rsa2h7IjUJBrD9A1yDO/wAEGVrzY71iwr98mfknx7v2b/RJoeysJLEarqJd6rXvSopX8fjfiU3v8HG5hkc83CW963gt9zrcA13wruGZQehEQgUYSuBlev+ro+S5IzyAiayP45+3ZDSXrU3r7F2LpMg9lS6TfPFc2u9sHTS7OJX/jX/a8sPcnlHEIx8UYvHHCbpGRyY+LdpRsOwn7de0ugaTdb5zvL4MDe3p+C100BCbvQR0c7hqK6SQYCmZVIgK1E7gTHsx19GIE6Sfk8jCA4J2WjT2BRDMyCadm1stW2e29Uy7RZvg/H9TkkizzL3s42PMTwiahkH0dC7of6QcFUJdj/yuOZe6O9Hk2jkUoeQcJXIw2L4rcbp6jh0Wu463iFcC8hUIrItBqAvPROr5AzcXWReL8kI/LF/ivkZ/zX4yx/ufNPxbL/XJp+KW9am5b2b/seWLXewg7EoVwAqWLXYXEg9r8S+zn8JqLMYA8xiWD0ooACPB8dL0GuIJbHhlOh7iMbgpgoiNWBSKQDIHrHT3hRWjXTB4GD/tn/i9bZX2vZxI9jPU7M/+XrXIOzuhMot0y6zarrHuKTUKLNPSDQzcuxiG7S0sy8I74spI0RbuPxUZOzJSJgC0Bfh4vsk1cIR1vPHaokN86qwIYa1RKKAKNJ3ArWuA6XLFHptV8Kmkk8/+gVV4s2fuRNU7IdQkotkR6M+mQ16q9s4VZrD+ONNkhLIssfZMwkHtH373FO+7BZk7ULbOfIAHnKrjY25B4H5cMSisCIMCA+qnIJBhYnxy5jjeKVwAzDMqqQwTSIHAv3HjI0RV+UY7r5cn3iAwq6lHsLAoebsT21wZlzOzjY58cNqJtAm31xpr9Hw7N0I8QdhwKGe1YECfovmiRh5xceqZYJK/drhOKmU/WbQKPoflXDgHB8ajDXDeiVacAJhpaFSwCyRHgXf5UR68mIP1IL8/k3tJmcRsSzS9IyDkf7Bmxtcm9hNtj6XpBdOntGeQPA6mjByUo2LcQ2/63YHvRJvZWXVi0o2Tbodi/YUka7RaBPIELsCE7tJvfH+J/9pweEqKgQWXwGXGZCIhAdwhMQ1M/4tDclZCW7yl5AMoOJ5UVcW2fBAxqfgZxDoeN8YkbXqd2gTgnx9Y4cfcm28Ql6Q7E/s1L0uR3L8CGPaGd8zsK/ueXCQNFLl3auDHS80vie5BMBGwJsBeUE3pjz1N5P+pgEG/b44qkbqYAxo2XUotA0wn8HA3gl6vL0zQMHvg48PqQjbGnh/UUGb+kb4BsA5itkJbBg0vwhOTLzYF4kQ5hJ6EQl8CCdY6HvsGVyEbfzoOifUlE9l/FD5/AS6jyEih2ALMf6mDPKYdIo9gKUUpVoSIgAqkS4JwQ1y92XoSOgEZZNorzbO4ZkPZ67LN9H8VYpD0Syj/OPaD4N3YxgHquLJHF/olIc5BFurqScCIvgzyZCLgQ4DtheCMT01ZB4afErKCLPTBbAuiBEO9YeDeYFf79nf9t9zEdLZs+v+6y36Ttt8zW1y9N2fYqZfjm5V3sU9DTdE5WCwHOt7gZcnmihwHMCGRr05Bw0NNOHI5igMOhKRv7IyTawCZhJs11mfUqq4ch83pVCoicd3WUfwz0lcj1qPh2EbgXzeFQ0uGRm3Ucyudnc16MeroYwLwTIL8VA2aiZdoGG3TfNm0+3aC82X0MYM6GvsSNstoIXI+aP+VQ+9pIS9kaL4yDbCF2ch6MbQAzaVBhBfvYRT69YLvrJl4fOUSTunE47msQh+5kImBDgDfw50OxAxgO/7IO1hXcuhjAdG2smEEDzSzf/K++v+xWlNVLgO8m4ZNArr0aNl6zW5rDN2XGSb4fLkvkub9sCMu22O2QkJOIUzdOFOZ7am5K3VH5lxSBa+DNw9CEyF6djvJ/AC0JXU8X58Ck8kUe+lg2pbyuBZApHhcO4d0RybG7US4vimXGIOfZskSe+9nDtNgzbzYbezZWzW5IdJ1zk5rQU5Qovs66xevAj4bQ+v1QB4ehg1sXA5jgEFWgEwEz/OSUSYmDEuAxKBvm8a2Q82ts7rTmIp3ry9tsfQrRNk4ePsq2wgTScZL1uAT8kAvNInAR3LWdUO/bsjHIeKpv5kH5uhjAqAdm0Cci/j4FMPEZ29QwBYlsAg2bskwaHtvrzT8lS04mvqEkjc9uvmfGZgirrGxOco5y11hWsef+zZDvYM+8ytZdApyL9sshNP8E1OEyj87KJQUwVpiUSARaR+A+tOjBwK1il7TL5FkGUaGHFHkxfjRAu96DMpp2s6NhpAAHvmNFcKj1wiG0eQLq+P3Q9XRxEm9ohirPjYB6YNx4xUr9PAq+Hdo6YAUsj0GMrfG3imZCW9hmsEjHHqCqQdH6KONdFnXlk/DpxqvzGz3//wvk28cx70FIPxGa7ZhPybtN4HI0/2+g2EOQp6GOc6Gq5yeKeNO6GMA07a7KHKu2LF9vS0Na0I7r0IZTAraD819cLk7zkJ6TiUMFMPxshXgSh8HLRpCLvYjEZ0MPuWQakHYt7HMNYNZEHj6y+s0B5WqXCOQJzMQGBt7sdYxpHJbdEWIvaRDTEFIQjCrEgYACGAdYkZNy/JtfvCGMgcsUj4J+6pGnXxZODJ7Rb6fldt7gnGiZNpvsVvwzK7uh4jqDS7700dX4JTTKNZPSd57ABSAQ+9o8BnWcHJK0ApiQNFWWDYHYJ4mND0rzJgHeed0TCAbL4iPUrsYg6gXXTH3S34bt7NWpYnwt//4eBVyGPEs88vXLMgc7buy3c8D2PbBvpwH7tUsEighcj40PFO0IvO0klBdsMm8XA5jAx0PFiUBjCbwMz9lzEMIYPDznURAvmvd75CvKwuGj14t2OGw7HmnHOqRnUs4nutIxT1lytuOHZYkK9q+MbccUbNemdAi4DLMOy2veRPCR6tg2ARUcEaqSLgYwmgMT6tPjV06KJ69fS9qRi0MVIWyaZyGvIJ9PT0O+Oj6WzbvIKjYamX2+/Dn3Z2aVivvknYrtj/fZN2gzf3/GNQgbVJ72hSWwIYo7FNoGWhfiyxJT+F66BH7wfIxtZ6CCILFHFyfxdrHNsT+QLuWncKK6+Nv2tJxQ9yQ0vkJD2ZNTJQjh3JmPQ1U+G+zFuQ+qYrshMycZuhp7SmIE5nwcfCrkOrmSw2D7QaF7hVCkLAABBi5XQQwWOAdtLvRYTxw6nAXNhh6GOCTK3pGXoNj2G1RwC3RA5Io4OX0XiL22layLX+Z8SuAKiBccc8HkskjY7LQ9ZnnGl+yy37rxI7u/aFt2f3bdpDXL7L7suut+pl/AAmTJEOAF8y6oSgBzD/JX6YHgk0gMotaHfG06MvJCX8WOR2bXa+IzyHNtlUpL8jI4OgnKnmslWd64u2WeK8sSan+tBDjcR3FOyLYFnizGtmchBjgUe+NmZcT/OWzLIcyFUFXjHC4OIx1QtaCS/GzzKZACmBJQRbuvwUaqicaLmJHxP/s/12n5bdntZr9ZFu3LbsuuD8pTtC+fl92GVSdZsh5ZOAIM5Dn0ckCFIvnm2yp3iOxpmAEdUsEHtqGK8bFln+Gjm5BvdpWKS/JOw37y2aQkXX73odiwEcQ7e1kzCYyG2+v3VDQxmz2fDPyN+DnhjQTF3hsG17zeUgyGbOxyJDoT2sAmcYU0xyLvWdBTFcpwvtuoUpfyVifwOoqgZCIQkkCV4R/6MSWAM5yL4xvA8OLMru8qdhgyj3gUwB6SmOckv5ymQqdCLsYvoKOgb7pkUtpGERgDbyf0VOQ4e7v5YknqCYiBNoObWdBcyOxjL48xbudn+iNmQ6Tlpij3SOi/qpTv2l1apS7lFQERSJMAez/+A2JXtqtxHL9q8MA6OdzBOSg+k/t4UX4EqmIrIzMv3C7GXqeYw0fGl+9gZVXzj8NS13cHWC1MujraRG3Wp23smWHwwuUcaBb0AMR5OcOw01DJeZBt79AwfFIdIpAUAc5r4B2yq6Ym1Qo5IwLtJ7APmsgvM9dzdTrysIfKNR/T3wSNgnzsRGTyqVN53uTGIbA9fMCbPD53OyavliIgAiIgAiIgAiLgQ4C9nuyF8TYFMN7olFEEREAEREAERKACgaORlxOVvUwBjBc2ZRIBERABERABEahIYGPkZxDjZQpgvLApkwiIgAiIgAiIQAACHEZayaccBTA+1JRHBERABERABEQgBAFO5PWazKsAJgR+lSECIiACItA1Avr+DHPE+bj/9j5F6T0BPtSURwREQAREoOsE5gPA3RAfi84a/+dL5sZDa2R3aL0vgTzDvgmzOxTAZGloXQREQAREQATsCFyHZHtDRV++/BkABi/rQCM9TcSSk1Y3hPimZAY4q0DLQzIPAgpgPKApiwiIgAiIQOcJ8KV7/DHFfvYMdsyEbs8l4PtPxkJ8S+4m0AjE4GZTiAEOf8OKWgtiWg1VAUKRKYApoqJtIiACIiACIhCHAH9+g+Jr/GdDN0NZY9DCnpl1IQY2JrhhsGPEd6fw5yWYrrMBjgIYHH2ZCIiACIiACCRCwAQ4nGPzYIFPJsDhUBR7athrQzHQGektx2G5GsSentaaApjWHlo1TAREQAREoIUEsgHOPQXt4/wbBjAMcCjOt+GvVo9Am0HctibEOTo+PxKKbGmYApg0joO8EAEREAEREIEQBDg358me+EvzeeNL4ziBmOJQFHtvRiAGNwx0OHTFAIjyesEc8g3FFMAMBbMqEQEREAEREIEkCCyCF3N6KnKIQ08MYigGORyaYnAzAnHIik9WcR+Xy0O1mQKY2tCrYhEQAREQARFIjsAL8Iia1cczPh21NsQeGvbeMLih+BTVvtB60FBMAcxQMKsSERABERABEWgFAU4upmh3vLl46++lWDvqrf8ir3T28avIXFW8CIiACIiACIhARAIKYCLCVdEiIAIiIAIiIAJxCCiAicNVpYqACIiACIiACEQkoAAmIlwVLQIiIAIiIAIiEIeAApg4XFWqCIiACIiACIhARAIKYCLCVdEiIAIiIALWBF63TqmEIgACeoxaHwMRKCbAFzTxldwyERCB+AReQxU63+JzblUNCmBadTjVmIAEdkVZvw5YnooSARHoT4C9L/xdnlH9k7R6D0dD+GbbEcj8fhHfdssXxvEXp/lKfzJ6BeJL5p7u6XEsH4VmQdzeKVMA06nDrcY6EODFdGuH9EoqAiIgArYE2Ns0Cdod4s0Sl/wdIr7ldgzkYguQeB50H/QziC+Xmw7NhVptCmBafXjVOBEQAREQgUQIMGjZEToMOhzaHhoLVbXVUQDFAOjgXmHsobkZ+jH0U2gW1DpTANO6Q6oGiYAIiIAIJESAv/h8PHQyxJ4WBjKxbV1UwFf6U3zt/xToPOgq6GWoFaYAphWHUY0QAREQARFIjAB/4PCD0CkQe0fqMg5LHdvTbVh+B7oI4tBTo02PUTf68Ml5ERABERCBxAiwx+VL0C3QZ6E6gxdU/zu2G/77d+hG6AxoZaixph6YNA4do+MtoNd64mxziv/bLLNpsusmf35bv+1MlxX+/Z3/bfeZdPn8fDSZs+Yf4w6ZCIiACAQiwGtO3cahofdDn4HY+5KycS7Of0OnQV+AGNA0zhTApHHI2M34rjRccfaiX7DCgsw+c3FhAPMP0Oe5UyYCIiACAQhwJIGPGddp26Hyr0DvrtMJj7oPQp69oHOgv4PmQY0xDSGlcagWp+GGlxcMSvg5okZBDIp5J0LxosIuyjE9cZ3bZSIgAiIQisC2KOjLoQrzKOcDyHM91LTgxTSVr4z4NHQ1xEnGjTEFMGkcqi4dhyVpIJcXIiACLSHAG6QNamgLJ8d+G+KcEj7103Tj/BgGMQzIGmFd+uJM+YCwF6MrZoaTutJetVMERKB9BEbQpEuhD7WsaQzKGJB9Fap7WK4UrQKYUkRDSdCl46AAZigfKVUiAiIQicA7UC57KvaPVH4KxX4KTpwLMaBJ1rr0xZnsQYBjXeqB4RNQMhEQARFoIoG94fTl0FZNdN7R55OQ/vsQf6MpSVMAk8Zh6dJxUA9MGp85eSECIuBGgBNcL4E2dsvW6NRHwPvzoXEptqJLX5wp8jc+qQfGkAi/fAxFvhq+WJUoAiLQIQL83SK+vbaOycJ1Yz4UDnwX4tNKSZkCmDQOR5eOw7B7YFrzux9pfFTlhQh0jsAmaDF7IUY61/KlDeZvKv0zlNR3VVLOLGWltRYTGHYA06XerRZ/bNQ0EaiFAHsd+FQOe2C6bny8+s9TgqAAJo2j0aUv2WFP4iXbLvFN4xMtL0SgHQS+gGY09S3pMY7AF1Eoh5SSMAUwSRyGTn3BDrsHJo0jLC9EQASaRuBoOPynTXM6sr+roPxvQBtFrseqeAUwVpiiJ+Ir9rtiw+4NUQ9MVz5ZaqcIhCOwKYr6OrRiuCJbUxJ/ePgfoWFfy5cBqIOzDJJaNvwItT7Uq5kfCgaW5ou3aN1syy/75TXpzP78//m6svu5j5Zd2qybPPm0jfqxsDdarj8iIAJtJWCuT/n2/S02TMxv1P9vETgRa5dBP3hrSw0rCmBqgF5Q5VcKtqWyiSd4SL1YQ8P6XaRqcMW7Sg69cf4QfzBTVk5AvMoZKcVyyxUNaR8OMKcIzkACvMllkDcFenJgyog7FcBEhNuSonmCF53kTWmeb/DC98ecCr2SSEMZvBwHfbJmf36L+qkHoTnQfIg/0MlhUP6g3Qg0CWI383pQXcZA+YPQw3U5oHqTJ8Av4ecgnlvGxmLlTKjO70aeUzy/zLnGAGEhRH/XgDj/hOfYZr1lXb7Sh49DfwXJREAEIhDg2zNNEOay5AXEN/iJ0IzlRqPQ2zzb4tLuorQzUO9Z0D7QeKjMeKHlxfUY6LsQg8GicmNvo88yEXAh8GEkjv25LCqfQ+sXQ+z52RJaCSqztZBgF+iz0K0QA7GismNuewZ10l9jl2LFp74/NgVoKQIisJTAHlj1OaE4J2nM0mJqX6vjwnoDWs3fQ1mtYus3Qf7PQAwKfY6Fbx5eXLeCZCJgQ4C9G/dAvp83n3yPo76vQltDVYwBzyEQ51O+Cvn44pvnHNRnTAGMIaGlCAQgUCWAWTlA/SGKYLf2ryHfC4xrvvtQ1+nQaCikrY/CeLF+AXL1yTc9n5aQiYANgTOQyPdz5pqPQcb3oGzvhY2PNmn4+0W3Q64++aZn79HmPccUwPRAaCECIQjsiUJ8Tkz2wKQSwLAXxKcNPnkuRF2x3/GwP+oYVkD2GOrq0o/vobkyDwLswbgV8jlnXPM8jHqO9/DRJQt7k/4JGlZvzJd6zimAcTlKSisCJQR8AxgOd/CiVrdxPsm1kOtF0jX9YtTB14QPa94Pe2MuGUK7yOHPIJkIDCJwMHZyMrrreeOa/mbUwcmvw7KTURF7SFz9dE3PCccMmn7oWZfmwACcTATyBPbCBteTkekZwIQeQsn7ZvP/zkj0EuTTBts8C1E+h4yGbRwa+0/I1k/fdD9HHXyDqEwE+hH4b+zw/XzZ5rsGddTxZB6DM861sfXTNx2DJb4Xxie/AhiAk4lAnkDTA5iz0CCfC4JtHva8fCAPbYj/c6I0h61s/fVJx270dw6xTaqqWQQ2hLuxv+BvQh18zUBdxgm+z0E+549tHva++PaqKoCp65OhepMmsDe8sz0Bs+nuT6BV7DW4w9P/bFsGrZ+ZQDvXhA+8wA/ys+o+Th6WiUARAfYcVP18DcrP3ly+VqBuOw0OxBwmewrl+16vFMDU/elQ/UkS8A1g5qM1H4HqvPDsivoXQYMujlX2/QRlpzDPB24stx0U8y74lyifAaFMBPIEzseGKufRoLwc/n1XvsIa//9WxLaSA3t0B/Hot08BTI0fClWdLgHfAMacaE+iaf8DnQgNe/z6U6jT+BF6+TTKfhuUkjFgDN1OUx4Dwe1Taqx8SYLAWvDiIch8TkIvv5ZEK5c6sQ5W74vYXl9+CmCWHiOticBbBDj3wfekyud7BGV9G+J4MiegxjQ+DXQZlPch1P9/FdN5z7LHIN+NEdv8MU+/lK29BHiDE6uXk0/m8Gm71Oy9cOg1KNS1JEQ5CmBS+5TInyQIhAxgzInKk/9uiBNs94BiDMOsjXJ5ATR1hlzORrl1TihE9X3tSOyJdXE9r2+t2tFVAh9Fw0OeW9myPpkoVL7f6paI7c4ysF1XAJPoh0Vu1Utgn8gnKsd8fw59DtoW4ntbQhiHO/j0jO0FwCUdfU3VGAySp0t7bNNyHszoVBsuv2ohcC5qtf38uKTjy+rG19Iiu0rZC+PSnthpvQKYFe3aqlQi0FgCHIqJaTyHdu/pL7Hk2zwvhq6GFkC+xsBrlG/mAfno0w8G7K97F7vzvw+RaWjbAgVuAz0eumCV10gCPL940xHDLkGhnD+Xql0Jxx6EJqXqoI1fCmBsKCmNCNgRWBXJDuppHpbPQj4BFO92xkExjAEWh6ZStivg3JcgvtkzpK2OwhhYvgL5HJeQvqis+gmwtzTGHBX2ynL+WsrG69M1UCoBzMs+sBTA+FBTHhEoJ8AAJFYQUl57/xRTsIsBUsrG7vc7oAMiOBnjCyuCmyqywQTmwHd+flO3q+Agn/xLwZ7ycYIRqEwE2kxAd9pLjy4nx3LyXurGl23dnrqT8k8E+hD4BbZXGT7uU2zwzXehxGeCl+peIIeNOZzlbApgnJEpQ8MI6DO+9IDx5Xz3Lf036bUZSXsn50SgPwFOFm+CPQon2VtUtz0ABx7xcUIXdx9qytMkAvzCPgfyivCb1FALX3mxasKdIZvCi5pMBJpIYGZDnOZcMAYxddtUOPCijxMKYHyoKU+TCMyFs38C7QIdC10APQF10fj2XV60mmCcZNgUX5vAUz4OhwDnl6UwLGPbWl4f6zROeD7f1wEFML7klK9pBJ6Hw/8HnQLtDPGHzS6DOKzSFXsJDeU8mCYYx8Xpr0wEmkTgVTjbpM/tCzXD/RHqn+7rgwIYX3LK12QCvOv4PnQ0xPeNfAK6AWrShQfuOlvqTx85N0gZRCAxAnxooEnnWZ03NLx5/CLESftetqJXLmUSgfYQ4FwL6l8h9swcCTGw2QFqW4DP3xpim+q8aKF6K+O1if7KRKBJBPhyvFUa5PDYGn39POquNFm/bRfoGo+Fqm44Ad418fHHL0B7QwdC/wLdD7XF+PtKfFV/E2xNONmkL4ImMJWP8QmwB2Zc/GqC1VDXe5G+hhZ8s2or1ANTlaDyt5HAQjRqWk/80t8HOh7iW3Y3gppqG8Nxvi3Y662XQ270ZkOuT9WJQCgCm4YqKHI57C3aJHId+eJ5o3g29JeQ99CRKVQ9MIaEliJQTOBZbL4cOh3aFToDugJ6DmqarQuHmxIYcAhPJgJNJNCUz+6GgDvMG7LHUN/7oE9DnOwsEwERqInAFqj3zyD21LBHg3cWTdBH4WfqxhsrBolN4CkfdZzynwG+4Xbl1E8y+Mdhcs6Hy/sf+n/+TMA5EK+ZQW35oKWpMBHoHgEOw/KO61iIE4AnQbF7NnmB4QRXn/OXv5R9ApSybQDnOLlvvIeTi5FnEeTDxqM6ZWkpAZ5jPLd9AhHe0OwLpf5zGGfBRw7l+Fi/JzYZELF3he/C+RXEG7xLodlQcNMcmOBIVWDHCPBk/UVPvCDwLoMTZXkBjGW8SHAG/3EeFeyPPAwQHvfIO6wsB6Min+CFzD8G3QjFDiJRhazFBHiObQ3xxZeuk8l5c3EYlHIAw7lwh0M+disyfbBPRl4PF0DzIM4llImACIjAMgQ+gC38wvbRh5cpLZ0NDDyu9mwX5yVxXF8mAiEIMHC5G/I5xziMtHoIJyKVcSjKZbDh0zbeqMlEQAREwJvAtsjpO/fmTuTlHViKthec4hCQz4X1JuRTr3KKR7W5Pp3n+Vnk5/e0RJvN4VU+mOBzjrFn6t2JtktuiYAINIQA7w5vg3wuQszz/gTbyd6Xiyu0SXeGCR7UhrvEIMT3HLsDeccm2P4D4NMrnu2ai3x1vTsmQZRySQREwJfAl5HR9+L6EPKmdiE6Cj4t8WwTu8P3hGQiEJLARBTGp2h8z7O/COlMgLJWRhnsqfRtz4UBfFARIiACIrDcbmDgO4zEC9i3E2LIYOoeyPfCygmT+umBhA5oi1yp0ivI4Cel98J8Bv74nmPMd3yLjquaIgIiUCOB0ah7GuR7QeJ49hk1+m+qHoUVPu3h2w7m+7QpTEsRCEyAv43Gc8X383kz8qYwoXdf+PFChXbMQt61IJkIiIAIBCHwPpTie2FlvmehA6E67YuovEobeJc7oc4GqO5WE+A8ll9DVT6j5yI/bzjqsq1R8W+hKm34u7qcV70iIALtJLAGmuX7qKe5mHFiHu/O6jB2aVe5u2Ub/rkOx1Vnpwh8FK0154vv8lsoo46n5Bi8/Kai/7zR2RySiYAIiEBQAh9Bab4XVZPvSZRxZFCvBhfGu1He0Zn6fZe8sG41uCrtFYHKBDh0cj/k+zk1+dgTw5uOYdnuqCiE318flsOqRwREoFsEOL5+J2Qukr7LF1HG56CVoJjG4Z5LIF8/s/m+GtNRlS0CGQJ/iPXsZ893nW+K3jFTbqxVviqBNya+fpp8j6OMibGcVLkiIAIicAwQ+D6CbC5UZvkTlMU7t9DGXpfToJmQqavKkmP6evMuIMiGQoDvXroVqvKZNXkZWPw5tBoU2tgjyRfwVR2aNb5+KrSDKk8EREAEsgRWwD8XQuaiU3X5PMr6BrQDVNXYo8PhqWugqn6Z/Lw4MxiSicAwCeyHyhZC5nNYdXkbyuLnmL2oVY1zVL4Mheh1Me26BeXFCLKqtlX5RUAEWkZgItozGzIXnxBLBjL/A50AbQTZGicrbgd9Agp115ptD4M1Bm0yERg2AQYJ2c9iiHVOsv08tCu0MmRr6yDh4dB/QHwaL4Qvpgye+3tCydryyXomx0RABHwIcCiJAUeMpx14geTjpNOhh6AnoQXQEoi9LJzoyCBnG4hDUFtCMe7eOCnxQOhRSCYCwybA3pIrIPbGhDb27syE2DPDc42fcU5UfxliwD4WGg+NQLtAO0EbQzGMQ0dnxyhYZYqACIhAPwJfwQ5zFxV7yVf4L4YYxMSui+UzYJoMyUSgTgJvQ+VzoGF85jlcynPM99ejfXxkD2eMmyAUKxMBERCB/gTYG3IB5HPhSjkPg6Q/6N9s7RGBoRL4PdT2HJTyOePj2zS0adxQSaoyERABEcgQWBPrV0E+F7BU83w20z6tikAKBE6GExzeSfWccfVrBtoyIQWw8kEERKDbBNZF86+FXC9iqaVnF/rfdPtQqvUJE3g/fGtDEMOJxJy3JhMBERCBJAisDS8uh1ILSmz9WQTfP50ESTkhAv0JsCemycNJnJg/qX/ztEcEREAE6iGwKqr9FmQbNKSSbh58Pr0eZKpVBJwJHIQcj0CpnD+2flwGn9d3bq0yiIAIiMCQCPCVCR+HmnKXyO7sfYbERtWIQCgCb0dBUyHb4KHOdOzd5O+Rubx3BsllIiACIlAPgb1R7R1QnRfOsrr/C/5tUA8e1SoClQnwXS0MDEK+sbfsnHHd/wD8O7pyS1WACIiACAyZAH8N9yxoPuR64YuZ/m74cxIkE4E2EDgAjbgVinnOuJb9Cvz5DhTr5XcoWiYCIiAC8Qlsjyq+D9X9BAXfNvo5iBOOZSLQJgL8AcgPQfdBrsFGyPR8h9JPIPbAykRABESgNQT2REvOhYbdI/Nb1HkmNAGSiUCbCayDxnEOGn8eIGRgUlbWS6iPk3QPhTgPTiYCIiACrSTA3zD6a2gGFOunARgkXQ29D1oPkolAlwjwd5SOhS6GnoDKAhDf/fejbP6O0a5Qa00RWWsPrRomAt4E2O3NH4o7GNof2hrynVTLQIg9LXyq6KfQNIhzXWQi0HUCmwMAn7Q7BNoJ4ntYfJ8IegZ5H4RuhK6B+GOQvFlotSmAafXhVeNEIAgBDvGMQNtCDGY2hcZB/KXplaAVIAYqnEvzPPQ0NAu6C7oXmg3xAisTAREoJsCJ9RMhnl88zxjcjIe4nTcUK0LsjVkMvQDxdQhzIPa08DzjTQLPM56HnTEFMJ051GqoCAQnMAYl8sLK68hrEC+uiyCZCIhAGAKjUQw1CmIAwwCFTxLxfJOJgAiIgAiIgAiIgAiIgAiIgAiIgAiIgAiIgAiIgAiIgAiIgAiIgAiIgAiIgAiIgAiIgAiIgAiIgAiIgAiIgAiIgAiIgAiIgAiIgAiIgAiIgAiIgAiIgAiIgAiIgAiIgAiIgAiIgAiIgAiIgAiIgAiIgAiIgAiIgAiIgAiIgAiIgAi0msD/A8YfR7HaGY1vAAAAAElFTkSuQmCC;strokeWidth=2;rounded=0;" parent="drv6iqz0Df6hRnRfteLl-19" vertex="1">
          <mxGeometry x="15" y="12.560000000000002" width="90" height="34.87" as="geometry" />
        </mxCell>
        <mxCell id="drv6iqz0Df6hRnRfteLl-29" value="" style="shape=image;verticalLabelPosition=bottom;labelBackgroundColor=default;verticalAlign=top;aspect=fixed;imageAspect=0;image=https://avatars0.githubusercontent.com/u/54989751?s=200&amp;v=4;strokeWidth=2;rounded=0;" parent="1" vertex="1">
          <mxGeometry x="510" y="390" width="60" height="60" as="geometry" />
        </mxCell>
        <mxCell id="drv6iqz0Df6hRnRfteLl-6" value="" style="shape=image;verticalLabelPosition=bottom;labelBackgroundColor=default;verticalAlign=top;aspect=fixed;imageAspect=0;image=https://avatars.githubusercontent.com/u/1529926?s=200&amp;v=4;strokeWidth=2;rounded=0;" parent="1" vertex="1">
          <mxGeometry x="592" y="550" width="60" height="60" as="geometry" />
        </mxCell>
        <mxCell id="drv6iqz0Df6hRnRfteLl-8" value="" style="shape=image;verticalLabelPosition=bottom;labelBackgroundColor=default;verticalAlign=top;aspect=fixed;imageAspect=0;image=https://upload.wikimedia.org/wikipedia/commons/thumb/5/5e/Cassandra_logo.svg/1280px-Cassandra_logo.svg.png;strokeWidth=2;rounded=0;" parent="1" vertex="1">
          <mxGeometry x="670" y="580" width="65" height="43.55" as="geometry" />
        </mxCell>
        <mxCell id="drv6iqz0Df6hRnRfteLl-26" value="" style="shape=image;verticalLabelPosition=bottom;labelBackgroundColor=default;verticalAlign=top;aspect=fixed;imageAspect=0;image=https://upload.wikimedia.org/wikipedia/commons/thumb/2/29/Postgresql_elephant.svg/1985px-Postgresql_elephant.svg.png;strokeWidth=2;rounded=0;" parent="1" vertex="1">
          <mxGeometry x="520" y="610" width="72" height="74.23" as="geometry" />
        </mxCell>
        <mxCell id="drv6iqz0Df6hRnRfteLl-27" value="" style="shape=image;verticalLabelPosition=bottom;labelBackgroundColor=default;verticalAlign=top;aspect=fixed;imageAspect=0;image=https://www.mysql.com/common/logos/logo-mysql-170x115.png;strokeWidth=2;rounded=0;" parent="1" vertex="1">
          <mxGeometry x="600" y="649.9999999999999" width="86" height="58.15" as="geometry" />
        </mxCell>
        <mxCell id="drv6iqz0Df6hRnRfteLl-5" value="" style="shape=image;verticalLabelPosition=bottom;labelBackgroundColor=default;verticalAlign=top;aspect=fixed;imageAspect=0;image=https://upload.wikimedia.org/wikipedia/commons/thumb/1/1f/WebAssembly_Logo.svg/1280px-WebAssembly_Logo.svg.png;strokeWidth=2;rounded=0;" parent="1" vertex="1">
          <mxGeometry x="733" y="337.56" width="50" height="50" as="geometry" />
        </mxCell>
        <mxCell id="drv6iqz0Df6hRnRfteLl-10" value="" style="shape=image;verticalLabelPosition=bottom;labelBackgroundColor=default;verticalAlign=top;aspect=fixed;imageAspect=0;image=https://upload.wikimedia.org/wikipedia/commons/thumb/1/1f/WebAssembly_Logo.svg/1280px-WebAssembly_Logo.svg.png;strokeWidth=2;rounded=0;" parent="1" vertex="1">
          <mxGeometry x="733" y="395" width="50" height="50" as="geometry" />
        </mxCell>
        <mxCell id="drv6iqz0Df6hRnRfteLl-11" value="" style="shape=image;verticalLabelPosition=bottom;labelBackgroundColor=default;verticalAlign=top;aspect=fixed;imageAspect=0;image=https://upload.wikimedia.org/wikipedia/commons/thumb/1/1f/WebAssembly_Logo.svg/1280px-WebAssembly_Logo.svg.png;strokeWidth=2;rounded=0;" parent="1" vertex="1">
          <mxGeometry x="733" y="455" width="50" height="50" as="geometry" />
        </mxCell>
        <mxCell id="drv6iqz0Df6hRnRfteLl-12" value="" style="shape=image;verticalLabelPosition=bottom;labelBackgroundColor=default;verticalAlign=top;aspect=fixed;imageAspect=0;image=https://upload.wikimedia.org/wikipedia/commons/thumb/1/1f/WebAssembly_Logo.svg/1280px-WebAssembly_Logo.svg.png;strokeWidth=2;rounded=0;" parent="1" vertex="1">
          <mxGeometry x="803" y="337.56" width="50" height="50" as="geometry" />
        </mxCell>
        <mxCell id="drv6iqz0Df6hRnRfteLl-13" value="" style="shape=image;verticalLabelPosition=bottom;labelBackgroundColor=default;verticalAlign=top;aspect=fixed;imageAspect=0;image=https://upload.wikimedia.org/wikipedia/commons/thumb/1/1f/WebAssembly_Logo.svg/1280px-WebAssembly_Logo.svg.png;strokeWidth=2;rounded=0;" parent="1" vertex="1">
          <mxGeometry x="803" y="395" width="50" height="50" as="geometry" />
        </mxCell>
        <mxCell id="drv6iqz0Df6hRnRfteLl-14" value="" style="shape=image;verticalLabelPosition=bottom;labelBackgroundColor=default;verticalAlign=top;aspect=fixed;imageAspect=0;image=https://upload.wikimedia.org/wikipedia/commons/thumb/1/1f/WebAssembly_Logo.svg/1280px-WebAssembly_Logo.svg.png;strokeWidth=2;rounded=0;" parent="1" vertex="1">
          <mxGeometry x="803" y="455" width="50" height="50" as="geometry" />
        </mxCell>
        <mxCell id="drv6iqz0Df6hRnRfteLl-37" style="edgeStyle=orthogonalEdgeStyle;orthogonalLoop=1;jettySize=auto;html=1;exitX=1;exitY=0.25;exitDx=0;exitDy=0;entryX=0;entryY=0.25;entryDx=0;entryDy=0;strokeWidth=2;" parent="1" source="drv6iqz0Df6hRnRfteLl-2" target="drv6iqz0Df6hRnRfteLl-36" edge="1">
          <mxGeometry relative="1" as="geometry">
            <Array as="points">
              <mxPoint x="510" y="405" />
              <mxPoint x="510" y="370" />
            </Array>
          </mxGeometry>
        </mxCell>
        <mxCell id="BXOqnoNX5bFxCncvQAfk-2" value="Client Request/Response" style="edgeLabel;html=1;align=center;verticalAlign=middle;resizable=0;points=[];fontStyle=1" parent="drv6iqz0Df6hRnRfteLl-37" vertex="1" connectable="0">
          <mxGeometry x="0.2533" y="2" relative="1" as="geometry">
            <mxPoint x="-6" y="-9" as="offset" />
          </mxGeometry>
        </mxCell>
        <mxCell id="drv6iqz0Df6hRnRfteLl-42" value="" style="shape=image;verticalLabelPosition=bottom;labelBackgroundColor=default;verticalAlign=top;aspect=fixed;imageAspect=0;image=https://upload.wikimedia.org/wikipedia/commons/thumb/3/38/Prometheus_software_logo.svg/2066px-Prometheus_software_logo.svg.png;" parent="1" vertex="1">
          <mxGeometry x="715" y="634.64" width="50" height="49.59" as="geometry" />
        </mxCell>
        <mxCell id="drv6iqz0Df6hRnRfteLl-44" value="Client" style="rounded=1;whiteSpace=wrap;html=1;strokeWidth=2;fontStyle=1;fillColor=#dae8fc;strokeColor=#6c8ebf;" parent="1" vertex="1">
          <mxGeometry x="40" y="400" width="120" height="60" as="geometry" />
        </mxCell>
        <mxCell id="drv6iqz0Df6hRnRfteLl-45" value="Client" style="rounded=1;whiteSpace=wrap;html=1;strokeWidth=2;fontStyle=1;fillColor=#dae8fc;strokeColor=#6c8ebf;" parent="1" vertex="1">
          <mxGeometry x="30" y="410" width="120" height="60" as="geometry" />
        </mxCell>
        <mxCell id="drv6iqz0Df6hRnRfteLl-46" value="Client" style="rounded=1;whiteSpace=wrap;html=1;strokeWidth=2;fontStyle=1;fillColor=#dae8fc;strokeColor=#6c8ebf;" parent="1" vertex="1">
          <mxGeometry x="20" y="420" width="120" height="60" as="geometry" />
        </mxCell>
        <mxCell id="BXOqnoNX5bFxCncvQAfk-3" style="edgeStyle=orthogonalEdgeStyle;orthogonalLoop=1;jettySize=auto;html=1;exitX=0.5;exitY=1;exitDx=0;exitDy=0;entryX=0.07;entryY=0.4;entryDx=0;entryDy=0;entryPerimeter=0;strokeWidth=2;" parent="1" source="drv6iqz0Df6hRnRfteLl-2" target="drv6iqz0Df6hRnRfteLl-40" edge="1">
          <mxGeometry relative="1" as="geometry">
            <Array as="points">
              <mxPoint x="350" y="530" />
              <mxPoint x="390" y="530" />
              <mxPoint x="390" y="610" />
            </Array>
          </mxGeometry>
        </mxCell>
      </root>
    </mxGraphModel>
  </diagram>
  <diagram name="Copy of Page-1" id="28AIlF8uNalNuBU1agW0">
    <mxGraphModel dx="2954" dy="1157" grid="1" gridSize="10" guides="1" tooltips="1" connect="1" arrows="1" fold="1" page="1" pageScale="1" pageWidth="850" pageHeight="1100" math="0" shadow="0">
      <root>
        <mxCell id="1fYAyKANy_5_VKbp_94J-0" />
        <mxCell id="1fYAyKANy_5_VKbp_94J-1" parent="1fYAyKANy_5_VKbp_94J-0" />
        <mxCell id="1fYAyKANy_5_VKbp_94J-5" style="edgeStyle=orthogonalEdgeStyle;rounded=0;orthogonalLoop=1;jettySize=auto;html=1;exitX=1;exitY=0.5;exitDx=0;exitDy=0;entryX=0;entryY=0.5;entryDx=0;entryDy=0;strokeWidth=2;" parent="1fYAyKANy_5_VKbp_94J-1" source="1fYAyKANy_5_VKbp_94J-6" target="1fYAyKANy_5_VKbp_94J-9" edge="1">
          <mxGeometry relative="1" as="geometry" />
        </mxCell>
        <mxCell id="1fYAyKANy_5_VKbp_94J-6" value="Client" style="rounded=1;whiteSpace=wrap;html=1;strokeWidth=2;fontStyle=1;fillColor=#dae8fc;strokeColor=#6c8ebf;" parent="1fYAyKANy_5_VKbp_94J-1" vertex="1">
          <mxGeometry x="50" y="390" width="120" height="60" as="geometry" />
        </mxCell>
        <mxCell id="1fYAyKANy_5_VKbp_94J-7" value="" style="shape=image;verticalLabelPosition=bottom;labelBackgroundColor=default;verticalAlign=top;aspect=fixed;imageAspect=0;image=https://upload.wikimedia.org/wikipedia/commons/thumb/5/5b/HTTP_logo.svg/2560px-HTTP_logo.svg.png;strokeWidth=2;rounded=0;" parent="1fYAyKANy_5_VKbp_94J-1" vertex="1">
          <mxGeometry x="173.81" y="394.4" width="38.51" height="20.6" as="geometry" />
        </mxCell>
        <mxCell id="1fYAyKANy_5_VKbp_94J-8" value="" style="group;strokeWidth=2;fontStyle=1;rounded=0;fillColor=none;strokeColor=none;" parent="1fYAyKANy_5_VKbp_94J-1" vertex="1" connectable="0">
          <mxGeometry x="290" y="390" width="120" height="60" as="geometry" />
        </mxCell>
        <mxCell id="1fYAyKANy_5_VKbp_94J-9" value="&lt;b&gt;Tarmac&lt;/b&gt;" style="rounded=1;whiteSpace=wrap;html=1;labelPosition=center;verticalLabelPosition=top;align=center;verticalAlign=bottom;strokeWidth=2;fillColor=#f5f5f5;strokeColor=#666666;fontColor=#333333;" parent="1fYAyKANy_5_VKbp_94J-8" vertex="1">
          <mxGeometry width="120" height="60" as="geometry" />
        </mxCell>
        <mxCell id="1fYAyKANy_5_VKbp_94J-10" value="" style="shape=image;verticalLabelPosition=bottom;verticalAlign=top;imageAspect=0;aspect=fixed;image=data:image/png,iVBORw0KGgoAAAANSUhEUgAAAjAAAADZCAYAAAA+JQoMAAAAAXNSR0IArs4c6QAAAMJlWElmTU0AKgAAAAgABwESAAMAAAABAAEAAAEaAAUAAAABAAAAYgEbAAUAAAABAAAAagEoAAMAAAABAAIAAAExAAIAAAARAAAAcgEyAAIAAAAUAAAAhIdpAAQAAAABAAAAmAAAAAAAAABIAAAAAQAAAEgAAAABUGl4ZWxtYXRvciAzLjkuOAAAMjAyMToxMDoxNyAxNDoxMDoxNwAAA6ABAAMAAAABAAEAAKACAAQAAAABAAACMKADAAQAAAABAAAA2QAAAADdjcWiAAAACXBIWXMAAAsTAAALEwEAmpwYAAADqmlUWHRYTUw6Y29tLmFkb2JlLnhtcAAAAAAAPHg6eG1wbWV0YSB4bWxuczp4PSJhZG9iZTpuczptZXRhLyIgeDp4bXB0az0iWE1QIENvcmUgNi4wLjAiPgogICA8cmRmOlJERiB4bWxuczpyZGY9Imh0dHA6Ly93d3cudzMub3JnLzE5OTkvMDIvMjItcmRmLXN5bnRheC1ucyMiPgogICAgICA8cmRmOkRlc2NyaXB0aW9uIHJkZjphYm91dD0iIgogICAgICAgICAgICB4bWxuczp0aWZmPSJodHRwOi8vbnMuYWRvYmUuY29tL3RpZmYvMS4wLyIKICAgICAgICAgICAgeG1sbnM6ZXhpZj0iaHR0cDovL25zLmFkb2JlLmNvbS9leGlmLzEuMC8iCiAgICAgICAgICAgIHhtbG5zOnhtcD0iaHR0cDovL25zLmFkb2JlLmNvbS94YXAvMS4wLyI+CiAgICAgICAgIDx0aWZmOkNvbXByZXNzaW9uPjA8L3RpZmY6Q29tcHJlc3Npb24+CiAgICAgICAgIDx0aWZmOlJlc29sdXRpb25Vbml0PjI8L3RpZmY6UmVzb2x1dGlvblVuaXQ+CiAgICAgICAgIDx0aWZmOlhSZXNvbHV0aW9uPjcyPC90aWZmOlhSZXNvbHV0aW9uPgogICAgICAgICA8dGlmZjpZUmVzb2x1dGlvbj43MjwvdGlmZjpZUmVzb2x1dGlvbj4KICAgICAgICAgPHRpZmY6T3JpZW50YXRpb24+MTwvdGlmZjpPcmllbnRhdGlvbj4KICAgICAgICAgPGV4aWY6UGl4ZWxYRGltZW5zaW9uPjU2MDwvZXhpZjpQaXhlbFhEaW1lbnNpb24+CiAgICAgICAgIDxleGlmOkNvbG9yU3BhY2U+MTwvZXhpZjpDb2xvclNwYWNlPgogICAgICAgICA8ZXhpZjpQaXhlbFlEaW1lbnNpb24+MjE3PC9leGlmOlBpeGVsWURpbWVuc2lvbj4KICAgICAgICAgPHhtcDpDcmVhdG9yVG9vbD5QaXhlbG1hdG9yIDMuOS44PC94bXA6Q3JlYXRvclRvb2w+CiAgICAgICAgIDx4bXA6TW9kaWZ5RGF0ZT4yMDIxLTEwLTE3VDE0OjEwOjE3PC94bXA6TW9kaWZ5RGF0ZT4KICAgICAgPC9yZGY6RGVzY3JpcHRpb24+CiAgIDwvcmRmOlJERj4KPC94OnhtcG1ldGE+CrXx0l4AADJHSURBVHgB7Z0J3B1VecaBEAiELSxhTz4ggLIjO7IEKCAgZQeRTVuXVq12UX9aa4tWtLW02hbr0sUKAtKCBURZhJCwagAlKjuYBAJhTyBAICHQ54F7yDiZe+ecM+fcOTPzvL/f8818M2d5z3/uzH3nnDNzl1tOJgIiIAIiIAIiIAIiIAIiIAIiIAIiIAIiIAIiIAIiIAIiIAIiIAIiIAIiIAIiIAIiIAIiIAIiIAIiIAIiIAIiIAIiIAIiIAIiIAIiIAIiIAIiIAIiIAIiIAIiIAIiIAIiIAIiIAIiIAIiIAIiIAIiIAIiIAIiIAIiIAIiIAIiIAIiIAIiIAIiIAIiIAIiIAIiIAIiIAIiIAIiIAL+BJb3z6qcItAIAhPh5X7Q643wVk6KgAi4EOB32DzoamixS0albT6BFZvfBLVABAYS2AN7zx2YQjtFQASaTOB+OD8NUgDT5KPo4fsKHnmURQSaROC1JjkrX0VABJwJLHLOoQytIKAAphWHUY0QAREQAREQgW4RUADTreOt1oqACIiACIhAKwgogGnFYVQjREAEREAERKBbBBTAdOt4q7UiIAIiIAIi0AoCCmBacRjVCBEQAREQARHoFgEFMN063mqtCIiACIiACLSCgAKYVhxGNUIEREAEREAEukVAAUy3jrdaKwIiIAIiIAKtIKAAphWHUY0QAREQAREQgW4RUADTreOt1oqACIiACIhAKwgogGnFYVQjREAEREAERKBbBPRjjt063mqtPYHnkPRX9smVUgREoAIB/lr8mtAOEH9hWiYCpQQUwJQiUoKOErgT7Z7c0bar2SJQB4F3otKpkL6X6qDfwDo1hNTAgyaXRUAERKCFBNTz0sKDGrNJCmBi0lXZIiACIiACIiACUQgogImCVYWKgAiIgAiIgAjEJKAAJiZdlS0CIiACIiACIhCFgAKYKFhVqAiIgAiIgAiIQEwCCmBi0lXZIiACIiACIiACUQgogImCVYWKgAiIgAiIgAjEJBDiefuN4eC/QWMhvozImFnvt2Q6m3226fJl5fNl92fXXdMV5c1uM+umXP5vtmWX2XWT1iz75cnuN+tmmc2T3TZofdC+bHlFvma3ZddZJs3kL9o3D/vPh15lQpkIiIAIiIAIuBIIEcAwcDkEGuNaudJ3lsAjaPlFkAKYzn4E1HAREAERqEYgxBAS77BfqeaGcneMgD4vHTvgaq4IiIAIhCYQIoChT3qDYugjo/JEQAREQAREQAT6EggRwCh46YtXO/oQMPNj+uzWZhEQARFwIsDvIX0XOSFrfuIQc2BIQR+c5n8W1AIREAERaCIBDknzhyA/Dj3T07NY8mEBaj7E/yn+yvxCaBG0uCfzoAH+lTWJQKgApkltlq/1E9AFo/5jIA9EoC0EXkND1oPeNaBBS7CPDw1QL0AMaor0NLabIMgsF2AbgyQjBj+yBAgogEngIHTQBQUwHTzoarIIRCTAIGaQjcJOamWIT86uD5UZr1MMfF6G2HOTl+nZyQY9XOd25mFPjxF7e2SBCYQIYDT2GPigqDgREAEREIHaCfC7jd+Rq/XEd57ZGIMe9to8n1madfbqMMgxQQ+XHOZ6saeXMkuWIxtAIEQAM6B47RIBERABERCBThFgT89aPdk2nMNTHNrKi/N2ssEO17mNAVE+LYOgTpkCmE4d7mQaqyGkZA6FHBEBEUiAAIe2qHUcfGFvTbbHhuscvsoGPKbHh8NfplfI9AZxycCpsRYigNEQUmMPf22OK4CpDb0qFgERaAmBVdEOal3L9nCekJmTwyXn6TCoMZOVTbBjhrUY4DDweQq6B0rOQgQwbJQeo07u0MohERABERABEXiLAN/7xgnMlK3xqS326kyG7oKSslAvsgsVCCUFR85EI7ASSlYvTDS8KlgEREAEghDgdzt7eE4JUlrgQkIEHo/2Gjc645vpkRn2ki5kh7T61W+Trihv2TazP1u+2Va0LNqWzWvWzbIsvdlflN7sK1pmt5l12zJM+qJlv238zJQ99sj6Ze4EeB5yLN01QGR3ctWnHlg3g1MXM4+puuTJp+XnbBXIfN7y+/v9z0dbY7zTgwyy18N+9Rdt5x1vo+clFDVK2xpP4ES04O8hDiklYyECGI6TXZxMi+SICHSbwCfR/PdALgEiv/i/Af07VMXORubJkG3drPcJ6FSI4+y+9k5k/BfIJYBh7/M5UNU2o4jfsTH47wJoc8g1iKT/j0MnQJybIBOBVAhsAUeOgPjZTsZCBDDJNEaOiIAIvPFo5Q4eHPgW0ypf5uOQn1+8G3rU/XbkqRLATEb+nT3qrVJnv+r2xo5j+u202L4j0hwAXW6RVklEYJgETkNlF0KugXk0H0PMgYnmnAoWARFwJjAVOXyGRbZBvtWda1uagQHE+KX/Oq3t65R62cR7LbupdAt7fqaXpnJPwN6vqsbuepkIpEZgPzjE60QypgAmmUMhR0QgCIEHUMqDHiVxyGNTj3wmC3se+AIvH+MQkO+1iO/N8LmozkC+x3ycHZBnbew7bMB+212HImGVY2Fbj9KJgAuBVZH4JJcMsdP6XjRi+6XyRUAE/AhwMu6tHlk58XRXj3wmy4FmxWPJIa/1PPIxy1bQxh55r/PIU5bl95Bgk7JEFvv51EeIQMiiKiURAScCJyP1mk45IiZWABMRrooWgZoITPWsd3fPfBOQbzvPvMzGAMSnF4V5d4Fcn/jhkz63MHNgC3l3yrJ0fQ58gAqKm4ltZ0Jfh74HXQZNg9hDNxviO1BeghZDycz9gC912SRUfEhdlefr1STePBH9LwLNJ3AzmsCnWFzntHACKa8J/IJ3Mc5/8e1BMfXsj5XrzT8OSw4/udocZOAXVEjbHIUdFLDAPVHW9lBoPwO62Iqi+Fn4Qq4lHAplj6R5LQB7HDg8yOFKyqwzeH431DU7HQ3+3xQarQAmhaMgH0QgLIFHUBy/+PZxLJa9IBy+4KO8LjbZJXGftJyIyy+OJX32F21eDRt9nrgyAV5Rmb7bfh8ZQ3atc77BsZACGN8jYpePvVz5zx0/gwt7YilPQw9xJWdH4f8uBjAHoN08736V4zH0f9VFOXTkqlAEohPwHSIZB8/YC+NivFN1DZSKyt8JGxk8udgIErPnw9WmumYoSc8bwRhPDh2DcseW1K3d9RHgCyO7aPxMhhwu9WaoAMYbnTKKQNIEpnh4tzzy7OGYbwuk38oxT1Hy8djIIMbFdkZivjjOxXwnOQ+qg0MJ7xiUwHMfe8R8HhH3rE7ZRMCaAAP2taxTR0qoACYSWBUrAjUTuBP1z/XwgUEBAxlb2w0J17BNXJKO82BczKfn515U8IBLJRZpj0OaGHfjHNp4j0X9SiICwybAG5faJ/MqgBn2YVd9IjAcAk+iml94VMUhJM6/sLWDbBNapGPvD7+0bYwBg+twF8vlRGGfF/0xb5GtiY1HF+0ItO1QlMPeKZkIpESANzmczFtrDFFr5SkdDfkiAi0j8DraM82jTRshD++ubIxPOVV5d0y+DgYktk8z0c+35Quw+P8mizQuSfZF4kkuGRzTboL0td/pOvqs5N0gwB7TbetsqgKYOumrbhGIS+AGFM8JvS7Gng0+YWBjnPsS8subj6fublMx0tBH9n642HNIPN0lg0VavtjLZcjNoshlknDCpK7Vy2DRhpoJ8CnAWoc4dVLU/AlQ9SIQkcB9KLvo8c+yKjkp1cbY+7CSTULLNAwEbOe18KcLXG0GMsx1zTQgPXtHXIfQrkKemQPKLNrFO13bXrGi/NomArEInICCa5vMqwAm1mFVuSJQP4H5cOE2Dzf2RB6ba8Nkj7LLsvCpm7K6OU/GNsjK1sf3vyzJbqi4fjjyr+9YxjlI/yPHPByq4zthZCKQGoEt4RDnadViZReKWpxSpSIgAsEIXOdREoeGOMdkkPGdLTEeHeaY+oaDKsa+dSC+pdbVfFj0q4NBFO8+XYwvCLwBusIlUy8tAxgO78lEIDUCp8GhWmKJWipNjb78EYEWE2APzAuO7WOXcNnkPAYQmzqWa5OcdZf1rtA31ydzHkWeO20csEyzDdK5/owBA6gF0M8g10e5GSzuCslEIDUCB8Ihng9DNwUwQ0euCkVgqAT4Rcm5MC7G6wLfBzPIeNGytdeQkLIxzoPhENYgcw0cWBYDuWcHFeq473ikX8Uxzw976RnEXO2Yl2/75WRemQikRoDnwal1OKUApg7qqlMEhkdgEaryeXR4UBDB4ROXSbTXIv1shyZz0mq/axMDnLIemqKqbsDG14t2eGxbFXmOdsz3MNJPzeRhMGMb1JlsR2LF9ckrk1dLEYhJgMOpQ/9s9rtIxGyoyhYBERgugake1XGIiI9JFhnnqJT10GTzfRf/3JHdULLO7ugJfdLQJ5e6Wcyr0DSuBDIGd9s5lsUgLtsDxB6hex3LGEF6BneyZhN4Hu7/CmJQPx9aDLkGs8iSlG0Ob949bI/YLSkTARFoN4FfoHlPQbYviSMNBilbQ0WBB9+YOw6yMV6s+fTPOhCHXWyM82AYpMwqSMynHjYu2D5oE4fQOJQWyk5GQa43f5fkKue8pCsh17kD/A2ay3Nl6d9mEfgl3OWXPSdlU+zR4/mR19rYxl4Nng9myfNudWh0Tyl9h3My7wVQqJ5OFDXYUmr8YE+1VwREwJcAhy/ugiY7FMBxbU6WLQpgXMphLwMn0E6HOJxl+94YznP5Pyhv78AG1+vW7cizIF+Q5//rIt9hjnkfQvpbCvJchm2fgFzaw7o5efoRSNZMAuxtYQBLGXvQrPRZmoCF5w/FQIYBD4Mcs+Q6tzPg4dKs8/+x0BpQTNsPhTMg57VmKOZy4gzFIVUiAiIQhQCHMCY7lrwX0p+by8OLp8v8l5uQnhfs30AzIfbq2BgvhpxrsySXmL0/rsa2h7IjUJBrD9A1yDO/wAEGVrzY71iwr98mfknx7v2b/RJoeysJLEarqJd6rXvSopX8fjfiU3v8HG5hkc83CW963gt9zrcA13wruGZQehEQgUYSuBlev+ro+S5IzyAiayP45+3ZDSXrU3r7F2LpMg9lS6TfPFc2u9sHTS7OJX/jX/a8sPcnlHEIx8UYvHHCbpGRyY+LdpRsOwn7de0ugaTdb5zvL4MDe3p+C100BCbvQR0c7hqK6SQYCmZVIgK1E7gTHsx19GIE6Sfk8jCA4J2WjT2BRDMyCadm1stW2e29Uy7RZvg/H9TkkizzL3s42PMTwiahkH0dC7of6QcFUJdj/yuOZe6O9Hk2jkUoeQcJXIw2L4rcbp6jh0Wu463iFcC8hUIrItBqAvPROr5AzcXWReL8kI/LF/ivkZ/zX4yx/ufNPxbL/XJp+KW9am5b2b/seWLXewg7EoVwAqWLXYXEg9r8S+zn8JqLMYA8xiWD0ooACPB8dL0GuIJbHhlOh7iMbgpgoiNWBSKQDIHrHT3hRWjXTB4GD/tn/i9bZX2vZxI9jPU7M/+XrXIOzuhMot0y6zarrHuKTUKLNPSDQzcuxiG7S0sy8I74spI0RbuPxUZOzJSJgC0Bfh4vsk1cIR1vPHaokN86qwIYa1RKKAKNJ3ArWuA6XLFHptV8Kmkk8/+gVV4s2fuRNU7IdQkotkR6M+mQ16q9s4VZrD+ONNkhLIssfZMwkHtH373FO+7BZk7ULbOfIAHnKrjY25B4H5cMSisCIMCA+qnIJBhYnxy5jjeKVwAzDMqqQwTSIHAv3HjI0RV+UY7r5cn3iAwq6lHsLAoebsT21wZlzOzjY58cNqJtAm31xpr9Hw7N0I8QdhwKGe1YECfovmiRh5xceqZYJK/drhOKmU/WbQKPoflXDgHB8ajDXDeiVacAJhpaFSwCyRHgXf5UR68mIP1IL8/k3tJmcRsSzS9IyDkf7Bmxtcm9hNtj6XpBdOntGeQPA6mjByUo2LcQ2/63YHvRJvZWXVi0o2Tbodi/YUka7RaBPIELsCE7tJvfH+J/9pweEqKgQWXwGXGZCIhAdwhMQ1M/4tDclZCW7yl5AMoOJ5UVcW2fBAxqfgZxDoeN8YkbXqd2gTgnx9Y4cfcm28Ql6Q7E/s1L0uR3L8CGPaGd8zsK/ueXCQNFLl3auDHS80vie5BMBGwJsBeUE3pjz1N5P+pgEG/b44qkbqYAxo2XUotA0wn8HA3gl6vL0zQMHvg48PqQjbGnh/UUGb+kb4BsA5itkJbBg0vwhOTLzYF4kQ5hJ6EQl8CCdY6HvsGVyEbfzoOifUlE9l/FD5/AS6jyEih2ALMf6mDPKYdIo9gKUUpVoSIgAqkS4JwQ1y92XoSOgEZZNorzbO4ZkPZ67LN9H8VYpD0Syj/OPaD4N3YxgHquLJHF/olIc5BFurqScCIvgzyZCLgQ4DtheCMT01ZB4afErKCLPTBbAuiBEO9YeDeYFf79nf9t9zEdLZs+v+6y36Ttt8zW1y9N2fYqZfjm5V3sU9DTdE5WCwHOt7gZcnmihwHMCGRr05Bw0NNOHI5igMOhKRv7IyTawCZhJs11mfUqq4ch83pVCoicd3WUfwz0lcj1qPh2EbgXzeFQ0uGRm3Ucyudnc16MeroYwLwTIL8VA2aiZdoGG3TfNm0+3aC82X0MYM6GvsSNstoIXI+aP+VQ+9pIS9kaL4yDbCF2ch6MbQAzaVBhBfvYRT69YLvrJl4fOUSTunE47msQh+5kImBDgDfw50OxAxgO/7IO1hXcuhjAdG2smEEDzSzf/K++v+xWlNVLgO8m4ZNArr0aNl6zW5rDN2XGSb4fLkvkub9sCMu22O2QkJOIUzdOFOZ7am5K3VH5lxSBa+DNw9CEyF6djvJ/AC0JXU8X58Ck8kUe+lg2pbyuBZApHhcO4d0RybG7US4vimXGIOfZskSe+9nDtNgzbzYbezZWzW5IdJ1zk5rQU5Qovs66xevAj4bQ+v1QB4ehg1sXA5jgEFWgEwEz/OSUSYmDEuAxKBvm8a2Q82ts7rTmIp3ry9tsfQrRNk4ePsq2wgTScZL1uAT8kAvNInAR3LWdUO/bsjHIeKpv5kH5uhjAqAdm0Cci/j4FMPEZ29QwBYlsAg2bskwaHtvrzT8lS04mvqEkjc9uvmfGZgirrGxOco5y11hWsef+zZDvYM+8ytZdApyL9sshNP8E1OEyj87KJQUwVpiUSARaR+A+tOjBwK1il7TL5FkGUaGHFHkxfjRAu96DMpp2s6NhpAAHvmNFcKj1wiG0eQLq+P3Q9XRxEm9ohirPjYB6YNx4xUr9PAq+Hdo6YAUsj0GMrfG3imZCW9hmsEjHHqCqQdH6KONdFnXlk/DpxqvzGz3//wvk28cx70FIPxGa7ZhPybtN4HI0/2+g2EOQp6GOc6Gq5yeKeNO6GMA07a7KHKu2LF9vS0Na0I7r0IZTAraD819cLk7zkJ6TiUMFMPxshXgSh8HLRpCLvYjEZ0MPuWQakHYt7HMNYNZEHj6y+s0B5WqXCOQJzMQGBt7sdYxpHJbdEWIvaRDTEFIQjCrEgYACGAdYkZNy/JtfvCGMgcsUj4J+6pGnXxZODJ7Rb6fldt7gnGiZNpvsVvwzK7uh4jqDS7700dX4JTTKNZPSd57ABSAQ+9o8BnWcHJK0ApiQNFWWDYHYJ4mND0rzJgHeed0TCAbL4iPUrsYg6gXXTH3S34bt7NWpYnwt//4eBVyGPEs88vXLMgc7buy3c8D2PbBvpwH7tUsEighcj40PFO0IvO0klBdsMm8XA5jAx0PFiUBjCbwMz9lzEMIYPDznURAvmvd75CvKwuGj14t2OGw7HmnHOqRnUs4nutIxT1lytuOHZYkK9q+MbccUbNemdAi4DLMOy2veRPCR6tg2ARUcEaqSLgYwmgMT6tPjV06KJ69fS9qRi0MVIWyaZyGvIJ9PT0O+Oj6WzbvIKjYamX2+/Dn3Z2aVivvknYrtj/fZN2gzf3/GNQgbVJ72hSWwIYo7FNoGWhfiyxJT+F66BH7wfIxtZ6CCILFHFyfxdrHNsT+QLuWncKK6+Nv2tJxQ9yQ0vkJD2ZNTJQjh3JmPQ1U+G+zFuQ+qYrshMycZuhp7SmIE5nwcfCrkOrmSw2D7QaF7hVCkLAABBi5XQQwWOAdtLvRYTxw6nAXNhh6GOCTK3pGXoNj2G1RwC3RA5Io4OX0XiL22layLX+Z8SuAKiBccc8HkskjY7LQ9ZnnGl+yy37rxI7u/aFt2f3bdpDXL7L7suut+pl/AAmTJEOAF8y6oSgBzD/JX6YHgk0gMotaHfG06MvJCX8WOR2bXa+IzyHNtlUpL8jI4OgnKnmslWd64u2WeK8sSan+tBDjcR3FOyLYFnizGtmchBjgUe+NmZcT/OWzLIcyFUFXjHC4OIx1QtaCS/GzzKZACmBJQRbuvwUaqicaLmJHxP/s/12n5bdntZr9ZFu3LbsuuD8pTtC+fl92GVSdZsh5ZOAIM5Dn0ckCFIvnm2yp3iOxpmAEdUsEHtqGK8bFln+Gjm5BvdpWKS/JOw37y2aQkXX73odiwEcQ7e1kzCYyG2+v3VDQxmz2fDPyN+DnhjQTF3hsG17zeUgyGbOxyJDoT2sAmcYU0xyLvWdBTFcpwvtuoUpfyVifwOoqgZCIQkkCV4R/6MSWAM5yL4xvA8OLMru8qdhgyj3gUwB6SmOckv5ymQqdCLsYvoKOgb7pkUtpGERgDbyf0VOQ4e7v5YknqCYiBNoObWdBcyOxjL48xbudn+iNmQ6Tlpij3SOi/qpTv2l1apS7lFQERSJMAez/+A2JXtqtxHL9q8MA6OdzBOSg+k/t4UX4EqmIrIzMv3C7GXqeYw0fGl+9gZVXzj8NS13cHWC1MujraRG3Wp23smWHwwuUcaBb0AMR5OcOw01DJeZBt79AwfFIdIpAUAc5r4B2yq6Ym1Qo5IwLtJ7APmsgvM9dzdTrysIfKNR/T3wSNgnzsRGTyqVN53uTGIbA9fMCbPD53OyavliIgAiIgAiIgAiLgQ4C9nuyF8TYFMN7olFEEREAEREAERKACgaORlxOVvUwBjBc2ZRIBERABERABEahIYGPkZxDjZQpgvLApkwiIgAiIgAiIQAACHEZayaccBTA+1JRHBERABERABEQgBAFO5PWazKsAJgR+lSECIiACItA1Avr+DHPE+bj/9j5F6T0BPtSURwREQAREoOsE5gPA3RAfi84a/+dL5sZDa2R3aL0vgTzDvgmzOxTAZGloXQREQAREQATsCFyHZHtDRV++/BkABi/rQCM9TcSSk1Y3hPimZAY4q0DLQzIPAgpgPKApiwiIgAiIQOcJ8KV7/DHFfvYMdsyEbs8l4PtPxkJ8S+4m0AjE4GZTiAEOf8OKWgtiWg1VAUKRKYApoqJtIiACIiACIhCHAH9+g+Jr/GdDN0NZY9DCnpl1IQY2JrhhsGPEd6fw5yWYrrMBjgIYHH2ZCIiACIiACCRCwAQ4nGPzYIFPJsDhUBR7athrQzHQGektx2G5GsSentaaApjWHlo1TAREQAREoIUEsgHOPQXt4/wbBjAMcCjOt+GvVo9Am0HctibEOTo+PxKKbGmYApg0joO8EAEREAEREIEQBDg358me+EvzeeNL4ziBmOJQFHtvRiAGNwx0OHTFAIjyesEc8g3FFMAMBbMqEQEREAEREIEkCCyCF3N6KnKIQ08MYigGORyaYnAzAnHIik9WcR+Xy0O1mQKY2tCrYhEQAREQARFIjsAL8Iia1cczPh21NsQeGvbeMLih+BTVvtB60FBMAcxQMKsSERABERABEWgFAU4upmh3vLl46++lWDvqrf8ir3T28avIXFW8CIiACIiACIhARAIKYCLCVdEiIAIiIAIiIAJxCCiAicNVpYqACIiACIiACEQkoAAmIlwVLQIiIAIiIAIiEIeAApg4XFWqCIiACIiACIhARAIKYCLCVdEiIAIiIALWBF63TqmEIgACeoxaHwMRKCbAFzTxldwyERCB+AReQxU63+JzblUNCmBadTjVmIAEdkVZvw5YnooSARHoT4C9L/xdnlH9k7R6D0dD+GbbEcj8fhHfdssXxvEXp/lKfzJ6BeJL5p7u6XEsH4VmQdzeKVMA06nDrcY6EODFdGuH9EoqAiIgArYE2Ns0Cdod4s0Sl/wdIr7ldgzkYguQeB50H/QziC+Xmw7NhVptCmBafXjVOBEQAREQgUQIMGjZEToMOhzaHhoLVbXVUQDFAOjgXmHsobkZ+jH0U2gW1DpTANO6Q6oGiYAIiIAIJESAv/h8PHQyxJ4WBjKxbV1UwFf6U3zt/xToPOgq6GWoFaYAphWHUY0QAREQARFIjAB/4PCD0CkQe0fqMg5LHdvTbVh+B7oI4tBTo02PUTf68Ml5ERABERCBxAiwx+VL0C3QZ6E6gxdU/zu2G/77d+hG6AxoZaixph6YNA4do+MtoNd64mxziv/bLLNpsusmf35bv+1MlxX+/Z3/bfeZdPn8fDSZs+Yf4w6ZCIiACAQiwGtO3cahofdDn4HY+5KycS7Of0OnQV+AGNA0zhTApHHI2M34rjRccfaiX7DCgsw+c3FhAPMP0Oe5UyYCIiACAQhwJIGPGddp26Hyr0DvrtMJj7oPQp69oHOgv4PmQY0xDSGlcagWp+GGlxcMSvg5okZBDIp5J0LxosIuyjE9cZ3bZSIgAiIQisC2KOjLoQrzKOcDyHM91LTgxTSVr4z4NHQ1xEnGjTEFMGkcqi4dhyVpIJcXIiACLSHAG6QNamgLJ8d+G+KcEj7103Tj/BgGMQzIGmFd+uJM+YCwF6MrZoaTutJetVMERKB9BEbQpEuhD7WsaQzKGJB9Fap7WK4UrQKYUkRDSdCl46AAZigfKVUiAiIQicA7UC57KvaPVH4KxX4KTpwLMaBJ1rr0xZnsQYBjXeqB4RNQMhEQARFoIoG94fTl0FZNdN7R55OQ/vsQf6MpSVMAk8Zh6dJxUA9MGp85eSECIuBGgBNcL4E2dsvW6NRHwPvzoXEptqJLX5wp8jc+qQfGkAi/fAxFvhq+WJUoAiLQIQL83SK+vbaOycJ1Yz4UDnwX4tNKSZkCmDQOR5eOw7B7YFrzux9pfFTlhQh0jsAmaDF7IUY61/KlDeZvKv0zlNR3VVLOLGWltRYTGHYA06XerRZ/bNQ0EaiFAHsd+FQOe2C6bny8+s9TgqAAJo2j0aUv2WFP4iXbLvFN4xMtL0SgHQS+gGY09S3pMY7AF1Eoh5SSMAUwSRyGTn3BDrsHJo0jLC9EQASaRuBoOPynTXM6sr+roPxvQBtFrseqeAUwVpiiJ+Ir9rtiw+4NUQ9MVz5ZaqcIhCOwKYr6OrRiuCJbUxJ/ePgfoWFfy5cBqIOzDJJaNvwItT7Uq5kfCgaW5ou3aN1syy/75TXpzP78//m6svu5j5Zd2qybPPm0jfqxsDdarj8iIAJtJWCuT/n2/S02TMxv1P9vETgRa5dBP3hrSw0rCmBqgF5Q5VcKtqWyiSd4SL1YQ8P6XaRqcMW7Sg69cf4QfzBTVk5AvMoZKcVyyxUNaR8OMKcIzkACvMllkDcFenJgyog7FcBEhNuSonmCF53kTWmeb/DC98ecCr2SSEMZvBwHfbJmf36L+qkHoTnQfIg/0MlhUP6g3Qg0CWI383pQXcZA+YPQw3U5oHqTJ8Av4ecgnlvGxmLlTKjO70aeUzy/zLnGAGEhRH/XgDj/hOfYZr1lXb7Sh49DfwXJREAEIhDg2zNNEOay5AXEN/iJ0IzlRqPQ2zzb4tLuorQzUO9Z0D7QeKjMeKHlxfUY6LsQg8GicmNvo88yEXAh8GEkjv25LCqfQ+sXQ+z52RJaCSqztZBgF+iz0K0QA7GismNuewZ10l9jl2LFp74/NgVoKQIisJTAHlj1OaE4J2nM0mJqX6vjwnoDWs3fQ1mtYus3Qf7PQAwKfY6Fbx5eXLeCZCJgQ4C9G/dAvp83n3yPo76vQltDVYwBzyEQ51O+Cvn44pvnHNRnTAGMIaGlCAQgUCWAWTlA/SGKYLf2ryHfC4xrvvtQ1+nQaCikrY/CeLF+AXL1yTc9n5aQiYANgTOQyPdz5pqPQcb3oGzvhY2PNmn4+0W3Q64++aZn79HmPccUwPRAaCECIQjsiUJ8Tkz2wKQSwLAXxKcNPnkuRF2x3/GwP+oYVkD2GOrq0o/vobkyDwLswbgV8jlnXPM8jHqO9/DRJQt7k/4JGlZvzJd6zimAcTlKSisCJQR8AxgOd/CiVrdxPsm1kOtF0jX9YtTB14QPa94Pe2MuGUK7yOHPIJkIDCJwMHZyMrrreeOa/mbUwcmvw7KTURF7SFz9dE3PCccMmn7oWZfmwACcTATyBPbCBteTkekZwIQeQsn7ZvP/zkj0EuTTBts8C1E+h4yGbRwa+0/I1k/fdD9HHXyDqEwE+hH4b+zw/XzZ5rsGddTxZB6DM861sfXTNx2DJb4Xxie/AhiAk4lAnkDTA5iz0CCfC4JtHva8fCAPbYj/c6I0h61s/fVJx270dw6xTaqqWQQ2hLuxv+BvQh18zUBdxgm+z0E+549tHva++PaqKoCp65OhepMmsDe8sz0Bs+nuT6BV7DW4w9P/bFsGrZ+ZQDvXhA+8wA/ys+o+Th6WiUARAfYcVP18DcrP3ly+VqBuOw0OxBwmewrl+16vFMDU/elQ/UkS8A1g5qM1H4HqvPDsivoXQYMujlX2/QRlpzDPB24stx0U8y74lyifAaFMBPIEzseGKufRoLwc/n1XvsIa//9WxLaSA3t0B/Hot08BTI0fClWdLgHfAMacaE+iaf8DnQgNe/z6U6jT+BF6+TTKfhuUkjFgDN1OUx4Dwe1Taqx8SYLAWvDiIch8TkIvv5ZEK5c6sQ5W74vYXl9+CmCWHiOticBbBDj3wfekyud7BGV9G+J4MiegxjQ+DXQZlPch1P9/FdN5z7LHIN+NEdv8MU+/lK29BHiDE6uXk0/m8Gm71Oy9cOg1KNS1JEQ5CmBS+5TInyQIhAxgzInKk/9uiBNs94BiDMOsjXJ5ATR1hlzORrl1TihE9X3tSOyJdXE9r2+t2tFVAh9Fw0OeW9myPpkoVL7f6paI7c4ysF1XAJPoh0Vu1Utgn8gnKsd8fw59DtoW4ntbQhiHO/j0jO0FwCUdfU3VGAySp0t7bNNyHszoVBsuv2ohcC5qtf38uKTjy+rG19Iiu0rZC+PSnthpvQKYFe3aqlQi0FgCHIqJaTyHdu/pL7Hk2zwvhq6GFkC+xsBrlG/mAfno0w8G7K97F7vzvw+RaWjbAgVuAz0eumCV10gCPL940xHDLkGhnD+Xql0Jxx6EJqXqoI1fCmBsKCmNCNgRWBXJDuppHpbPQj4BFO92xkExjAEWh6ZStivg3JcgvtkzpK2OwhhYvgL5HJeQvqis+gmwtzTGHBX2ynL+WsrG69M1UCoBzMs+sBTA+FBTHhEoJ8AAJFYQUl57/xRTsIsBUsrG7vc7oAMiOBnjCyuCmyqywQTmwHd+flO3q+Agn/xLwZ7ycYIRqEwE2kxAd9pLjy4nx3LyXurGl23dnrqT8k8E+hD4BbZXGT7uU2zwzXehxGeCl+peIIeNOZzlbApgnJEpQ8MI6DO+9IDx5Xz3Lf036bUZSXsn50SgPwFOFm+CPQon2VtUtz0ABx7xcUIXdx9qytMkAvzCPgfyivCb1FALX3mxasKdIZvCi5pMBJpIYGZDnOZcMAYxddtUOPCijxMKYHyoKU+TCMyFs38C7QIdC10APQF10fj2XV60mmCcZNgUX5vAUz4OhwDnl6UwLGPbWl4f6zROeD7f1wEFML7klK9pBJ6Hw/8HnQLtDPGHzS6DOKzSFXsJDeU8mCYYx8Xpr0wEmkTgVTjbpM/tCzXD/RHqn+7rgwIYX3LK12QCvOv4PnQ0xPeNfAK6AWrShQfuOlvqTx85N0gZRCAxAnxooEnnWZ03NLx5/CLESftetqJXLmUSgfYQ4FwL6l8h9swcCTGw2QFqW4DP3xpim+q8aKF6K+O1if7KRKBJBPhyvFUa5PDYGn39POquNFm/bRfoGo+Fqm44Ad418fHHL0B7QwdC/wLdD7XF+PtKfFV/E2xNONmkL4ImMJWP8QmwB2Zc/GqC1VDXe5G+hhZ8s2or1ANTlaDyt5HAQjRqWk/80t8HOh7iW3Y3gppqG8Nxvi3Y662XQ270ZkOuT9WJQCgCm4YqKHI57C3aJHId+eJ5o3g29JeQ99CRKVQ9MIaEliJQTOBZbL4cOh3aFToDugJ6DmqarQuHmxIYcAhPJgJNJNCUz+6GgDvMG7LHUN/7oE9DnOwsEwERqInAFqj3zyD21LBHg3cWTdBH4WfqxhsrBolN4CkfdZzynwG+4Xbl1E8y+Mdhcs6Hy/sf+n/+TMA5EK+ZQW35oKWpMBHoHgEOw/KO61iIE4AnQbF7NnmB4QRXn/OXv5R9ApSybQDnOLlvvIeTi5FnEeTDxqM6ZWkpAZ5jPLd9AhHe0OwLpf5zGGfBRw7l+Fi/JzYZELF3he/C+RXEG7xLodlQcNMcmOBIVWDHCPBk/UVPvCDwLoMTZXkBjGW8SHAG/3EeFeyPPAwQHvfIO6wsB6Min+CFzD8G3QjFDiJRhazFBHiObQ3xxZeuk8l5c3EYlHIAw7lwh0M+disyfbBPRl4PF0DzIM4llImACIjAMgQ+gC38wvbRh5cpLZ0NDDyu9mwX5yVxXF8mAiEIMHC5G/I5xziMtHoIJyKVcSjKZbDh0zbeqMlEQAREwJvAtsjpO/fmTuTlHViKthec4hCQz4X1JuRTr3KKR7W5Pp3n+Vnk5/e0RJvN4VU+mOBzjrFn6t2JtktuiYAINIQA7w5vg3wuQszz/gTbyd6Xiyu0SXeGCR7UhrvEIMT3HLsDeccm2P4D4NMrnu2ai3x1vTsmQZRySQREwJfAl5HR9+L6EPKmdiE6Cj4t8WwTu8P3hGQiEJLARBTGp2h8z7O/COlMgLJWRhnsqfRtz4UBfFARIiACIrDcbmDgO4zEC9i3E2LIYOoeyPfCygmT+umBhA5oi1yp0ivI4Cel98J8Bv74nmPMd3yLjquaIgIiUCOB0ah7GuR7QeJ49hk1+m+qHoUVPu3h2w7m+7QpTEsRCEyAv43Gc8X383kz8qYwoXdf+PFChXbMQt61IJkIiIAIBCHwPpTie2FlvmehA6E67YuovEobeJc7oc4GqO5WE+A8ll9DVT6j5yI/bzjqsq1R8W+hKm34u7qcV70iIALtJLAGmuX7qKe5mHFiHu/O6jB2aVe5u2Ub/rkOx1Vnpwh8FK0154vv8lsoo46n5Bi8/Kai/7zR2RySiYAIiEBQAh9Bab4XVZPvSZRxZFCvBhfGu1He0Zn6fZe8sG41uCrtFYHKBDh0cj/k+zk1+dgTw5uOYdnuqCiE318flsOqRwREoFsEOL5+J2Qukr7LF1HG56CVoJjG4Z5LIF8/s/m+GtNRlS0CGQJ/iPXsZ893nW+K3jFTbqxVviqBNya+fpp8j6OMibGcVLkiIAIicAwQ+D6CbC5UZvkTlMU7t9DGXpfToJmQqavKkmP6evMuIMiGQoDvXroVqvKZNXkZWPw5tBoU2tgjyRfwVR2aNb5+KrSDKk8EREAEsgRWwD8XQuaiU3X5PMr6BrQDVNXYo8PhqWugqn6Z/Lw4MxiSicAwCeyHyhZC5nNYdXkbyuLnmL2oVY1zVL4Mheh1Me26BeXFCLKqtlX5RUAEWkZgItozGzIXnxBLBjL/A50AbQTZGicrbgd9Agp115ptD4M1Bm0yERg2AQYJ2c9iiHVOsv08tCu0MmRr6yDh4dB/QHwaL4Qvpgye+3tCydryyXomx0RABHwIcCiJAUeMpx14geTjpNOhh6AnoQXQEoi9LJzoyCBnG4hDUFtCMe7eOCnxQOhRSCYCwybA3pIrIPbGhDb27syE2DPDc42fcU5UfxliwD4WGg+NQLtAO0EbQzGMQ0dnxyhYZYqACIhAPwJfwQ5zFxV7yVf4L4YYxMSui+UzYJoMyUSgTgJvQ+VzoGF85jlcynPM99ejfXxkD2eMmyAUKxMBERCB/gTYG3IB5HPhSjkPg6Q/6N9s7RGBoRL4PdT2HJTyOePj2zS0adxQSaoyERABEcgQWBPrV0E+F7BU83w20z6tikAKBE6GExzeSfWccfVrBtoyIQWw8kEERKDbBNZF86+FXC9iqaVnF/rfdPtQqvUJE3g/fGtDEMOJxJy3JhMBERCBJAisDS8uh1ILSmz9WQTfP50ESTkhAv0JsCemycNJnJg/qX/ztEcEREAE6iGwKqr9FmQbNKSSbh58Pr0eZKpVBJwJHIQcj0CpnD+2flwGn9d3bq0yiIAIiMCQCPCVCR+HmnKXyO7sfYbERtWIQCgCb0dBUyHb4KHOdOzd5O+Rubx3BsllIiACIlAPgb1R7R1QnRfOsrr/C/5tUA8e1SoClQnwXS0MDEK+sbfsnHHd/wD8O7pyS1WACIiACAyZAH8N9yxoPuR64YuZ/m74cxIkE4E2EDgAjbgVinnOuJb9Cvz5DhTr5XcoWiYCIiAC8Qlsjyq+D9X9BAXfNvo5iBOOZSLQJgL8AcgPQfdBrsFGyPR8h9JPIPbAykRABESgNQT2REvOhYbdI/Nb1HkmNAGSiUCbCayDxnEOGn8eIGRgUlbWS6iPk3QPhTgPTiYCIiACrSTA3zD6a2gGFOunARgkXQ29D1oPkolAlwjwd5SOhS6GnoDKAhDf/fejbP6O0a5Qa00RWWsPrRomAt4E2O3NH4o7GNof2hrynVTLQIg9LXyq6KfQNIhzXWQi0HUCmwMAn7Q7BNoJ4ntYfJ8IegZ5H4RuhK6B+GOQvFlotSmAafXhVeNEIAgBDvGMQNtCDGY2hcZB/KXplaAVIAYqnEvzPPQ0NAu6C7oXmg3xAisTAREoJsCJ9RMhnl88zxjcjIe4nTcUK0LsjVkMvQDxdQhzIPa08DzjTQLPM56HnTEFMJ051GqoCAQnMAYl8sLK68hrEC+uiyCZCIhAGAKjUQw1CmIAwwCFTxLxfJOJgAiIgAiIgAiIgAiIgAiIgAiIgAiIgAiIgAiIgAiIgAiIgAiIgAiIgAiIgAiIgAiIgAiIgAiIgAiIgAiIgAiIgAiIgAiIgAiIgAiIgAiIgAiIgAiIgAiIgAiIgAiIgAiIgAiIgAiIgAiIgAiIgAiIgAiIgAiIgAiIgAiIgAiIgAi0msD/A8YfR7HaGY1vAAAAAElFTkSuQmCC;strokeWidth=2;rounded=0;" parent="1fYAyKANy_5_VKbp_94J-8" vertex="1">
          <mxGeometry x="15" y="12.560000000000002" width="90" height="34.87" as="geometry" />
        </mxCell>
        <mxCell id="1fYAyKANy_5_VKbp_94J-14" value="" style="shape=image;verticalLabelPosition=bottom;labelBackgroundColor=default;verticalAlign=top;aspect=fixed;imageAspect=0;image=https://upload.wikimedia.org/wikipedia/commons/thumb/2/29/Postgresql_elephant.svg/1985px-Postgresql_elephant.svg.png;strokeWidth=2;rounded=0;" parent="1fYAyKANy_5_VKbp_94J-1" vertex="1">
          <mxGeometry x="490" y="460" width="72" height="74.23" as="geometry" />
        </mxCell>
        <mxCell id="vhC4GJCCeLjf8q7Gj-6F-0" style="edgeStyle=orthogonalEdgeStyle;orthogonalLoop=1;jettySize=auto;html=1;exitX=0;exitY=0.75;exitDx=0;exitDy=0;entryX=1;entryY=0.75;entryDx=0;entryDy=0;strokeWidth=2;" parent="1fYAyKANy_5_VKbp_94J-1" source="1fYAyKANy_5_VKbp_94J-16" target="1fYAyKANy_5_VKbp_94J-9" edge="1">
          <mxGeometry relative="1" as="geometry">
            <Array as="points">
              <mxPoint x="470" y="394" />
              <mxPoint x="470" y="435" />
            </Array>
          </mxGeometry>
        </mxCell>
        <mxCell id="vhC4GJCCeLjf8q7Gj-6F-5" value="Capability Callbacks" style="edgeLabel;html=1;align=center;verticalAlign=middle;resizable=0;points=[];fontStyle=1" parent="vhC4GJCCeLjf8q7Gj-6F-0" vertex="1" connectable="0">
          <mxGeometry x="-0.1414" y="-3" relative="1" as="geometry">
            <mxPoint x="6" y="14" as="offset" />
          </mxGeometry>
        </mxCell>
        <mxCell id="1fYAyKANy_5_VKbp_94J-16" value="" style="shape=image;verticalLabelPosition=bottom;labelBackgroundColor=default;verticalAlign=top;aspect=fixed;imageAspect=0;image=https://upload.wikimedia.org/wikipedia/commons/thumb/1/1f/WebAssembly_Logo.svg/1280px-WebAssembly_Logo.svg.png;strokeWidth=2;rounded=0;" parent="1fYAyKANy_5_VKbp_94J-1" vertex="1">
          <mxGeometry x="640" y="345" width="65" height="65" as="geometry" />
        </mxCell>
        <mxCell id="1fYAyKANy_5_VKbp_94J-22" style="edgeStyle=orthogonalEdgeStyle;orthogonalLoop=1;jettySize=auto;html=1;exitX=1;exitY=0.25;exitDx=0;exitDy=0;entryX=0;entryY=0.25;entryDx=0;entryDy=0;strokeWidth=2;" parent="1fYAyKANy_5_VKbp_94J-1" source="1fYAyKANy_5_VKbp_94J-9" target="1fYAyKANy_5_VKbp_94J-16" edge="1">
          <mxGeometry relative="1" as="geometry">
            <mxPoint x="600" y="370" as="targetPoint" />
            <Array as="points">
              <mxPoint x="450" y="405" />
              <mxPoint x="450" y="361" />
            </Array>
          </mxGeometry>
        </mxCell>
        <mxCell id="vhC4GJCCeLjf8q7Gj-6F-4" value="Client Request/Response" style="edgeLabel;html=1;align=center;verticalAlign=middle;resizable=0;points=[];fontStyle=1" parent="1fYAyKANy_5_VKbp_94J-22" vertex="1" connectable="0">
          <mxGeometry x="-0.0226" y="-2" relative="1" as="geometry">
            <mxPoint x="23" y="-14" as="offset" />
          </mxGeometry>
        </mxCell>
        <mxCell id="1fYAyKANy_5_VKbp_94J-26" value="Client" style="rounded=1;whiteSpace=wrap;html=1;strokeWidth=2;fontStyle=1;fillColor=#dae8fc;strokeColor=#6c8ebf;" parent="1fYAyKANy_5_VKbp_94J-1" vertex="1">
          <mxGeometry x="40" y="400" width="120" height="60" as="geometry" />
        </mxCell>
        <mxCell id="1fYAyKANy_5_VKbp_94J-27" value="Client" style="rounded=1;whiteSpace=wrap;html=1;strokeWidth=2;fontStyle=1;fillColor=#dae8fc;strokeColor=#6c8ebf;" parent="1fYAyKANy_5_VKbp_94J-1" vertex="1">
          <mxGeometry x="30" y="410" width="120" height="60" as="geometry" />
        </mxCell>
        <mxCell id="1fYAyKANy_5_VKbp_94J-28" value="Client" style="rounded=1;whiteSpace=wrap;html=1;strokeWidth=2;fontStyle=1;fillColor=#dae8fc;strokeColor=#6c8ebf;" parent="1fYAyKANy_5_VKbp_94J-1" vertex="1">
          <mxGeometry x="20" y="420" width="120" height="60" as="geometry" />
        </mxCell>
        <mxCell id="vhC4GJCCeLjf8q7Gj-6F-2" style="edgeStyle=orthogonalEdgeStyle;orthogonalLoop=1;jettySize=auto;html=1;exitX=0.5;exitY=1;exitDx=0;exitDy=0;entryX=0;entryY=0.5;entryDx=0;entryDy=0;strokeWidth=2;" parent="1fYAyKANy_5_VKbp_94J-1" source="1fYAyKANy_5_VKbp_94J-9" target="1fYAyKANy_5_VKbp_94J-14" edge="1">
          <mxGeometry relative="1" as="geometry" />
        </mxCell>
        <mxCell id="vhC4GJCCeLjf8q7Gj-6F-3" value="&lt;b&gt;Database Callbacks&lt;/b&gt;" style="edgeLabel;html=1;align=center;verticalAlign=middle;resizable=0;points=[];" parent="vhC4GJCCeLjf8q7Gj-6F-2" vertex="1" connectable="0">
          <mxGeometry x="-0.7114" y="1" relative="1" as="geometry">
            <mxPoint x="59" y="7" as="offset" />
          </mxGeometry>
        </mxCell>
      </root>
    </mxGraphModel>
  </diagram>
  <diagram id="ibiydexFNKTZnl2Op46P" name="Page-3">
    <mxGraphModel dx="1234" dy="1157" grid="1" gridSize="10" guides="1" tooltips="1" connect="1" arrows="1" fold="1" page="1" pageScale="1" pageWidth="850" pageHeight="1100" math="0" shadow="0">
      <root>
        <mxCell id="0" />
        <mxCell id="1" parent="0" />
        <mxCell id="44ogMM2CG0sjfGNydAzE-13" style="edgeStyle=orthogonalEdgeStyle;rounded=0;orthogonalLoop=1;jettySize=auto;html=1;exitX=1;exitY=0.5;exitDx=0;exitDy=0;entryX=0;entryY=0.5;entryDx=0;entryDy=0;strokeWidth=3;" edge="1" parent="1" source="TqgSpwLOpJsF1g5nsNJc-3" target="4cFFHlUWLm8vPbTLAcJ5-5">
          <mxGeometry relative="1" as="geometry" />
        </mxCell>
        <mxCell id="44ogMM2CG0sjfGNydAzE-14" style="edgeStyle=orthogonalEdgeStyle;rounded=0;orthogonalLoop=1;jettySize=auto;html=1;exitX=1;exitY=0.5;exitDx=0;exitDy=0;entryX=0;entryY=0.5;entryDx=0;entryDy=0;strokeWidth=3;" edge="1" parent="1" source="TqgSpwLOpJsF1g5nsNJc-3" target="4cFFHlUWLm8vPbTLAcJ5-7">
          <mxGeometry relative="1" as="geometry" />
        </mxCell>
        <mxCell id="TqgSpwLOpJsF1g5nsNJc-3" value="" style="rounded=1;whiteSpace=wrap;html=1;strokeWidth=2;fontStyle=1;fillColor=#f5f5f5;strokeColor=#666666;fontColor=#333333;dashed=1;" vertex="1" parent="1">
          <mxGeometry x="282.5" y="390" width="357.5" height="150" as="geometry" />
        </mxCell>
        <mxCell id="44ogMM2CG0sjfGNydAzE-12" style="edgeStyle=orthogonalEdgeStyle;rounded=0;orthogonalLoop=1;jettySize=auto;html=1;exitX=1;exitY=0.5;exitDx=0;exitDy=0;entryX=0.001;entryY=0.44;entryDx=0;entryDy=0;entryPerimeter=0;strokeWidth=3;" edge="1" parent="1" source="yaVNW7B4EjmFsHye3c2_-1" target="TqgSpwLOpJsF1g5nsNJc-3">
          <mxGeometry relative="1" as="geometry" />
        </mxCell>
        <mxCell id="yaVNW7B4EjmFsHye3c2_-1" value="Client" style="rounded=1;whiteSpace=wrap;html=1;strokeWidth=2;fontStyle=1;fillColor=#d5e8d4;strokeColor=#82b366;" vertex="1" parent="1">
          <mxGeometry x="50" y="426" width="120" height="60" as="geometry" />
        </mxCell>
        <mxCell id="yaVNW7B4EjmFsHye3c2_-2" value="" style="shape=image;verticalLabelPosition=bottom;labelBackgroundColor=default;verticalAlign=top;aspect=fixed;imageAspect=0;image=https://upload.wikimedia.org/wikipedia/commons/thumb/5/5b/HTTP_logo.svg/2560px-HTTP_logo.svg.png;strokeWidth=2;rounded=0;" vertex="1" parent="1">
          <mxGeometry x="173.81" y="430.4" width="38.51" height="20.6" as="geometry" />
        </mxCell>
        <mxCell id="yaVNW7B4EjmFsHye3c2_-3" value="Client" style="rounded=1;whiteSpace=wrap;html=1;strokeWidth=2;fontStyle=1;fillColor=#d5e8d4;strokeColor=#82b366;" vertex="1" parent="1">
          <mxGeometry x="40" y="436" width="120" height="60" as="geometry" />
        </mxCell>
        <mxCell id="yaVNW7B4EjmFsHye3c2_-4" value="Client" style="rounded=1;whiteSpace=wrap;html=1;strokeWidth=2;fontStyle=1;fillColor=#d5e8d4;strokeColor=#82b366;" vertex="1" parent="1">
          <mxGeometry x="30" y="446" width="120" height="60" as="geometry" />
        </mxCell>
        <mxCell id="yaVNW7B4EjmFsHye3c2_-5" value="Client" style="rounded=1;whiteSpace=wrap;html=1;strokeWidth=2;fontStyle=1;fillColor=#d5e8d4;strokeColor=#82b366;" vertex="1" parent="1">
          <mxGeometry x="20" y="456" width="120" height="60" as="geometry" />
        </mxCell>
        <mxCell id="oI_oaWRlLYb7uc74tjpG-1" value="" style="shape=image;verticalLabelPosition=bottom;labelBackgroundColor=default;verticalAlign=top;aspect=fixed;imageAspect=0;image=https://avatars.githubusercontent.com/u/1529926?s=200&amp;v=4;strokeWidth=2;rounded=0;" vertex="1" parent="1">
          <mxGeometry x="730" y="408.21999999999997" width="60" height="60" as="geometry" />
        </mxCell>
        <mxCell id="oI_oaWRlLYb7uc74tjpG-2" value="" style="shape=image;verticalLabelPosition=bottom;labelBackgroundColor=default;verticalAlign=top;aspect=fixed;imageAspect=0;image=https://www.mysql.com/common/logos/logo-mysql-170x115.png;strokeWidth=2;rounded=0;" vertex="1" parent="1">
          <mxGeometry x="865" y="405.6699999999999" width="86" height="58.15" as="geometry" />
        </mxCell>
        <mxCell id="oI_oaWRlLYb7uc74tjpG-3" value="" style="shape=image;verticalLabelPosition=bottom;labelBackgroundColor=default;verticalAlign=top;aspect=fixed;imageAspect=0;image=https://upload.wikimedia.org/wikipedia/commons/thumb/3/38/Prometheus_software_logo.svg/2066px-Prometheus_software_logo.svg.png;strokeWidth=2;" vertex="1" parent="1">
          <mxGeometry x="730" y="501.02" width="50" height="49.59" as="geometry" />
        </mxCell>
        <mxCell id="4cFFHlUWLm8vPbTLAcJ5-1" value="" style="shape=image;verticalLabelPosition=bottom;labelBackgroundColor=default;verticalAlign=top;aspect=fixed;imageAspect=0;image=https://upload.wikimedia.org/wikipedia/commons/thumb/5/5e/Cassandra_logo.svg/1280px-Cassandra_logo.svg.png;strokeWidth=2;rounded=0;" vertex="1" parent="1">
          <mxGeometry x="800" y="416.45" width="65" height="43.55" as="geometry" />
        </mxCell>
        <mxCell id="4cFFHlUWLm8vPbTLAcJ5-5" value="Datastores" style="shape=partialRectangle;whiteSpace=wrap;html=1;bottom=0;right=0;fillColor=none;labelPosition=center;verticalLabelPosition=top;align=left;verticalAlign=bottom;fontStyle=1;strokeWidth=2;" vertex="1" parent="1">
          <mxGeometry x="720" y="400" width="320" height="60" as="geometry" />
        </mxCell>
        <mxCell id="4cFFHlUWLm8vPbTLAcJ5-7" value="Observability &amp;amp; Management" style="shape=partialRectangle;whiteSpace=wrap;html=1;bottom=0;right=0;fillColor=none;labelPosition=center;verticalLabelPosition=top;align=left;verticalAlign=bottom;fontStyle=1;strokeWidth=2;" vertex="1" parent="1">
          <mxGeometry x="720" y="495.82" width="320" height="60" as="geometry" />
        </mxCell>
        <mxCell id="TqgSpwLOpJsF1g5nsNJc-1" value="" style="shape=image;verticalLabelPosition=bottom;labelBackgroundColor=default;verticalAlign=top;aspect=fixed;imageAspect=0;image=https://upload.wikimedia.org/wikipedia/commons/thumb/2/29/Postgresql_elephant.svg/1985px-Postgresql_elephant.svg.png;strokeWidth=2;rounded=0;" vertex="1" parent="1">
          <mxGeometry x="960" y="405.67" width="48.64" height="50.15" as="geometry" />
        </mxCell>
        <mxCell id="TqgSpwLOpJsF1g5nsNJc-2" value="&lt;font color=&quot;#f57342&quot; style=&quot;font-size: 23px;&quot; data-font-src=&quot;https://fonts.googleapis.com/css?family=Noto+Serif+Tamil&quot; face=&quot;Noto Serif Tamil&quot;&gt;Tarmac&lt;/font&gt;" style="rounded=1;whiteSpace=wrap;html=1;strokeWidth=2;fontStyle=1;fillColor=#f5f5f5;strokeColor=#666666;fontColor=#333333;" vertex="1" parent="1">
          <mxGeometry x="282.5" y="390" width="357.5" height="40" as="geometry" />
        </mxCell>
        <mxCell id="44ogMM2CG0sjfGNydAzE-1" value="" style="shape=image;verticalLabelPosition=bottom;labelBackgroundColor=default;verticalAlign=top;aspect=fixed;imageAspect=0;image=https://avatars0.githubusercontent.com/u/54989751?s=200&amp;v=4;strokeWidth=2;rounded=0;" vertex="1" parent="1">
          <mxGeometry x="290" y="440" width="88.98" height="88.98" as="geometry" />
        </mxCell>
        <mxCell id="44ogMM2CG0sjfGNydAzE-2" value="" style="shape=image;verticalLabelPosition=bottom;labelBackgroundColor=default;verticalAlign=top;aspect=fixed;imageAspect=0;image=https://upload.wikimedia.org/wikipedia/commons/thumb/1/1f/WebAssembly_Logo.svg/1280px-WebAssembly_Logo.svg.png;strokeWidth=2;rounded=0;" vertex="1" parent="1">
          <mxGeometry x="400" y="440" width="40" height="40" as="geometry" />
        </mxCell>
        <mxCell id="44ogMM2CG0sjfGNydAzE-3" value="" style="shape=image;verticalLabelPosition=bottom;labelBackgroundColor=default;verticalAlign=top;aspect=fixed;imageAspect=0;image=https://upload.wikimedia.org/wikipedia/commons/thumb/1/1f/WebAssembly_Logo.svg/1280px-WebAssembly_Logo.svg.png;strokeWidth=2;rounded=0;" vertex="1" parent="1">
          <mxGeometry x="400" y="488.98" width="40" height="40" as="geometry" />
        </mxCell>
        <mxCell id="44ogMM2CG0sjfGNydAzE-4" value="" style="shape=image;verticalLabelPosition=bottom;labelBackgroundColor=default;verticalAlign=top;aspect=fixed;imageAspect=0;image=https://upload.wikimedia.org/wikipedia/commons/thumb/1/1f/WebAssembly_Logo.svg/1280px-WebAssembly_Logo.svg.png;strokeWidth=2;rounded=0;" vertex="1" parent="1">
          <mxGeometry x="446" y="440" width="40" height="40" as="geometry" />
        </mxCell>
        <mxCell id="44ogMM2CG0sjfGNydAzE-5" value="" style="shape=image;verticalLabelPosition=bottom;labelBackgroundColor=default;verticalAlign=top;aspect=fixed;imageAspect=0;image=https://upload.wikimedia.org/wikipedia/commons/thumb/1/1f/WebAssembly_Logo.svg/1280px-WebAssembly_Logo.svg.png;strokeWidth=2;rounded=0;" vertex="1" parent="1">
          <mxGeometry x="446" y="488.98" width="40" height="40" as="geometry" />
        </mxCell>
        <mxCell id="44ogMM2CG0sjfGNydAzE-6" value="" style="shape=image;verticalLabelPosition=bottom;labelBackgroundColor=default;verticalAlign=top;aspect=fixed;imageAspect=0;image=https://upload.wikimedia.org/wikipedia/commons/thumb/1/1f/WebAssembly_Logo.svg/1280px-WebAssembly_Logo.svg.png;strokeWidth=2;rounded=0;" vertex="1" parent="1">
          <mxGeometry x="491" y="440" width="40" height="40" as="geometry" />
        </mxCell>
        <mxCell id="44ogMM2CG0sjfGNydAzE-7" value="" style="shape=image;verticalLabelPosition=bottom;labelBackgroundColor=default;verticalAlign=top;aspect=fixed;imageAspect=0;image=https://upload.wikimedia.org/wikipedia/commons/thumb/1/1f/WebAssembly_Logo.svg/1280px-WebAssembly_Logo.svg.png;strokeWidth=2;rounded=0;" vertex="1" parent="1">
          <mxGeometry x="491" y="488.98" width="40" height="40" as="geometry" />
        </mxCell>
        <mxCell id="44ogMM2CG0sjfGNydAzE-8" value="" style="shape=image;verticalLabelPosition=bottom;labelBackgroundColor=default;verticalAlign=top;aspect=fixed;imageAspect=0;image=https://upload.wikimedia.org/wikipedia/commons/thumb/1/1f/WebAssembly_Logo.svg/1280px-WebAssembly_Logo.svg.png;strokeWidth=2;rounded=0;" vertex="1" parent="1">
          <mxGeometry x="537" y="440" width="40" height="40" as="geometry" />
        </mxCell>
        <mxCell id="44ogMM2CG0sjfGNydAzE-9" value="" style="shape=image;verticalLabelPosition=bottom;labelBackgroundColor=default;verticalAlign=top;aspect=fixed;imageAspect=0;image=https://upload.wikimedia.org/wikipedia/commons/thumb/1/1f/WebAssembly_Logo.svg/1280px-WebAssembly_Logo.svg.png;strokeWidth=2;rounded=0;" vertex="1" parent="1">
          <mxGeometry x="537" y="488.98" width="40" height="40" as="geometry" />
        </mxCell>
        <mxCell id="44ogMM2CG0sjfGNydAzE-10" value="" style="shape=image;verticalLabelPosition=bottom;labelBackgroundColor=default;verticalAlign=top;aspect=fixed;imageAspect=0;image=https://upload.wikimedia.org/wikipedia/commons/thumb/1/1f/WebAssembly_Logo.svg/1280px-WebAssembly_Logo.svg.png;strokeWidth=2;rounded=0;" vertex="1" parent="1">
          <mxGeometry x="582" y="440" width="40" height="40" as="geometry" />
        </mxCell>
        <mxCell id="44ogMM2CG0sjfGNydAzE-11" value="" style="shape=image;verticalLabelPosition=bottom;labelBackgroundColor=default;verticalAlign=top;aspect=fixed;imageAspect=0;image=https://upload.wikimedia.org/wikipedia/commons/thumb/1/1f/WebAssembly_Logo.svg/1280px-WebAssembly_Logo.svg.png;strokeWidth=2;rounded=0;" vertex="1" parent="1">
          <mxGeometry x="582" y="488.98" width="40" height="40" as="geometry" />
        </mxCell>
        <mxCell id="44ogMM2CG0sjfGNydAzE-16" value="" style="shape=image;verticalLabelPosition=bottom;labelBackgroundColor=default;verticalAlign=top;aspect=fixed;imageAspect=0;image=data:image/png,iVBORw0KGgoAAAANSUhEUgAACWgAAAQgCAYAAABxFSc2AAAAAXNSR0IArs4c6QAAAERlWElmTU0AKgAAAAgAAYdpAAQAAAABAAAAGgAAAAAAA6ABAAMAAAABAAEAAKACAAQAAAABAAAJaKADAAQAAAABAAAEIAAAAAB0QhJiAABAAElEQVR4AezdTZIbR5om4Ey22mx2xJyA0G52xOxqesPoEyj7BIJOoCyzrrHeEdq1TY+Zsk4g1AkqdYIKbnpqV9AJBJ6gk7taVInzOglQqVT+AIgIIAJ43OzLwI/7558/gQQlwhk4O9MIECBAgAABAgQIECBAgAABAgQIECBAgAABAgQIECBAgAABAgQIECBAgAABAgQIECBAgAABAgQIECBAgAABAgQIECBAgAABAgQIECBAgAABAgQIECBAgAABAgQIECBAgAABAgQIECBAgAABAgQIECBAgAABAgQIECBAgAABAgQIECBAgAABAgQIECBAgAABAgQIECBAgAABAgQIECBAgAABAgQIECBAgAABAgQIECBAgAABAgQIECBAgAABAgQIECBAgAABAgQIECBAgAABAgQIECBAgAABAgQIECBAgAABAgQIECBAgAABAgQIECBAgAABAgQIECBAgAABAgQIECBAgAABAgQIECBAgAABAgQIECBAgAABAgQIECBAgAABAgQIECBAgAABAgQIECBAgAABAgQIECBAgAABAgQIECBAgAABAgQIECBAgAABAgQIECBAgAABAgQIECBAgAABAgQIECBAgAABAgQIECBAgAABAgQIECBAgAABAgQIECBAgAABAgQIECBAgAABAgQIECBAgAABAgQIECBAgAABAgQIECBAgAABAgQIECBAgAABAgQIECBAgAABAgQIECBAgAABAgQIECBAgAABAgQIECBAgAABAgQIECBAgAABAgQIECBAgAABAgQIECBAgAABAgQIECBAgAABAgQIECBAgAABAgQIECBAgAABAgQIECBAgAABAgQIECBAgAABAgQIECBAgAABAgQIECBAgAABAgQIECBAgAABAgQIECBAgAABAgQIECBAgAABAgQIECBAgAABAgQIECBAgAABAgQIECBAgAABAgQIECBAgAABAgQIECBAgAABAgQIECBAgAABAgQIECBAgAABAgQIECBAgAABAgQIECBAgAABAgQIECBAgAABAgQIECBAgAABAgQIECBAgAABAgQIECBAgAABAgQIECBAgAABAgQIECBAgAABAgQIECBAgAABAgQIECBAgAABAgQIECBAgAABAgQIECBAgAABAgQIECBAgAABAgQIECBAgAABAgQIECBAgAABAgQIECBAgAABAgQIECBAgAABAgQIECBAgAABAgQIECBAgAABAgQIECBAgAABAgQIECBAgAABAgQIECBAgAABAgQIECBAgAABAgQIECBAgAABAgQIECBAgAABAgQIECBAgAABAgQIECBAgAABAgQIECBAgAABAgQIECBAgAABAgQIECBAgAABAgQIECBAgAABAgQIECBAgAABAgQIECBAgAABAgQIECBAgAABAgQIECBAgAABAgQIECBAgAABAgQIECBAgAABAgQIECBAgAABAgQIECBAgAABAgQIECBAgAABAgQIECBAgAABAgQIECBAgAABAgQIECBAgAABAgQIECBAgAABAgQIECBAgAABAgQIECBAgAABAgQIECBAgAABAgQIECBAgAABAgQIECBAgAABAgQIECBAgAABAgQIECBAgAABAgQIECBAgAABAgQIECBAgAABAgQIECBAgAABAgQIECBAgAABAgQIECBAgAABAgQIECBAgAABAgQIECBAgAABAgQIECBAgAABAgQIECBAgAABAgQIECBAgAABAgQIECBAgAABAgQIECBAgAABAgQIECBAgAABAgQIECBAgAABAgQIECBAgAABAgQIECBAgAABAgQIECBAgAABAgQIECBAgAABAgQIECBAgAABAgQIECBAgAABAgQIECBAgAABAgQIECBAgAABAgQIECBAgAABAgQIECBAgAABAgQIECBAgAABAgQIECBAgAABAgQIECBAgAABAgQIECBAgAABAgQIECBAgAABAgQIECBAgAABAgQIECBAgAABAgQIECBAgAABAgQIECBAgAABAgQIECBAgAABAgQIECBAgAABAgQIECBAgAABAgQIECBAgAABAgQIECBAgAABAgQIECBAgAABAgQIECBAgAABAgQIECBAgAABAgQIECBAgAABAgQIECBAgAABAgQIECBAgAABAgQIECBAgAABAgQIECBAgAABAgQIECBAgAABAgQIECBAgAABAgQIECBAgAABAgQIECBAgAABAgQIECBAgAABAgQIECBAgAABAgQIECBAgAABAgQIECBAgAABAgQIECBAgAABAgQIECBAgAABAgQIECBAgAABAgQIECBAgAABAgQIECBAgAABAgQIECBAgAABAgQIECBAgAABAgQIECBAgAABAgQIECBAgAABAgQIECBAgAABAgQIECBAgAABAgQIECBAgAABAgQIECBAgAABAgQIECBAgAABAgQIECBAgAABAgQIECBAgAABAgQIECBAgAABAgQIECBAgAABAgQIECBAgAABAgQIECBAgAABAgQIECBAgAABAgQIECBAgAABAgQIECBAgAABAgQIECBAgAABAgQIECBAgAABAgQIECBAgAABAgQIECBAgAABAgQIECBAgAABAgQIECBAgAABAgQIECBAgAABAgQIECBAgAABAgQIECBAgAABAgQIECBAgAABAgQIECBAgAABAgQIECBAgAABAgQIECBAgAABAgQIECBAgAABAgQIECBAgAABAgQIECBAgAABAgQIECBAgAABAgQIECBAgAABAgQIECBAgAABAgQIECBAgAABAgQIECBAgAABAgQIECBAgAABAgQIECBAgAABAgQIECBAgAABAgQIECBAgAABAgQIECBAgAABAgQIECBAgAABAgQIECBAgAABAgQIECBAgAABAgQIECBAgAABAgQIECBAgAABAgQIECBAgAABAgQIECBAgAABAgQIECBAgAABAgQIECBAgAABAgQIECBAgAABAgQIECBAgAABAgQIECBAgAABAgQIECBAgAABAgQIECBAgAABAgQIECBAgAABAgQIECBAgAABAgQIECBAgAABAgQIECBAgAABAgQIECBAgAABAgQIECBAgAABAgQIECBAgAABAgQIECBAgAABAgQIECBAgAABAgQIECBAgAABAgQIECBAgAABAgQIECBAgAABAgQIECBAgAABAgQIECBAgAABAgQIECBAgAABAgQIECBAgAABAgQIECBAgAABAgQIECBAgAABAgQIECBAgAABAgQIECBAgAABAgQIECBAgAABAgQIECBAgAABAgQIECBAgAABAgQIECBAgAABAgQIECBAgAABAgQIECBAgAABAgQIECBAgAABAgQIECBAgAABAgQIECBAgAABAgQIECBAgAABAgQIECBAgAABAgQIECBAgAABAgQIECBAgAABAgQIECBAgAABAgQIECBAgAABAgQIECBAgAABAgQIECBAgAABAgQIECBAgAABAgQIECBAgAABAgQIECBAgAABAgQIECBAgAABAgQIECBAgAABAgQIECBAgAABAgQIECBAgAABAgQIECBAgAABAgQIECBAgAABAgQIECBAgAABAgQIECBAgAABAgQIECBAgAABAgQIECBAgAABAgQIECBAgAABAgQIECBAgAABAgQIECBAgAABAgQIECBAgAABAgQIECBAgAABAgQIECBAgAABAgQIECBAgAABAgQIECBAgAABAgQIECBAgAABAgQIECBAgAABAgQIECBAgAABAgQIECBAgAABAgQIECBAgAABAgQIECBAgAABAgQIECBAgAABAgQIECBAgAABAgQIECBAgAABAgQIECBAgAABAgQIECBAgAABAgQIECBAgAABAgQIECBAgAABAgQIECBAgAABAgQIECBAgAABAgQIECBAgAABAgQIECBAgAABAgQIECBAgAABAgQIECBAgAABAgQIECBAgAABAgQIECBAgAABAgQIECBAgAABAgQIECBAgAABAgQIECBAgAABAgQIECBAgAABAgQIECBAgAABAgQIECBAgAABAgQIECBAgAABAgQIECBAgAABAgQIECBAgAABAgQIECBAgAABAgQIECBAgAABAgQIECBAgAABAgQIECBAgAABAgQIECBAgAABAgQIECBAgAABAgQIECBAgAABAgQIECBAgAABAgQIECBAgAABAgQIECBAgAABAgQIECBAgAABAgQIECBAgAABAgQIECBAgAABAgQIECBAgAABAgQIECBAgAABAgQIECBAgAABAgQIECBAgAABAgQIECBAgAABAgQIECBAgAABAgQIECBAgAABAgQIECBAgAABAgQIECBAgAABAgQIECBAgAABAgQIECBAgAABAgQIECBAgAABAgQIECBAgAABAgQIECBAgAABAgQIECBAgAABAgQIECBAgAABAgQIECBAgAABAgQIECBAgAABAgQIECBAgAABAgQIECBAgAABAgQIECBAgAABAgQIECBAgAABAgQIECBAgAABAgQIECBAgAABAgQIECBAgAABAgQIECBAgAABAgQIECBAgAABAgQIECBAgAABAgQIECBAgAABAgQIECBAgAABAgQIECBAgAABAgQIECBAgAABAgQIECBAgAABAgQIECBAgAABAgQIECBAgAABAgQIECBAgAABAgQIECBAgAABAgQIECBAgAABAgQIECBAgAABAgQIECBAgAABAgQIECBAgAABAgQIECBAgAABAgQIECBAgAABAgQIECBAgAABAgQIECBAgAABAgQIECBAgAABAgQIECBAgAABAgQIECBAgAABAgQIECBAgAABAgQIECBAgAABAgQIECBAgAABAgQIECBAgAABAgQIECBAgAABAgQIECBAgAABAgQIECBAgAABAgQIECBAgAABAgQIECBAgAABAgQIECBAgAABAgQIECBAgAABAgQIECBAgAABAgQIECBAgAABAgQIECBAgAABAgQIECBAgAABAgQIECBAgAABAgQIECBAgAABAgQIECBAgAABAgQIECBAgAABAgQIECBAgAABAgQIECBAgAABAgQIECBAgAABAgQIECBAgAABAgQIECBAgAABAgQIECBAgAABAgQIECBAgAABAgQIECBAgAABAgQIECBAgAABAgQIECBAgAABAgQIECBAgAABAgQIECBAgAABAgQIECBAgAABAgQIECBAgAABAgQIECBAgAABAgQIECBAgAABAgQIECBAgAABAgQIECBAgAABAgQIECBAgAABAgQIECBAgAABAgQIECBAgAABAgQIECBAgAABAgQIECBAgAABAgQIECBAgAABAgQIECBAgAABAgQIECBAgAABAgQIECBAgAABAgQIECBAgAABAgQIECBAgAABAgQIECBAgAABAgQIECBAgAABAgQIECBAgAABAgQIECBAgAABAgQIECBAgAABAgQIECBAgAABAgQIECBAgAABAgQIECBAgAABAgQIECBAgAABAgQIECBAgAABAgQIECBAgAABAgQIECBAgAABAgQIECBAgAABAgQIECBAgAABAgQIECBAgAABAgQIECBAgAABAgQIECBAgAABAgQIECBAgAABAgQIECBAgAABAgQIECBAgAABAgQIECBAgAABAgQIECBAgAABAgQIECBAgAABAgQIECBAgAABAgQIECBAgAABAgQIECBAgAABAgQIECBAgAABAgQIECBAgAABAgQIECBAgAABAgQIECBAgAABAgQIECBAgAABAgQIECBAgAABAgQIECBAgAABAgQIECBAgAABAgQIECBAgAABAgQIECBAgAABAgQIECBAgAABAgQIECBAgAABAgQIECBAgAABAgQIECBAgAABAgQIECBAgAABAgQIECBAgAABAgQIECBAgAABAgQIECBAgAABAgQIECBAgAABAgQIECBAgAABAgQIECBAgAABAgQIECBAgAABAgQIECBAgAABAgQIECBAgAABAgQIECBAgAABAgQIECBAgAABAgQIECBAgAABAgQIECBAgAABAgQIECBAgAABAgQIECBAgAABAgQIECBAgAABAgQIECBAgAABAgQIECBAgAABAgQIECBAgAABAgQIECBAgAABAgQIECBAgAABAgQIECBAgAABAgQIECBAgAABAgQIECBAgAABAgQIECBAgAABAgQIECBAgAABAgQIECBAgAABAgQIECBAgAABAgQIECBAgAABAgQIECBAgAABAgQIECBAgAABAgQIECBAgAABAgQIECBAgAABAgQIECBAgAABAgQIECBAgAABAgQIECBAgAABAgQIECBAgAABAgQIECBAgAABAgQIECBAgAABAgQIECBAgAABAgQIECBAgAABAgQIECBAgAABAgQIECBAgAABAgQIECBAgAABAgQIECBAgAABAgQIECBAgAABAgQIECBAgAABAgQIECBAgAABAgQIECBAgAABAgQIECBAgAABAgQIECBAgAABAgQIECBAgAABAgQIECBAgAABAgQIECBAgAABAgQIECBAgAABAgQIECBAgAABAgQIECBAgAABAgQIECBAgAABAgQIECBAgAABAgQIECBAgAABAgQIECBAgAABAgQIECBAgAABAgQIECBAgAABAgQIECBAgAABAgQIECBAgAABAgQIECBAgAABAgQIECBAgAABAgQIECBAgAABAgQIECBAgAABAgQIECBAgAABAgQIECBAgAABAgQIECBAgAABAgQIECBAgAABAgQIECBAgAABAgQIECBAgAABAgQIECBAgAABAgQIECBAgAABAgQIECBAgAABAgQIECBAgAABAgQIECBAgAABAgQIECBAgAABAgQIECBAgAABAgQIECBAgAABAgQIECBAgAABAgQIECBAgAABAgQIECBAgAABAgQIECBAgAABAgQIECBAgAABAgQIECBAgAABAgQIECBAgAABAgQIECBAgAABAgQIECBAgAABAgQIECBAgAABAgQIECBAgAABAgQIECBAgAABAgQIECBAgAABAgQIECBAgAABAgQIECBAgAABAgQIECBAgAABAgQIECBAgAABAgQIECBAgAABAgQIECBAgAABAgQIECBAgAABAgQIECBAgAABAgQIECBAgAABAgQIECBAgAABAgQIECBAgAABAgQIECBAgAABAgQIECBAgAABAgQIECBAgAABAgQIECBAgAABAgQIECBAgAABAgQIECBAgAABAgQIECBAgAABAgQIECBAgAABAgQIECBAgAABAgQIECBAgAABAgQIECBAgAABAgQIECBAgAABAgQIECBAgAABAgQIECBAgAABAgQIECBAgAABAgQIECBAgAABAgQIECBAgAABAgQIECBAgAABAgQIECBAgAABAgQIECBAgAABAgQIECBAgAABAgQIECBAgAABAgQIECBAgAABAgQIECBAgAABAgQIECBAgAABAgQIECBAgAABAgQIECBAgAABAgQIECBAgAABAgQIECBAgAABAgQIECBAgAABAgQIECBAgAABAgQIECBAgAABAgQIECBAgAABAgQIECBAgAABAgQIECBAgAABAgQIECBAgAABAgQIECBAgAABAgQIECBAgAABAgQIECBAgAABAgQIECBAgAABAgQIECBAgAABAgQIECBAgAABAgQIECBAgAABAgQIECBAgAABAgQIECBAgAABAgQIECBAgAABAgQIECBAgAABAgQIECBAgAABAgQIECBAgAABAgQIECBAgAABAgQIECBAgAABAgQIECBAgAABAgQIECBAgAABAgQIECBAgAABAgQIECBAgAABAgQIECBAgAABAgQIECBAgAABAgQIECBAgAABAgQIECBAgAABAgQIECBAgAABAgQIECBAgAABAgQIECBAgAABAgQIECBAgAABAgQIECBAgAABAgQIECBAgAABAgQIECBAgAABAgQIECBAgAABAgQIECBAgAABAgQIECBAgAABAgQIECBAgAABAgQIECBAgAABAgQIECBAgAABAgQIECBAgAABAgQIECBAgAABAgQIECBAgAABAgQIECBAgAABAgQIECBAgAABAgQIECBAgAABAgQIECBAgAABAgQIECBAgAABAgQIECBAgAABAgQIECBAgAABAgQIECBAgAABAgQIECBAgAABAgQIECBAgAABAgQIECBAgAABAgQIECBAgAABAgQIECBAgAABAgQIECBAgAABAgQIECBAgAABAgQIECBAgAABAgQIECBAgAABAgQIECBAgAABAgQIECBAgAABAgQIECBAgAABAgQIECBAgAABAgQIECBAgAABAgQIECBAgAABAgQIECBAgAABAgQIECBAgAABAgQIECBAgAABAgQIECBAgAABAgQIECBAgAABAgQIECBAgAABAgQIECBAgAABAgQIECBAgAABAgQIECBAgAABAgQIECBAgAABAgQIECBAgAABAgQIECBAgAABAgQIECBAgAABAgQIECBAgAABAgQIECBAgAABAgQIECBAgAABAgQIECBAgAABAgQIECBAgAABAgQIECBAgAABAgQIECBAgAABAgQIECBAgAABAgQIECBAgAABAgQIECBAgAABAgQIECBAgAABAgQIECBAgAABAgQIECBAgAABAgQIECBAgAABAgQIECBAgAABAgQIECBAgAABAgQIECBAgAABAgQIECBAgAABAgQIECBAgAABAgQIECBAgAABAgQIECBAgAABAgQIECBAgAABAgQIECBAgAABAgQIECBAgAABAgQIECBAgAABAgQIECBAgAABAgQIECBAgAABAgQIECBAgAABAgQIECBAgAABAgQIECBAgAABAgQIECBAgAABAgQIECBAgAABAgQIECBAgAABAgQIECBAgAABAgQIECBAgAABAgQIECBAgAABAgQIECBAgAABAgQIECBAgAABAgQIECBAgAABAgQIECBAgAABAgQIECBAgAABAgQIECBAgAABAgQIECBAgAABAgQIECBAgAABAgQIECBAgAABAgQIECBAgAABAgQIECBAgAABAgQIECBAgAABAgQIECBAgAABAgQIECBAgAABAgQIECBAgAABAgQIECBAgAABAgQIECBAgAABAgQIECBAgAABAgQIECBAgAABAgQIECBAgAABAgQIECBAgAABAgQIECBAgAABAgQIECBAgAABAgQIECBAgAABAgQIECBAgAABAgQIECBAgAABAgQIECBAgAABAgQIECBAgAABAgQIECBAgAABAgQIECBAgAABAgQIECBAgAABAgQIECBAgAABAgQIECBAgAABAgQIECBAgAABAgQIECBAgAABAgQIECBAgAABAgQIECBAgAABAgQIECBAgAABAgQIECBAgAABAgQIECBAgAABAgQIECBAgAABAgQIECBAgAABAgQIECBAgAABAgQIECBAgAABAgQIECBAgAABAgQIECBAgAABAgQIECBAgAABAgQIECBAgAABAgQIECBAgAABAgQIECBAgAABAgQIECBAgAABAgQIECBAgAABAgQIECBAgAABAgQIECBAgAABAgQIECBAgAABAgQIECBAgAABAgQIECBAgAABAgQIECBAgAABAgQIECBAgAABAgQIECBAgAABAgQIECBAgAABAgQIECBAgAABAgQIECBAgAABAgQIECBAgAABAgQIECBAgAABAgQIECBAgAABAgQIECBAgAABAgQIECBAgAABAgQIECBAgAABAgQIECBAgAABAgQIECBAgAABAgQIECBAgAABAgQIECBAgAABAgQIECBAgAABAgQIECBAgAABAgQIECBAgAABAgQIECBAgAABAgQIECBAgAABAgQIECBAgAABAgQIECBAgAABAgQIECBAgAABAgQIECBAgAABAgQIECBAgAABAgQIECBAgAABAgQIECBAgAABAgQIECBAgAABAgQIECBAgAABAgQIECBAgAABAgQIECBAgAABAgQIECBAgAABAgQIECBAgAABAgQIECBAgAABAgQIECBAgAABAgQIECBAgAABAgQIECBAgAABAgQIECBAgAABAgQIECBAgAABAgQIECBAgAABAgQIECBAgAABAgQIECBAgAABAgQIECBAgAABAgQIECBAgAABAgQIECBAgAABAgQIECBAgAABAgQIECBAgAABAgQIECBAgAABAgQIECBAgAABAgQIECBAgAABAgQIECBAgAABAgQIECBAgAABAgQIECBAgAABAgQIECBAgAABAgQIECBAgAABAgQIECBAgAABAgQIECBAgAABAgQIECBAgAABAgQIECBAgAABAgQIECBAgAABAgQIECBAgAABAgQIECBAgAABAgQIECBAgAABAgQIECBAgAABAgQIECBAgAABAgQIECBAgAABAgQIECBAgAABAgQIECBAgAABAgQIECBAgAABAgQIECBAgAABAgQIECBAgAABAgQIECBAgAABAgQIECBAgAABAgQIECBAgAABAgQIECBAgAABAgQIECBAgAABAgQIECBAgAABAgQIECBAgAABAgQIECBAgAABAgQIECBAgAABAgQIECBAgAABAgQIECBAgAABAgQIECBAgAABAgQIECBAgAABAgQIECBAgAABAgQIECBAgAABAgQIECBAgAABAgQIECBAgAABAgQIECBAgAABAgQIECBAgAABAgQIECBAgAABAgQIECBAgAABAgQIECBAgAABAgQIECBAgAABAgQIECBAgAABAgQIECBAgAABAgQIECBAgAABAgQIECBAgAABAgQIECBAgAABAgQIECBAgAABAgQIECBAgAABAgQIECBAgAABAgQIECBAgAABAgQIECBAgAABAgQIECBAgAABAgQIECBAgAABAgQIECBAgAABAgQIECBAgAABAgQIECBAgAABAgQIECBAgAABAgQIECBAgAABAgQIECBAgAABAgQIECBAgAABAgQIECBAgAABAgQIECBAgAABAgQIECBAgAABAgQIECBAgAABAgQIECBAgAABAgQIECBAgAABAgQIECBAgAABAgQIECBAgAABAgQIECBAgAABAgQIECBAgAABAgQIECBAgAABAgQIECBAgAABAgQIECBAgAABAgQIECBAgAABAgQIECBAgAABAgQIECBAgAABAgQIECBAgAABAgQIECBAgAABAgQIECBAgAABAgQIECBAgAABAgQIECBAgAABAgQIECBAgAABAgQIECBAgAABAgQIECBAgAABAgQIECBAgAABAgQIECBAgAABAgQIECBAgAABAgQIECBAgAABAgQIECBAgAABAgQIECBAgAABAgQIECBAgAABAgQIECBAgAABAgQIECBAgAABAgQIECBAgAABAgQIECBAgAABAgQIECBAgAABAgQIECBAgAABAgQIECBAgAABAgQIECBAgAABAgQIECBAgAABAgQIECBAgAABAgQIECBAgAABAgQIECBAgAABAgQIECBAgAABAgQIECBAgAABAgQIECBAgAABAgQIECBAgAABAgQIECBAgAABAgQIECBAgAABAgQIECBAgAABAgQIECBAgAABAgQIECBAgAABAgQIECBAgAABAgQIECBAgAABAgQIECBAgAABAgQIECBAgAABAgQIECBAgAABAgQIECBAgAABAgQIECBAgAABAgQIECBAgAABAgQIECBAgAABAgQIECBAgAABAgQIECBAgAABAgQIECBAgAABAgQIECBAgAABAgQIECBAgAABAgQIECBAgAABAgQIECBAgAABAgQIECBAgAABAgQIECBAgAABAgQIECBAgAABAgQIECBAgAABAgQIECBAgAABAgQIECBAgAABAgQIECBAgAABAgQIECBAgAABAgQIECBAgAABAgQIECBAgAABAgQIECBAgAABAgQIECBAgAABAgQIECBAgAABAgQIECBAgAABAgQIECBAgAABAgQIECBAgAABAgQIECBAgAABAgQIECBAgAABAgQIECBAgAABAgQIECBAgAABAgQIECBAgAABAgQIECBAgAABAgQIECBAgAABAgQIECBAgAABAgQIECBAgAABAgQIECBAgAABAgQIECBAgAABAgQIECBAgAABAgQIECBAgAABAgQIECBAgAABAgQIECBAgAABAgQIECBAgAABAgQIECBAgAABAgQIECBAgAABAgQIECBAgAABAgQIECBAgAABAgQIECBAgAABAgQIECBAgAABAgQIECBAgAABAgQIECBAgAABAgQIECBAgAABAgQIECBAgAABAgQIECBAgAABAgQIECBAgAABAgQIECBAgAABAgQIECBAgAABAgQIECBAgAABAgQIECBAgAABAgQIECBAgAABAgQIECBAgAABAgQIECBAgAABAgQIECBAgAABAgQIECBAgAABAgQIECBAgAABAgQIECBAgAABAgQIECBAgAABAgQIECBAgAABAgQIECBAgAABAgQIECBAgAABAgQIECBAgAABAgQIECBAgAABAgQIECBAgAABAgQIECBAgAABAgQIECBAgAABAgQIECBAgAABAgQIECBAgAABAgQIECBAgAABAgQIECBAgAABAgQIECBAgAABAgQIECBAgMDWAv+w9QgDCBAgQIAAAQIECBAgQIAAAQIECLQjMEma/5G4Sfy1nZSyECBAgAABAgQIECBAgAABAgQIEOiXwHm/ylENAQIECBAgQIAAAQIECBAgQIDACQnUWeur1Xrf5bhILFexvl2OGgECBAgQIECAAAECBAgQIECAAIHBCtigNdhTp3ACBAgQIECAAAECBAichEDdwSovk7PvGz6mqbFEm62suaxdI9AngTrFrDdoPVbX2zy5TJTX8U2iTixXkYN2R+Aq9yd3Hmtyt7hfNkmw57HjzFeiGIxWt8v90sr9lx9uPf1j/bpb97zJjcXqzu3b9bqDIwECBAgQIECAAAECBAgQIEDgPoHP7nvQYwQIECBAgAABAgQIECBAoCcCm2zc2LbU8uF839s4BXax9r6vW30EHhJ4kSdKrH8vXt/q+ENul80ydWKZmCdOvU0CsLY6dotxFlglyprbXnd5zZW43b64fefO7Ter+3WOy1UscrxJaAQIECBAgAABAgQIECBAgMAJC9igdcIn39IJECBAgAABAgQIECBAgAABAkcgsL4a0npD0vwI1mQJjwuUjVjTxEXi7gaqPHSwtn4Nro/rQtZX4qrzQNmwVY42bQVBI0CAAAECBAgQIECAAAECpyJgg9apnGnrJECAAAECBAgQIECAAAECBAgQIDBcgXFKn66iT5uyUtKTrdRb4vbGrbJpq07MEsuERoAAAQIECBAgQIAAAQIECByxwLMjXpulESBAgAABAgQIECBAgAABAgQIECAwbIFxyp8nfky8TpSNTsfQyjq+TIyOYTHWQIAAAQIECBAgQIAAAQIECDwu4Apaj/t4lgABAgQIECBAgAABAgQIECBAgACB/QuMM+UsUTYxHXMrX3moESBAgAABAgQIECBAgAABAkcu4ApaR36CLY8AAQIECBAgQIAAAQIECBAgQIDAwAQuU2/ZuHTsm7PeDey8KJcAAQIECBAgQIAAAQIECBDYUcAVtHaEM4wAAQIECBAgQIAAAQIECBAgQIAAgVYFytf9XSdetZq1v8nKJjSNAAECBAgQIECAAAECBAgQOAEBV9A6gZNsiQQIECBAgAABAgQIECBAgAABAgR6LjBJfWXD0qlsziqnY1l+aAQIECBAgAABAgQIECBAgMDxC7iC1vGfYyskQIAAAQIECBAgQIAAAQIECBAg0GeBsjmrTjzvc5Ed1LbsIKeUBAgQIECAAAECBAgQIECAQA8FXEGrhydFSQQIECBAgAABAgQIECBAgAABAgROROBUN2eV07s8kXNsmQQIECBAgAABAgQIECBA4OQFbNA6+ZcAAAIECBAgQIAAAQIECBAgQIAAAQIHERhl1jpxalfOWmMv1zccCRAgQIAAAQIECBAgQIAAgeMWsEHruM+v1REgQIAAAQIECBAgQIAAAQIECBDoq8B1CjvVzVnlnCz6emLURYAAAQIECBAgQIAAAQIECLQrYINWu56yESBAgAABAgQIECBAgAABAgQIECDwtMAsXV493e2oe9wc9eosjgABAgQIECBAgAABAgQIEPgkYIPWJwo3CBAgQIAAAQIECBAgQIAAAQIECBDYg8A4c1zuYZ4+T/FDn4tTGwECBAgQIECAAAECBAgQINCugA1a7XrKRoAAAQIECBAgQIAAAQIECBAgQIDA4wKzPH3KX21YdFw9qyhoBAgQIECAAAECBAgQIEDgRARs0DqRE22ZBAgQIECAAAECBAgQIECAAAECBHogME4NX/agjkOXUB+6APMTIECAAAECBAgQIECAAAEC+xOwQWt/1mYiQIAAAQIECBAgQIAAAQIECBAgcOoCs1MHWK3fFbS8EAgQIECAAAECBAgQIECAwAkJfHZCa7VUAgQIECBAgAABAgQIECBAgAABAgQOJzDK1BeHm/7TzD/k1nqDVDkuPj1zdjbJ7dGt++Vmuf/yzmNN796es2ku4wkQIECAAAECBAgQIECAAIGeC9ig1fMTpDwCBAgQIECAAAECBAgQIECAAAECWwrM07/ecsxj3ZePPbnFcxfp+3yL/m10LZuxrhN1omyKukk0bdUqwTjHEqPEJFHaq4+HJ3+2UceTk+hAgAABAgQIECBAgAABAgQI9EPABq1+nAdVECBAgAABAgQIECBAgAABAgQIEGhLYN5WopbzXLSc76F07/LEVWKeWCbabvUTCUd5fpJYH9e3b2/eWjyRw9MECBAgQIAAAQIECBAgQIDAEQnYoHVEJ9NSCBAgQIAAAQIECBAgQIAAAQIECPRYoNpDbd9njmniZg9zPTRFmbtePXl9p9M490toBAgQIECAAAECBAgQIECAwAkJ2KB1QifbUgkQIECAAAECBAgQIECAAAECBAgcSGCSebv+esOvMsf8QOvbdNplOpbQCBAgQIAAAQIECBAgQIAAgRMSeHZCa7VUAgQIECBAgAABAgQIECBAgAABAgQOI1B1PO1vk3/e8RzSEyBAgAABAgQIECBAgAABAgR2ErBBayc2gwgQIECAAAECBAgQIECAAAECBAgQ2EJgvEXfbbuWrzW82naQ/gQIECBAgAABAgQIECBAgACBfQnYoLUvafMQIECAAAECBAgQIECAAAECBAgQOF2B8hWHXbXLrhLLS4AAAQIECBAgQIAAAQIECBBoQ8AGrTYU5SBAgAABAgQIECBAgAABAgQIECBA4DGB0WNPNnjuDxm7bDDeUAIECBAgQIAAAQIECBAgQIBA5wI2aHVObAICBAgQIECAAAECBAgQIECAAAECJy/wsiOB647ySkuAAAECBAgQIECAAAECBAgQaE3gs9YySUSAAAECBAgQIECAAAECBAgQaCZQrrAzeSDFMo+X0O4XeMzuJkMW9w/zaEOBccaXWLdlbpTQ9idwvb+pTnqmSVY/ukegvLfc3PO4h9oRGCfNsp1UvcxSXlOTO5V5Td0BcZcAAQIECBAgQIAAgeMQsEHrOM6jVRAgQIAAAQIECBAgQIAAgb4KVKvC1sfyQWz5QLa0Vx8PO/18l1HlQ9zS6g8/Px6P8YPdKutbu5XbpY0TL8qNHdvbjFuuxpZjiZvE2q8ctY/Oxb7EeBXl9vPEY239+qzT6TqxeKyz53YWeLPzSANvC4xzp7yuS5Tb69jlPWZ9TsprfpkoxxI3CW0zgYt0W0e9ur3ZyH72mqSsKjFOlNvluOlrq7yebhKLRL2KHDQCBAgQIECAAAECBAgMT+B8eCWrmAABAgQIECBAgAABAgROSOB9B2v95+SsO8jbZspZkr1uM2FylQ85q5ZzrtONcqN86Folxqso95/axJIunbS3yVo+zL1O1IllYkjtIsVWq+jqa+E28SiOy0SxLFFu14k2W51kr9pMmFznO+YbZdwkUa2izbqK5TxxlbhJdN2mmWDc4iTL5Jo3zNfF+/nvU9Nlw7pOcfg4i75IVKvYx3t1+R2oV3Gd4z5+DzLNk22aHuMnez3eYZmn5493efLZcXqU1/I0cft8vMn9KrFtG2fAdNtBd/rXuV9i2zbOgPXr64ttBz/Rv2x+La+feaJOaAQIECBAgAABAgQIECBAgAABAgQIECBAgAABAgQItCBQPtBvO6oW6uo6xSwTtL3uusWiJ8lVPkguH5IuE23X2na+RWos9Y4SfW1VCpsnbhJtr7/tfHVqvEq00eokabu+beqapPMsUSfaruO+fOX8XiS6bnUmuG/+XR8r+Zq2Xed+bNysaVEnNH6ctc4Sy8Rjpvt67jp1TBOHbnUKaGPNu66jysBi8VANyzy3S6sy6KGcmz5e6tq0jdLxMrFIbJq/ab9l5pomNAIECBAgQIAAAQIECBAgQIAAAQIECBAgQIAAAQIEGgo0/fDuvvFVw5r2MXyWSe6rvcljdcPCxxlfPqy9STSp45BjS+2zxCjRl1alkDpxSJdd5l6k5jZanSS7zP/YmKfqukiHeWKZeCxPl8+V+btsdZK3WX/J17S1Wc8617RpUScwvsoarxNrs74db1LbLDFKHKLVmbQNk23rn2bexYZzp9vWrcqINtb11MSTdJi3NNeu9RbHUodGgAABAgQIECBAgAABAgQIECBAgAABAgQIECBAgMCOArt+WPfYuGrHWvY5bJbJHlvDLs/VDRcw6qCmXdbRxpibrGXW0KPp8OJ5nWhjPYfIUTcFWI0vedqu/77SxnnwKrFMtD3frvnmqaWrVifxrnXdN67ka9ruy9v0sappUUc8fpK11Ymmxvsaf5NaZ4lRYp+tzmRtrLHasOhp+i0T28y5i0m15RwP1XORPPe1Kg/WiYfGHeLxWerRCBAgQIAAAQIECBAgQIAAAQIECBAgQIAAAQIECBDYQaCLD/iqHerY95BZJmx77XULiygfoLdd1yHzLbKecQsu26aYZMAycci1N537attFP9C/7sDh9lTT3Cnnuel6uxrfluPtNZfbdaLNmku+pq3Neta5qqZFHeH4UdZUXldro6Edb1L7xR7PS92S1eUTNZc1LXecq8q4bVuVAW2c+/mdice5f51oI3cXOeapTSNAgAABAgQIECBAgEAvBZ71sipFESBAgAABAgQIECBAgAABAn0UWPSxqAY1vczYsqZJgxzbDi1z1YkX2w7sWf+bntVzu5xR7swSpcbvEuU897V9ncIu+lqcugYnMEnFdaK8robanqfwPybmifK7PJT2UK1VFlAnypqG+L6/fn8q65slfkx8kehr+zKFzftanLoIECBAgAABAgQIEDhtARu0Tvv8Wz0BAgQIECBAgAABAgQIENhGoN6m80D6ls0AZV2TPdRb5ihzlTmH3hY9XsAytb1ODMX5KrWOEhqBJgIXGVwnXjZJ0qOxZaNNnRjK70aVWm+3ce7ME39KvEo0aVWTwQ3HlvfRy8QiUd5Xh9DKa2c+hELVSIAAAQIECBAgQIDAaQnYoHVa59tqCRAgQIAAAQIECBAgQIBAE4Flk8E9Hls+gK4T40SXbZ7kQ9k09JTDzVMdDvj80IxfxKpsgNAI7CowzcA/Job22n9qvS/ToU6MnurYg+fHqxpKrbPEIlE2Ch1D+zaLKO9TQ2rFfjqkgtVKgAABAgQIECBAgMDxC9igdfzn2AoJECBAgAABAgQIECBAgEBbAsu2EvUwT9nYcN1hXbPkLpsNjqXVx7KQnqzjsid1KGN4AtOU/N3wyt644qFs0iobmKpE2Zj1OlH+TGmrTdpKdGJ5rrLe8Ymt2XIJECBAgAABAgQIEOixgA1aPT45SiNAgAABAgQIECBAgAABAj0TqHtWT9vllI0As7aTJt8ocdlBXimPR6Bs5pgez3KsZE8CZeNO2YRy7G0om7T+lBNRNmq13cqfIdr2AuV99RR+P7aXMYIAAQIECBAgQIAAgYMI2KB1EHaTEiBAgAABAgQIECBAgACBwQq8HWzlmxV+mW5tfxhecpYPio+lvTmWhfRsHRc9q0c5/RYo71PXiWN6b3lMvGzSmj3W4YifGx/x2rpe2heZoOp6EvkJECBAgAABAgQIECCwiYANWpso6UOAAAECBAgQIECAAAECBAisBZbrG0d6LJsdZi2vbdpyPumOU6BsJNAIbCowT8curta06fyH6Pd1Jq0OMfGB5zy189w2d9kkrREgQIAAAQIECBAgQODgAjZoHfwUKIAAAQIECBAgQIAAAQIECAxKoB5UtbsVO82wcnWaNtokSY7tw/W6DRg57hWo7n3UgwR+KVDl7qlu6Jtn7W29PyfVYNoprrmtk1N+V8ZtJZOHAAECBAgQIECAAAECuwrYoLWrnHEECBAgQIAAAQIECBAgQOA0BZYnsOznWeNFS+tsK09L5UjTc4Gq5/Uprx8C836UcZAqyobXy4PMfNhJJ4edfvCz+7N48KfQAggQIECAAAECBAgMX8AGreGfQysgQIAAAQIECBAgQIAAAQL7FFjuc7IDztXWh7nH+KF6fcDzcuxTj499gdbXWGCaDMd2Vb5tUS4zYLTtIP1PWmB60qu3eAIECBAgQIAAAQIEeiHwWS+qUAQBAgQIECBAgAABAgQIENifwBA2zIz3x7H1TPXWIz4OeLMad5Pj4k6Ocr88fruNc6fEulW5MU7sa2NCW18fNknNXbV3SVwnit99hnn4F22Ue7frqVbPjnPcl+tqSocHBMYPPO5hAmuB6frGAY4/ZM6bW/OW95NyxcF9t/VVDuf7nviA81WZuz7g/G1Nffs1tM/Xz8ssYJxYJjQCBAgQIECAAAECBAgcRMAGrYOwm5QAAQIECBAgQIAAAQIEDijw7QHnPpap32Yhdzf0rD90rfNc+QB/ceuYm621UTJdrOKL1rLen6jKw/X9T2386F2njQc+0rFszLpMzB/p89BT1w89kceL7eSe4ziP3V5HnftaNwLFXyPwkEB5fbx66MmWH/8++erEYnXM4cE2yjOltipxkSibYbpul5lg3vUk8u8sUP6cqlexWB1zuLdVebS8bqaJ54muWpXE866Sy0uAAAECBAgQIECAAAECBAgQIECAAAECBAgQIEBgyALvU7xox6Bu8YVwlVwlpokqcag2ycSLRFevkcuGCxt3VFtZ9yFalUmnLU9cJ19X52+oedsgbtu15GvaujgfVdOiBjb+KvV24bjOeZP85X1v1NBlnPHzxDpvV8dJ5mja6iToqr428pZzMk+ME9u0Kp3bmH/bHPPMe5HYpZXX3VVi2zk37V9yawQIECBAgAABAgQIECBAgAABAgQIECBAgAABAgQI3COw6Ydu+j39gWZ9j++xPHSdhXTxGpg3BKo6qOvYPmCuOzBq8lpYpp55YpaoEpPEupXbF4l5oskcT41N+satToan5tnm+ZKvadtmvk37Vk2LGtj4Zerd1GbbftfJPWrZo/zOLBPb1rJp/1lyN211Emw63z77LVPXLLHrOakydl/13mSuWWLXWjP0F+0y97qovf7FLO4QIECAAAECBAgQIECAAAECBAgQIECAAAECBAgQIPBJoIsP6E41Z/1J9fhulA+FywfEbZ/buiFV1UFNJecxtTqLafu8bZOvvG7miWlinNi0VenYxWuu1F5yN211Emzj8FTfkq9pe2qOXZ6vmhY1oPHj1LqL0SZj5h06lPfnRUe11y3UXXJsYrSvPsvUM000bVUSdF1zeQ+cJco5brvVSdh2/aVejQABAgQIECBAgAABAgQIECBAgAABAgQIECBAgACBewTa/nDulPPV9/ge00PTLKbt89v0w9yqg5rGyXlMrc5i2j5vT+Ur53WeuEg0adMMfmquXZ6vmhS1GlvnuMvcD40p+Zq2h3I3ebxqWtSAxk9TaxOrh8Ze78FgnDnK791DNTR5vGn5dUd1bbumZeqYJtpqVRJtW8M2/cvrZtRWsffkqfLYNvVs2veeqTxEgAABAgQIECBAgACB/Qg82880ZiFAgAABAgQIECBAgAABAgQIdCrQxSaD551WvFvy5W7DjIrAm8RXibKpYJpo+pqZJ8fbhEZgHwKTDiZ5l5yXHeS9m3KZB2Z3H2zpftVSnkOlKe8h5X1pnJgn+t7Ka+ZfEheJmw6LrZO7i/fXLn6POmSQmgABAgQIECBAgACBYxKwQeuYzqa1ECBAgAABAgQIECBAgACB0xUoHxT/0MHyRx3klHJ/AmUzwe8TnyeqxDzRZlu0mUwuAo8IdLGxZJ75lo/M2eZTV0lmw83PouW96beJcWKeGEL7IUVWies9FVt3MM+og5xSEiBAgAABAgQIECBAYCMBG7Q2YtKJAAECBAgQIECAAAECBAgQGIDAsoMau9gU0UGZUt4RKBtBvkqME5eJZaKLtugiqZwE7hF4dc9jTR+aN02w5fjrLftv0n20Sace9Skbs75JjBNXiSG1cv4Weyx4uce5TEWAAAECBAgQIECAAIHOBWzQ6pzYBAQIECBAgAABAgQIECBAgMCeBPb5wfGelvSraapfPeKBuwLrjVnzPHFz90n3CRD4IPA2P/f9nnndgX3VQc6uUv4hiSeJWcJ7UxCeaIyeAPI0AQIECBAgQIAAAQLDEvhsWOWqlgABAgQIECBAgAABAgQIECBw0gKjk179Zoufb9ZNLwKDEag6qHTRQc6nUtZPdTjS58tXA14m6iNdX1fLOsRrtKu1yEuAAAECBAgQIECAAIEzV9DyIiBAgAABAgQIECBAgAABAgQIDEegfMivESBAoKnAoTa/lCt3tdnGbSZrOVf5OsNyRb9Jok5oBAgQIECAAAECBAgQIHDCAjZonfDJt3QCBAgQIECAAAECBAgQIECgU4FlB9lfJee0g7xSEiBAYB8Cy5YnedFyvrbS/T6Jxol5QiNAgAABAgQIECBAgAABAq6g5TVAgAABAgQIECBAgAABAgQIEOhIYNlR3u+St06Uq7JoBAgQ2EXgUFfQ2qXWoY35nyn4MnEztMLVS4AAAQIECBAgQIAAAQLdCbiCVne2MhMgQIAAAQIECBAgQIAAAQIEyldcddHKlbT+kiibLMpGgElCI0CAwKYCNg9tKrV9v/K+rBEgQIAAAQIECBAgQIAAgV8I2KD1Cw53CBAgQIAAAQIECBAgQIAAAQKtCnT9Qf3LVPttomzWWibmiWlinNAIECBAgAABAgQIECBAgAABAgQIEOiBgA1aPTgJSiBAgAABAgQIECBAgAABAgSOVqDrDVq34V7kzpeJ8hWIPyaWiXlimhglNAIECBAgQIAAAQIECBAgQIAAAQIEDiBgg9YB0E1JgAABAgQIECBAgAABAgQInIzAPjdo3UW9vWHrv/JkqeUqUSU0AgQIECBAgAABAgQIECBAgAABAgT2JPDZnuYxDQECBAgQIECAAAECBAgQ6IvADynkpi/FPFDHOI+XzTXa8AWus4RyRas+tPJ1iCW+TrxL1IlSX4m+/06kRI0AAQIECBAgQIAAAQIECBAgQIDAMAVs0BrmeVM1AQIECBAgQIAAAQIECOwucJmh9e7D9zJyllle72Umk3QtUDY+fZ/4ouuJtsz/fFVTqatsICs1lo1aJUrNGgECBAgQIECAAAECBAgQIECAAAECLQnYoNUSpDQECBAgQIAAAQIECBAgQIDALwRGuTdJVIn17dz8cPtluXFC7Spr7dsGrbv8pb71Zq0/5PY8USc0AgQIECBAgAABAgQIECBAgAABAgQaCtig1RDQcAIECBAgQIAAAQIECBAgQOCTQNmQNU1UiVPbhJUlP9jqPPMm8erBHv164suUU6LUPEvUCY0AAQIECBAgQIAAAQIEMFvuVwAAQABJREFUCBAgQIAAgR0Fnu04zjACBAgQIECAAAECBAgQIECAwFpgmhvLxF8SXydszgrCnTbN/Xd3Huv73bKh7E+JOjFOaAQIECBAgAABAgQIECBAgAABAgQI7CBgg9YOaIYQIECAAAECBAgQIECAAAECHwSq/Fwmvku8SGgPCyzzVJUY2iatlPzhyl+LHKfljkaAAAECBAgQIECAAAECBAgQIECAwHYCNmht56U3AQIECBAgQIAAAQIECBAg8FFglkO5upKNWR89NvlZNjlViSFu0nqeustGvGlCI0CAAAECBAgQIECAAAECBAgQIEBgCwEbtLbA0pUAAQIECBAgQIAAAQIECBD4IDDPz9csdhIom7QmiTc7jT78IJu0Dn8OVECAAAECBAgQIECAAAECBAgQIDAwARu0BnbClEuAAAECBAgQIECAAAECBA4scJX5vzxwDUOffpkFVImvEm8TQ2vlNTAeWtHqJUCAAAECBAgQIECAAAECBAgQIHAoARu0DiVvXgIECBAgQIAAAQIECBAgMDyBi5T89fDK7m3F81RWrqb128SQNmqVrzucJTQCBAgQIECAAAECBAgQIECAAAECBDYQsEFrAyRdCBAgQIAAAQIECBAgQIAAgbNRDMqVk7R2BW6SrriOE/+S+D4xhFauojYeQqFqJECAAAECBAgQIECAAAECBAgQIHBoARu0Dn0GzE+AAAECBAgQIECAAAECBIYhcJkyXwyj1MFWeZ3KLxL/PfFVomzWepfoayu1agQIECBAgAABAgQIECBAgAABAgQIPCFgg9YTQJ4mQIAAAQIECBAgQIAAAQIEPgiUDVrafgRuMs08UTZAjRL/nPh94odEn1qpTyNAgAABAgQIECBAgAABAgQIECBA4AmBz5543tMECBAgQIAAAQIECBAgQIAAgWkInmM4mECdmUuUVjZsTRLVKl7leKh2yLkPtWbzEiBAgAABAgQIECBAgAABAgQIENhawAatrckMIECAAAECBAgQIECAAAECJyfgSkn9OeU3KaVexbqqKjfKOSqx76+hnGTORUIjQIAAAQIECBAgQIAAAQIECBAgQOABAV9x+ACMhwkQIECAAAECBAgQIECAAIFPAtWnW270UaBOUZeJceLzxDeJt4l9tNE+JjEHgQcEygZBjQABAgQIECBAgAABAgQIECDQewFX0Or9KVIgAQIECBAgQIAAAQIECBA4qEDZANHl1xv+kPzLxCLRtFVJcOpfu7eMwWwVF6vjyxy7auX1UXeVXF4CTwiMnnje0wQIECBAgAABAgQIECBAgACBXgjYoNWL06AIAgQIECBAgAABAgQIECDQW4GyAaeL9n2SXiaWLSafJdepb9C6zXmdOyWK87e3n2jx9qjFXFIR2FZgvO0A/QkQIECAAAECBAgQIECAAAEChxDwFYeHUDcnAQIECBAgQIAAAQIECBAYjsC4g1L/kJwXiWUHuaX8tcBVHvrq1w97hMDgBSaDX8HhFsDucPZmJkCAAAECBAgQIECAAIETFLBB6wRPuiUTIECAAAECBAgQIECAAIEtBMZb9N2k69t0mm7SUZ9WBebJ9k2rGSUjcHiB8vWdo8OXMcgKuA3ytCmaAAECBAgQIECAAAECBIYqYIPWUM+cugkQIECAAAECBAgQIECAwH4Exi1Pc91yPuk2F5hv3lVPAoMRuBhMpf0q9FAbtNr+Gto3/WJVDQECBAgQIECAAAECBAgQuF/ABq37XTxKgAABAgQIECBAgAABAgQIdCNQd5NW1g0ElulTrmCmETiEQFcbaaaHWMye51x2MN+kg5xPpRw/1cHzBG4JHOI1emt6NwkQIECAAAECBAgQINCugA1a7XrKRoAAAQIECBAgQIAAAQIECDwucPP4057tWGDZcX7pCexboFyRqdr3pHueb9nBfMVt31fRqjpYx7KDnFL2Q2Dfr89+rFoVBAgQIECAAAECBAgcrYANWkd7ai2MAAECBAgQIECAAAECBAgQIECAQG8E6g4rmSf3sW/m6OLqdxcdnpP7Uncx3/K+iTx2FALjo1iFRRAgQIAAAQIECBAgQGAlYIOWlwIBAgQIECBAgAABAgQIECBAgAABAl0LLDqc4EVyzzvM34fUXfhN97iwceb6ooP5unDpoEwpdxCY7DDmqSE3T3XwPAECBAgQIECAAAECBLoSsEGrK1l5CRAgQIAAAQIECBAgQIAAAQIECBBYC3S9kaZs/qkTo/WER3bswq98zeF0T07zjubpwqWjUqXdQmCcvi+36L9pV6+XTaX0I0CAAAECBAgQIECgdQEbtFonlZAAAQIECBAgQIAAAQIECBB4ROBYN088suRePVU2ZGgEDiGwzKRdfE3f7bWU13fZgDG9/WBPbo9TR5WYJeaJbVu97YAN+1+l32TDvrt2u8zALt57yutpuWtRxvVaYNZBde86yCklAQIECBAgQIAAAQIENhb4bOOeOhIgQIAAAQIECBAgQIAAAQIEmgtUSXHdPI0MOwh0vQljh5IMOTGB8rv/dcdrfpH83yVmiatEmXOZ2EcbZ5LbUX7nRon7NidN8/g2rd6m8xZ9n6dvyV0lFom222USftt20lW+uqO80h5WoPzefNlBCV28vjsoU0oCBAgQIECAAAECBI5VwAatYz2z1kWAAAECBAgQIECAAAECBNoRuGknzacsF7l1+eleOzfGSTNLdPGBbtI2blfJUNZ9nagTi8Qyse922cGEyw5ySnm8AuV3oOsNWmu9F7lRNgaV+CFRfu/WcbO6ncOTbZQek1u9yu3yWGnVh58fn3++ur3poYytN+286vd9jl9sOWaT7qX2vyS+ScwSbbRxklwluqh3XV+9vuG4F4Hy2q8SdaKrVuaoO0q+6CivtAQIECBAgAABAgQIECBAgAABAgQIECBAgAABAgQGL/A+K2g7qgGozDpYd73juruopeRso02TpE60/Rq5na9K/qatToLbOcvtZeI6MUtUiVGiy3aZ5HdraON+1bDouoO6Gpa01fBZB/VXW1Vwf+c6D7dxftc5Sr622jKJ1nlP+XixA+h0D3bLzDFLTBK7tLKueaLrc3uTOUaJpq1OgrZrbVpTG+OrDtZ122mR/NeJWeIiUSWatHIuZ4nbc7R9e5r8GgECBAgQIECAAAECBA4m8NnBZjYxAQIECBAgQIAAAQIECBAgMASBZQdFvk7O9YexN1vkH6dvtYrygXC56ssQ2uSeIl/ksRLl6jLFo7R3iUViuYpy++bW/dzcqo3Tu0pME68SXbRlF0nlPGqBeVa3fs0f9UKfWFx5X7h+os/dp0v/q0SX733lfamcnxLr96Q6t0tbJG4+3Pr4Y5xDiVFikniV2Fe7zkS3a9nXvOb5KPAyhxLlz7C77c3qgUWO63NUjuX+7TbJnVGiSuzjtVNnHo0AAQIECBAgQIAAAQIHE7BB62D0JiZAgAABAgQIECBAgAABAoMQuPuBaltFf51E08R1ok4sE3fbOA+UKB/ilniRGFobp+DnGxZd+pUPqR/7oLp8VdvNBvkey7HB8I26lM0by4166kTgZ4Gr3LxMbPp78fPI47o12mE55Xd/nijvn/tom7wn7aOO++YoryOtnwLrP3/Wxz5U+TZFLPtQiBoIECBAgAABAgQIEDhdARu0TvfcWzkBAgQIHEDgx3/63eTsp/f3/EX8s6pZOT/Vvxr/7Pzm8//8j8WvHvcAAQIECBAgQGA7gfLfE2UjThebKUrOL1eRw1G2Scuretlyvibp6iaDjT1ZgZus/Crx+mQFPi581/eGYvf1iduVKzQtTtzA8rcTuN6uu94ECBAgQIAAAQIECBBoX8AGrfZNZSRAgACBExH48Tf/Nj47+1uitGdVfpydnb8fnb//cHWHD3fz45f/YvSnD53Wz906vr91e5eb57/+cCNzLX/zu7vJ1l81cPb+PH+h/f785mOH9Qavz5af//nfl3cHuU+AAAECBAicvEAdgS9OXmE3gMluwwYxqh5ElYrso8AsRU0TLxKn2sY7LnyZcb9PnPImrVnWrxHYRuBqm876EiBAgAABAgQIECBAoAsBG7S6UJWTAAECBI5C4OerXT2ryoLOz95/OOZm+ZDt+dnZ3z88mh9pqw1WTfdZfUzW5c9X6+TZSJbb64LXG7z+vt7UVa6SsSh935+d1+V4dpZNXK7K9ZHCTwIECBAgcHoC11myDVq7nfdqt2GDGFVeFxqBXQWmGfinXQcfwbgXDdYwy9hpIv9fenKtbE6rT27VFtxEoPxDtWWTBMYSIECAAAECBAgQIECgDQEbtNpQlIMAAQIEBivw81WwnlW3rn41zoJenH262tV6E9Ngl7lL4eUv+l+VgdmY9uGYW6+LyeqqXB82cP18Fa5yBS5X3ypeGgECBAgQOFKBshHnuyNdW9fLGnc9wYHy+8D7QPBHNG2dtXyTeH1Ea9p2KeMMWG47KP1vEtPEHxOn1N5msbNTWrC1tiLgNdMKoyQECBAgQIAAAQIECDQVsEGrqaDxBAgQIDAIgR+ry9HZXz+bZLfR5Fm+gjBXhRqn8Gw8Wl8F6/3PF5PKE9qTAh82cP18Fa5yBa5PV996k01dy58+fIVirsL13/62+Ly+Kh8gaAQIECBAgMBwBcqf5X9IfDncJRyk8lFmfXGQmbufdN79FGY4AYFZ1jhJfHECa71vieM8uLzviQ0eu06fU/uqw2nWXP480ghsKlA2E9ebdtaPAAECBAgQIECAAAECXQrYoNWlrtwECBAgcBCBT5uxzp5Vz87fT95nQ9bZX1cfjNmHtY9z8iob4F5l89bHD3D/+o/lqltvz7Nh66f354sPX5Vo09Y+zoM5CBAgQIBA2wKzJLRBazvVsvHkGFu5is38GBdmTQcRmGbWOvEycWqtvEfUDRZ9mbFV4hTsvso664RGYBuB8juiESBAgAABAgQIECBAoBcCNmj14jQoggABAgSaCPz4T7+bnL1/X328MlbZjHW++svp93m4SWZjWxR4kXPxIlfWyr+Mz9W21pu2zt7XH660dX5ef/6f/7FocT6pCBAgQIAAgfYFlknpKlrbuVbbdR9M7+lgKlXoEARuUmSVqBOnsNEoy/zURp9u7X6jytA6ccx2v8365gmNwDYC36Szv2fYRkxfAgQIECBAgAABAgQ6FbBBq1NeyQkQIECgC4Eff/Ov1dnZsyqbfXLMhqyfzp5n08+ZvVjRGFZ7kSttffnhSls5ebnK1ruUv8hjdbnK1ud//r85agQIECBAgEDPBC5Tz0Ui//2lbSAw2aDP0LqUr1Srh1a0ensvcJMKy+/LPHFKV+pr4z2i2FWJOnGMm7TKlbPmCY3ANgLfp/NsmwH6EiBAgAABAgQIECBAoGsBG7S6FpafAAECBBoL3NmQ9epjQtuxGsP2L0H5oPdVttrlHJ+/zoatUuEbG7b6d6JURIAAAQInLVA2AkwTfzxphc0XP9686yB6liuoXQ6iUkUOVWCawheJWeIUNoKOss42WnlvniTmiWPZ4Fb+Ac/lak05aAQ2FvghPacb99aRAAECBAgQIECAAAECexKwQWtP0KYhQIAAgc0FfvzNv43Pzv928ezsvMrX4lUZmb+YtyFrc8Gj6nl7w9a78/Oz+qd8LeLZ+8+uP//zvy+PaqUWQ4AAAQIEhiNwnVLLFU2+62nJ66tm/KUH9b3sQQ1tlVA2Z03bSiYPgUcErvJceZ+ZJ/KPN466tb2+abTqRDHM/0cPtq032CwGuwKFH0qgvHaqxM2hCjAvAQIECBAgQIAAAQIEHhKwQeshGY8TIECAwF4Ffvxf//sim7CqfN1djn9/cfbeVxbu9QQMY7Ln2bD3xfnZ+Rd5jXybK2y9zcvkOlfbqj//f/8nR40AAQIECBDYo8A8c40TrxN9aW9SyCxRJ0orH9IecoNUVYo4kvZN1jE7krVYxjAElimzSuT/Dz9sNnqRo7aZwDzd6sRVIv/vNKj2LtWWumeDqlqxfRGwkbgvZ0IdBAgQIECAAAECBAjcK2CD1r0sHiRAgACBrgV+rC5HZ3/9x4tn52cXH66S9f79kP91b9dc8t8v8CIb+r7Oxr6vy9ch5upa3//0vmzY+ofa1bXuB/MoAQIECBBoWWCWfMtE+TD9kP8t9/2qhjrH2y3/XXDQDVqLzP/bxEWi7avkJOVeWtnkNk2UtWgEDiFQfo9LTBOXiZeJY2tVFlS3vKhl8l0kqsQs0ff3oPXGrKvUepPQCGwjUF4/08T1NoP0JUCAAAECBAgQIECAwL4FbNDat7j5CBAgcMIC668uzKaa6dlfzz/8xXo2Z2kEWhH4eHWt8i/E/362/M2//pCra819FWIrtJIQIECAAIHHBOZ5cpEoH6rvcwPA28xXPogt8y4T97Xy/Ov7ntjTYzeZp9RXYpSobkXfN5mUjVml7nlCI9AHgXmKKDFJTFfxPMehtnLFv0WiXh1z6KTVyVolittl4iLRJ7fyXj5PXCVuEhqBbQRs7NtGS18CBAgQIECAAAECBA4uYIPWwU+BAggQIHDcAr/YlHX295flqws1At0LnL/MRsBvP34Vos1a3XubgQABAgROXGCR9VeJaeIy0dXmo/WmrDpzXCeeaqWu8uFtHzYj3KSOUvO67lFuV4nJreOh61z7zlPTIqER6KNAeW1erqLK8SJRjl297yR1o1beg0rNd6NR0h0Gl/mniVHiYhVVjod43/FeE/iBtv/P3v0kN5FlDePOdEE3M/ytAGkF+J2ZmqBeAf6tAPUKym8EVNSsVLOKgoh2r6BUK2jXClpMCs/arEBiBZ+ZUV+B83euLVUbYxtbVqbyz5MRF0mpzHvPea4kg3W4+SriPorWi7bO91wqIh7PW4rHRoAAAQIECBAgQIAAgUYI5I2IUpAECBAg0CiBT4uyTlfKalQCgm2xQGFlrRbPrtQIECBAoDYCWxHJMFoqAngQbdktfQF7GG0yb7O4bfO2Gcklu9R6Z25vYxjdXLotfBfG6dZGoKkCmxF4eu8M5re9uK2qgORtjDWLdhQtvY/S/dTS/bSvzttWBDeYt17clmH2KvpNFqlNos2i2coXGMQQ/17xMD9Ef6MzfQ7i/ma09DrqnWmr/rmVCh0nZ1p6LdkIECBAgAABAgQIECDQOIG8cRELmAABAgRqKTAd7G5m7+/ubOTZTrrUXC2DFBSBTwVeFel/3d77Y78/2Tv69CmPCBAgQIAAgRUJLL64Hcz768Vtame3yZkH6X76uezL1zMocXfhmPZuzR+n+2kbnPz5+R+z2JXaYkumR9Fm8xY3NgKtFzj73hmcy/b8e+nc0ycFIVftm5x/siWPFy69yCe1xTZY3Dl3O4vHqS22w7hzFG1xu9jvtlqBQQxXdoHWVRltxpNb8wN6cZvaYjv73GJfuj2Kdjjfsbg/i8ep2QgQIECAAAECBAgQINB4AQVajZ9CCRAgQGC9AtPtZ4ONWCGhyPKdiOT+eqMxOoHlBPKs+OU439jvv/5pf7kenEWAAAECBAgQIECAAAECBGojMIhI1lmgVRsIgRAgQIAAAQIECBAgQKAuAgq06jIT4iBAgECDBE4uYZgdD6OoZRhhr3rp+gZJCLWFAm+LPNvPiq/2+gc/zlqYn5QIECBAgAABAgQIECBAoP0Cg0hRgVb751mGBAgQIECAAAECBAg0SECBVoMmS6gECBBYt8D00bc7G1GU5RKG654J41ckcHIJxP7Bi3FF4xmGAAECBAgQIECAAAECBAisQmAQnSjQWoWkPggQIECAAAECBAgQILAiAQVaK4LUDQECBNoqYLWsts6svG4g8C5W1RpbVesGYg4lQIAAAQIECBAgQIAAgXUKDGJwBVrrnAFjEyBAgAABAgQIECBA4JyAAq1zIB4SIECAwKnAdPvZYCPLhkWWP2VCgMCpQJ5nvx4XRVz+8OWECQECBAgQIECAAAECBAgQqKnAIOJSoFXTyREWAQIECBAgQIAAAQLdFLjTzbRlTYAAAQKXCUy3nw/zrNjNsvxhcdlB9hPoqEC6vGee5U9m28/fxvtjlN37Y78/2TvqKIe0CRAgQIAAAQIECBAgQIAAAQIECBAgQIAAAQIECBC4hoAVtK6B5BACBAi0XWA62N3M3v9l97QwK7vf9nzlR2CFAu9ilbm9LNsY9w9+nK2wX10RIECAAAECBAgQIECAAIFlBQZxohW0ltVzHgECBAgQIECAAAECBEoQUKBVAqouCRAg0BSB6fZ3vY3swygKTHYiZoVZTZk4cdZSIAocfznO7owUatVyegRFgAABAgQIECBAgACBLgkMIlkFWl2acbkSIECAAAECBAgQIFB7AQVatZ8iARIgQGD1AtOvn29tHBe7UZj1dPW965FA5wVeFVkRhVovJ52XAECAAAECBAgQIECAAAEC6xAYxKAKtNYhb0wCBAgQIECAAAECBAhcInDnkv12EyBAgEALBabbzwZ5lo+y4+xxFGe1MEMpEaiFwON4n/17tv1coVYtpkMQBAgQIECAAAECBAgQIECAAAECBAgQIECAAAECBNYroEBrvf5GJ0CAQCUCfxZmZdnjSgY0CAECSUChltcBAQIECBAgQIAAAQIECBAgQIAAAQIECBAgQIAAAQKZAi0vAgIECLRYQGFWiydXak0SUKjVpNkSKwECBAgQIECAAAECBAgQIECAAAECBAgQIECAAIEVCyjQWjGo7ggQIFAHAYVZdZgFMRD4TECh1mckdhAgQIAAAQIECBAgQIAAAQIECBAgQIAAAQIECBBov4ACrfbPsQwJEOiQwHT7u16efRxHyi5l2KF5l2rjBBRqNW7KBEyAAAECBAgQIECAAAECBAgQIECAAAECBAgQIEBgeQEFWsvbOZMAAQK1EUiFWRvZh1GRfXxam6AEQoDAlwT+W6i1ke32f3tx+KUTPE+AAAECBAgQIECAAAECBAgQIECAAAECBAgQIECAQPMEFGg1b85ETIAAgT8FpoPdzez3u6O8+PhNkeV/7neHAIFGCTzOj7P/vN1+9stxdmfUP/hx1qjoBUuAAAECBAgQIECAAAECBAgQIECAAAECBAgQIECAwJUCG1c+60kCBAgQqK3AdPvbUf7+7iwvsm9qG6TACBC4tkAUWT6NS5RO03v7pPjy2mc6kAABAgQIECBAgAABAgQIECBAgAABAgQIECBAgACBOgso0Krz7IiNAAECFwhMH327M9t+Psuz4vt4+v4Fh9hFgECDBdJ7OxVfTrefDxuchtAJECBAgAABAgQIECBAgAABAgQIECBAgAABAgQIEJgLuMShlwIBAgQaIjD9+vlWXAZtLyuKxw0JWZgECCwvcD8uWvrzbPvZbpFlu/2Dl5Plu3ImAQIECBAgQIAAAQIECBAgQIAAAQIECBAgQIAAAQLrFFCgtU59YxMgQOAaAieXOvv97iiKs1zK8BpeDiHQLoH8YRRq/fvto+e/HhdfRaHWj7N25ScbAgQIECBAgAABAgQIECBAgAABAgQIECBAgAABAu0XcInD9s+xDAkQaLDA9NGz3XSps7xQnNXgaRQ6gVsLFEX2JM8+Hk63vx3dujMdECBAgAABAgQIECBAgAABAgQIECBAgAABAgQIECBQqUAsymAjQIAAgboJnF7OsBhnWf6wbrGJhwCBtQu8LbJi6LKHa58HARAgQIAAAQIECBAgQKCuAoMI7N8rDu6H6G+04j51R4AAAQIECBAgQIAAgc4IuMRhZ6ZaogQINEHg08sZqqFtwpyJkcAaBB7kWX562cO//jHsT/aO1hCDIQkQIECAAAECBAgQIECAAAECBAgQIECAAAECBAgQuKaASxxeE8phBAgQKFtg+ujbnbic4aHLGZYtrX8C7RA4uexhXAI1XQq1HRnJggABAgQIECBAgAABAgQIECBAgAABAgQIECBAgEA7Bayg1c55lRUBAg0SmG5/19vIP+4VRfGkQWELlQCBegjcz4v8H7Pt5ztF9lVc9vDHWT3CEgUBAgQIECBAgAABAgQIECBAgAABAgQIECBAgAABAgsBK2gtJNwSIEBgDQJp5Zs8+3iYVsJZw/CGJECgPQKP47NkOt3+dtSelGRCgAABAgQIECBAgAABAgQIECBAgAABAgQIECBAoB0CVtBqxzzKggCBhgmkVbOimGKcFdnjhoUuXAIEaiyQZ8X3s+1nO8VGPuz/9uKwxqEKjQABAgQIECBAgAABAgQIECBAgAABAgQIECBAgEBnBKyg1ZmpligBAnURWKyaFfEozqrLpIiDQKsE8of5cfYfq2m1alIlQ4AAAQIECBAgQIAAAQIECBAgQIAAAQIECBAg0GABK2g1ePKEToBAswSsmtWs+RItgaYLWE2r6TMofgIECBAgQIAAAQIECBAgQIAAAQIECBAgQIAAgbYIWEGrLTMpDwIEai0wffTtTlzSMF1uzKpZtZ4pwRFom8B8Na1Hz3bblpl8CBAgQIAAAQIECBAgQKASgVcxyi/RJpWMZhACBAgQIECAAAECBAi0VCBvaV7SIkCAQC0EpoPdzY3f746LIntSi4AEQYBAlwVeFdlXw/7Bj7MuI8idAAECBAgQIECAAAECHRAYRI7/vkGeb+LYWbT0nwvTbWrp/lE0GwECBAgQIECAAAECBAisQECB1goQdUGAAIGLBKbbzwZ5lo/juQcXPW8fAQIE1iDwrsjzYf/1T/trGNuQBAgQIECAAAECBAgQIFCNwCCGOV+g9Tb2zaItirAWt2mfjQABAgQIECBAgAABAgRKFlCgVTKw7gkQ6KbAdPvbUZ4V33cze1kTIFB3gfh8+uX43ofd/mTP/4au+2SJjwABAgQIECBAgAABAjcX6MUpw2iTaOnffakYy0aAAAECBAgQIECAAAECaxRQoLVGfEMTINA+gen2d708+7CfZfnD9mUnIwIE2iVQvCk2YjWt3174RX27JlY2BAgQIECAAAECBAgQIECAAAECBAgQIECAAAECNRPYqFk8wiFAgEBjBaaPvt3Js49R6KA4q7GTKHACnRLIH+bH2X+mj57tdiptyRIgQIAAAQIECBAgQIAAAQIECBAgQIAAAQIECBCoWMAKWhWDG44AgXYKTB8938uL7Jt2ZicrAgTaLpDn2a/Hf/1j6JKHbZ9p+REgQIAAAQIECBAgQIAAAQIECBAgQIAAAQIECKxDQIHWOtSNSYBAawRc0rA1UykRAgSy7G2xke245KGXAgECBAgQIECAAAECBAgQIECAAAECBAgQIECAAIHVCrjE4Wo99UaAQIcEXNKwQ5MtVQLdEHgQlzycTLefD7uRriwJECBAgAABAgQIECBAgAABAgQIECBAgAABAgQIVCOgQKsaZ6MQINAygen2t6O8KP4Vad1vWWrSIUCg2wL3Y3nVn99uPxt3m0H2BAgQIECAAAECBAgQIECAAAECBAgQIECAAAECBFYn4BKHq7PUEwECHRCYDnY3N36/Oy6K7EkH0pUiAQKdFijeFNmdnf7Bj7NOM0ieAAECBAgQIECAAAECBAgQIECAAAECBAgQIECAwC0FFGjdEtDpBAh0R2D69fOtuPzXfmT8oDtZy5QAgY4LvCs2skH/txeHHXeQPgECBAgQIECAAAECBAgQIECAAAECBAgQIECAAIGlBVzicGk6JxIg0CWB6aNvd6I4axI5K87q0sTLlQCB+/HZ95/p9vMhCgIECBAgQIAAAQIECBAgQIAAAQIECBAgQIAAAQIElhNQoLWcm7MIEOiQwHT721FeFP+KlO93KG2pEiBA4E+BWHL157fbz8Z/7nCHAAECBAgQIECAAAECBAgQIECAAAECBAgQIECAAIFrC7jE4bWpHEiAQNcEpoPdzY33d/aKLH/atdzlS4AAgUsEXhX3/tjpT/aOLnnebgIECBAgQIAAAQIECBAgQIAAAQIECBAgQIAAAQIEzgko0DoH4iEBAgSSQCrOyt/fmWRZ/pAIAQIECJwVKN4UG/mw/9uLw7N73SdAgAABAgQIECBAgAABAgQIECBAgAABAgQIECBA4GIBBVoXu9hLgECHBaZfP9/Kj7P9IHjQYQapEyBA4CqBd8VGNlCkdRWR5wgQIECAAAECBAgQIECAAAECBAgQIECAAAECBAicCmyAIECAAIH/Cky3nw2iOGsSexRn/ZfFPQIECJwXuB+flf+Zbj8fnn/CYwIECBAgQIAAAQIECBAgQIAAAQIECBAgQIAAAQIEPhVQoPWph0cECHRYIBUa5Fn+7yC432EGqRMgQODaArEU68/T7W9H1z7BgQQIECBAgAABAgQIECBAgAABAgQIECBAgAABAgQ6KOAShx2cdCkTIPC5QCowyLPi+8+fsYcAAQIEviQQn5+/PDh4OfzScZ4nQIAAAQIECBAgQIAAAQIECBAgQIAAAQIECBAg0EUBBVpdnHU5EyDwicDb7WfjIsuffrLTAwIECBC4kUAq0jq+92G3P9k7utGJDiZAgAABAgQIECBAgAABAgQIECBAgAABAgQIECDQcgEFWi2fYOkRIHC5wHSwu7nx/s6e4qzLjTxDgACBmwkUb4p7HwaKtG6m5mgCBAgQIECAAAECBAgQIECAAAECBAgQIECAAIF2C2y0Oz3ZESBA4GKBVJyVv78zUZx1sY+9BAgQWE4gf5g+W5c711kECBAgQIAAAQIECBAgQIAAAQIECBAgQIAAAQIE2imgQKud8yorAgSuEFgUZ2VZ/vCKwzxFgAABAksIROHr3hKnOYUAAQIECBAgQIAAAQIECBAgQIAAAQIECBAgQIBAawUUaLV2aiVGgMBFAtPt73qnq7sozrrIxz4CBAjcRqDIs3/2D16Mb9OHcwkQIECAAAECBAgQIECAAAECBAgQIECAAAECBAi0TSBvW0LyIUCAwGUC06+fb+XH2SSev3/ZMfYTIECAwHICeVb88uDg5XC5s51FgAABAgQIECBAgAABAgQIECBAgAABAgQIECBAoL0CCrTaO7cyI0DgjIDirDMY7hIgQGDFAoqzVgyqOwIECBAgQIAAAQIECBAgQIAAAQIECBAgQIAAgVYJKNBq1XRKhgCBiwQUZ12kYh8BAgRWI6A4azWOeiFAgAABAgQIECBAgAABAgQIECBAgAABAgQIEGivgAKt9s6tzAgQCAHFWV4GBAgQKE9AcVZ5tnomQIAAAQIECBAgQIAAAQIECBAgQIAAAQIECBBoj4ACrfbMpUwIEDgnoDjrHIiHBAgQWK3Aq97Bi8Fqu9QbAQIECBAgQIAAAQIECBAgQIAAAQIECBAgQIAAgfYJ3GlfSjIiQICAlbO8BggQIFCuQPGmuPdhp9wx9E6AAAECBAgQIECAAAECBAgQIECAAAECBDopsBlZb0XrzdskblOzESDQYAEFWg2ePKETIHCxgJWzLnaxlwABAqsROCnOGvQne0er6U8vBAgQIECAAAECBAgQIECAAAECBAgQIECgcwK9yDi1VIi1KMhKt4+jXbRNLtppHwECzRFQoNWcuRIpAQLXEFCcdQ0khxAgQGBpAcVZS9M5kQABAgQIECBAgAABAgQIECBAgAABAgS6JtCLhFNbFGEN4n4qwnoYzUaAQMcEFGh1bMKlS6DNAoqz2jy7ciNAYP0CirPWPwciIECAAAECBAgQIECAAAECBAgQIECAAIGaCZwvvkqPe9Ee1CxO4RAgsGYBBVprngDDEyCwGgHFWatx1AsBAgQuEXhb3PvgsoaX4NhNgAABAgQIECBAgAABAgQIECBAgAABAq0WGER2aeWrRTGWIqxWT7fkCJQjoECrHFe9EiBQocB0sLuZv8/2Y8j7FQ5rKAIECHRF4F2xke30J3tHXUlYngQIECBAgAABAgQIECBAgAABAgQIECDQOYFBZLwZbVF81Zvf9/1jQNgIELi9gAKt2xvqgQCBNQqcFmfdmUQIlgld4zwYmgCB1gqk4qxB/7cXh63NUGIECBAgQIAAAQIECBAgQIAAAQIECBAg0AWBi4qv0r7HXUhejgQIrF9Agdb650AEBAgsKfDf4qz84ZJdOI0AAQIELhdQnHW5jWcIECBAgAABAgQIECBAgAABAgQIECBAoH4CvQgptbQKViq+GkRLmyKsUwd/EiCwRgEFWmvENzQBArcTyN+nlbMUZ91O0dkECBC4UEBx1oUsdhIgQIAAAQIECBAgQIAAAQIECBAgQIBATQSGEUcv2iBaKsayoEMg2AgQqK+AAq36zo3ICBC4QuDt9rNxoTjrCiFPESBAYGkBxVlL0zmRAAECBAgQIECAAAECBAgQIECAAAECBCoSGMY4VsaqCNswBAjcXmDj9l3ogQABAtUKzIuznlY7qtEIECDQDYEiy3b7v7047Ea2siRAgAABAgQIECBAgAABAgQIECBAgAABAgQIECBQvoACrfKNjUCAwAoFpo+e7cbKWYqzVmiqKwIECCwEojjr7/2DF+PFY7cECBAgQIAAAQIECBAgQIAAAQIECBAgQIAAAQIECNxewCUOb2+oBwIEKhKYbj8f5kX2j4qGMwwBAgQ6JaA4q1PTLVkCBAgQIECAAAECBAgQIECAAAECBAgQIECAAIEKBRRoVYhtKAIElheYfv18Kz/Ofl6+B2cSWJvAqzRykWeH8cfRSRQn949P78eO/sHLycn+W/4x3X42+LOLfGMzK7Ktk8d5sRnFjaf3XY/9TyJ3/iugOOu/Fu4RIECAwGcC6e8Qm+f29uJxaqvcZtFZaue3o9hxeH6nxwQIECBAgAABAgQIECBAgAABAgQIEGiSgAKtJs2WWAl0VGBenDXpaPrSrr1A8SbL8qO49OYky6PoqogvEDfyo/5vLyr/IvGCQq/9y/jS+yo7LjazPAq3io3NPCsGUUa2Gbk8vOwc+9spoDirnfMqKwIECFwh0IvnUkvb4OTP08e9M/cfzO/X9Sb+/pUdnQku/b1r8XgW91NL22ze0n0bAQIECBAgQIAAAQIECBAgQIAAAQIE1iaQr21kAxMgQOAaAtPB7mb+/s5E0cg1sBxStsDbGGB2WogVRVh5MVtHEVbZSab+T4q3iryXVuA6Ldw6+RK37l/UVkHTujFiZbd/9l+/2G1dYhIiQIAAga0g6EVb3Kb7qXX55/miqCsVch1GS1u6TY9n8xY3NgIECBAgQIAAAQIECBAgQKAhApOI83FDYr1tmD9EB6PbduJ8AgTWK2AFrfX6G50AgS8I5O/v7schVvT5gpOnVy7wLno8PCnGyo4n2b0Ph/3JXvryrhPbvPAsfWGZ3n8nWyqWzN7f2cqyjcG8aCvuZ/dPn/VnEwViHn/pvX6528TYxUyAAAECfwr04l76mXy2dbkI60+YC+6c/TfFkwueT7veRptd0eIpGwECBAgQIECAAAECBAgQIECAAAECBG4ukN/8FGcQIECgGoG328/GUSDztJrRjNJxgbdRrDI5zvJJtpEdtnVlrFXP8ellErOtjbg8YrxXB9G/L4RXjVxSf6k468HBy2FJ3euWAAECBMoR2IxuB9FSMdbiVrF0YFS4LVbhmsSYR9EO5y3dtxEgQIAAAQIECBAgQIAAAQLVCkxiOCtoVWtuNAIEbiGgQOsWeE4lQKA8gen282F8QP1c3gh67rjAuzzPJsdFWiHqq0n/4MdZxz1Wkv50+7teln0cbOTZTlGcfHHsS+OVyK62E8VZq/XUGwECBEoU6EXfgzNNIXRg1HQ7WX01YpvN2yRuU/GWwq1AsBEgQIAAAQIECBAgQIAAgZIEJtGvAq2ScHVLgMDqBRRord5UjwQI3FJguv0sLqGW//uW3TidwDmB4k2RbexnG8W+FbLO0ZT08HSFrXwnz453six/WNIwur2BgOKsG2A5lAABAtULbMaQg3mLn51WpgyDpm+Lwq3DSCS1WbRJNBsBAgQIECBAgAABAgQIECBwe4FJdKFA6/aOeiBAoCIBBVoVQRuGAIHrCaQVePLsY/rywso71yNz1BUCsUrWr8dx6cKsuLNvlawroCp46tzqWk8qGNIQnwu86h28GHy+2x4CBAgQWKNAL8ZOxViDaH4+BkJHtnSpxEXRVrqddCRvaRIgQIAAAQIECBAgQIAAgVUKTKIzBVqrFNUXAQKlCijQKpVX5wQI3ERgOtjdzN/fmVhp5yZqjj0vcFKUlS5deO+P/f5k7+j88x6vXyC917P3d3fml0L0ZXQlUxIryN37MPCeqATbIAQIEPiSQC8OSEVZw2gPo9kIJIFUtDWJdrZwKx7aCBAgQIAAAQIECBAgQIAAgUsEJrFfgdYlOHYTIFA/gTv1C0lEBAh0VWDj/Z29wmXQujr9t8w7Xb4w30tFWT1FWbe0LP/0eZHQOEYaL4q1omJ8GI+78g+pSLXKTXFWldrGIkCAwCUCm7E/FWWlpjj5EqSO707FemcL9tLlESfRUsFWuk3NRoAAAQIECBAgQIAAAQIECBAgQIBAQwWsoNXQiRM2gbYJTB89282L/B9ty0s+pQq8LfJYKav4as/lC0t1rqzz08sgHg/zrBjGoA8qG7jVAynOavX0So4AgSYIbEWQu9FSYdb9JgQsxloLvIroJmdarYMVHAECBAgQIECAAAECBAgQKFlgEv135T9+/xC5jqLZCBBosIACrQZPntAJtEVg+vXzrfw4+09b8pFHuQInlzDM8nH/9U/75Y6k93UKTLefDTZiVa1YGe3pOuNo9tiKs5o9f6InQKDhAsOIPxVmnV0RqeEpCb+GAn6nU8NJERIBAgQIECBAgAABAgQIVCYwiZEUaFXGbSACBG4r4Jd5txV0PgECtxJIlzfL39+dRSdWFLiVZOtPfhuFOuMs2xhbLav1c/1JgieXQPz9zjBW2EtfcltV6xOdKx+8Le79sTW/nOSVB3qSAAECBFYmsBk9pZ9Xqfm77cpYdXSJwNvY37vkObsJECBAgAABAgQIECBAgEAXBCaRpAKtLsy0HAm0ROBOS/KQBgECDRWI4qz9CN0XWA2dvwrCflVkWRRlvRhXMJYhaigwLzDai9D2po++3cmLIn3p3ZV/cC07I++KjWxHcdayfM4jQIDAjQU244z08yk1f6+9MZ8TlhSYLXme0wgQIECAAAECBAgQIECAAAECBAgQWIOAAq01oBuSAIFTgen2t6MsKxRaeEF8JpBnxS/HJ4VZLyefPWlHZwXml7Xcn25/19vIPoxc/vDCl0Iqzhr0f3txeOGzdhIgQIDAKgUUZq1SU183FfCz/qZijidAgAABAgQIECBAgAABAgQIECCwRgEFWmvENzSBLgtMt58Nogjn+y4byP1zgdPCrDuj3sGPs8+ftYfAqcD8MpfDKNQaZdnxMF43Viw5pVGc5U1CgACBagQUZlXjbJSrBY6uftqzBAgQIECAAAECBAgQIECAAAECBAjUSUCBVp1mQywEOiIwHexu5u/z/Y6kK80vC7yLlZD2snv/b6832fNF05e9HDEXmBdqjeIzZS97/5fdjhdqKc7yziBAgEA1AsMYZhTtQTQbgXUKHK5zcGMTIECAAAECBAgQIECAAAECBAgQIHAzAQVaN/NyNAECKxDY+P3uuMiy+yvoShfNFvizMKuvMKvZM7nm6Oevny4XainOWvNr0PAECHRCYCuy3Ivm8tydmO5GJOk/NjRimgRJgAABAgQIECBAgAABAgQIECBA4FQgB0GAAIEqBaaPnu3mRf6PKsc0Vu0EFGbVbkraFVBapa9LK2oVef7/9V//tN+uWZQNAQIEaiUwimhcmrtWUyKYEPg/0RRpeSkQIECAAAECBAgQIECAQJcFJpF8V/4z3Q+R6yiajQCBBgso0Grw5AmdQNMEpl8/38qPs/80LW7xrk4gLkH3y3F2ZzS/NN3qOtYTgQsEzhRqtfZL9SLL/t4/eDG+IH27CBAgQOD2AlvRRSqAfXD7rvRAYOUCfp+zclIdEiBAgAABAgQIECBAgEDDBCYRrwKthk2acAl0WWCjy8nLnQCBagXy42Jc7YhGq4tAnme/FtlX/QcHL4eKs+oyK+2PI136sH/w0yi99lJxYNsyVpzVthmVDwECNRMYRTzpPxYozqrZxAjnROANBwIECBAgQIAAAQIECBAgQIAAAQIEmiVwp1nhipYAgaYKTB8938uK7GFT4xf3sgLFmygi2e29fjlZtgfnEbitwLwocBir+O3FKn570V/j/0eN4qzbviqcT4AAgUsFevFMWjXL31svJfJEDQSOahCDEAgQIECAAAECBAgQIECAAAECBAgQuIGAAq0bYDmUAIHlBKbbzwZ5kX2z3NnOaqjAu1SY1T94OW5o/MJuoUD/txeHkdZg+ujbnbwoUqHWgyamqTiribMmZgIEGiKwE3GOo91vSLzC7K7ApLupy5wAAQIECBAgQIAAAQIECBAgQIBAMwVc4rCZ8yZqAo0RmA52N/MsHzcmYIHeWqDIs38W9/7o9Q9emPdba+qgDIH+65/24zW6VWT5D2X0X2afKWbvrTKF9U2AQIcFRpH7v6Ipzurwi0DqBAgQIECAAAECBAgQIECAAAECBAgQKEvAClplyeqXAIFTgd/vjuJOI1epMYU3FnhVbMSqWaerFN34ZCcQqFKgP9lLlwYaTbe/G+fZx3Hcf1zl+MuMlWfFL72DF6NlznUOAQIECFwqsBnPjKM9ufQITxCon8CkfiGJiAABAgQIECBAgAABAgQIECBAgACBqwQUaF2l4zkCBG4lML+M2De36sTJTRB4V+TFqP/6ZbpknI1AowT6Bz/OIuDFZQ/Hcf9+tNptqTjrwcHLYe0CExABAgSaLZCKsybRHjY7DdETIECAAAECBAgQIECAAAECBAgQIECAQN0FXOKw7jMkPgINFTi5tGFRKNhp6PxdN+w8z34tsq+2FGddV8xxdRWYX/awlwqh6haj4qy6zYh4CBBoicBW5HEYTXFWSya0Y2lMOpavdAkQIECAAAECBAgQIECAAAECBAg0XsAKWo2fQgkQqKmASxvWdGJWFlasmpUPe69/2l9ZjzoisGaB+WUPh9PtZ3HZw3wc4az98qyKs9b8ojA8AQJtFUjFWZNotVw1sa3o8iJAgAABAgQIECBAgAABAgQIECBAgECXBayg1eXZlzuBkgSiuGGQF9k3JXWv2zULnKyade+PXlpxaM2hGJ5AKQL9g5eT4t4fW0We/bOUAa7ZaXqvuazhNbEcRoAAgesLKM66vpUj6ynwqp5hiYoAAQIECBAgQIAAAQIECBAgQIAAgasErKB1lY7nCBC4scDJpQ3fn6w8c+NznVB7gXdFlu32Xr8Y1z5SARK4pcB8Na3d6aNvJ3lRjKO7ildZKd4c//XD8JZpOJ0AAQIEPhVQnPWph0fNFDhqZtiiJkCAAAECBAgQIECAAAECBAgQINBtAStodXv+ZU9g9QIubbh603r0+KrIvtrqHyjOqsd0iKIqgbRSXKym1UurWVU1ZpYVb4p7HwbzIrHqhjUSAQIE2i2gOKvd89ul7A67lKxcCRAgQIAAAQIECBAgQIAAAQIECLRFwApabZlJeRCogcD06+db+bFLG9ZgKlYaQpHlP/QPfhqttFOdEWiQwLxQamf66NluXuSjCL3E1bQUZzXopSFUAgSaI7AZoU6ilfj53RwMkTZewApajZ9CCRAgQIAAAQIECBAgQIAAAQIECHRRwApaXZx1ORMoSSA/PrkMWEm963YNAm+LrPib4qw1yBuylgL91y/3io1skFa4KidAxVnluOqVAIGOCyjO6vgLoIXpW0GrhZMqJQIECBAgQIAAAQIECBAgQIAAgfYLKNBq/xzLkEAlAmllmSzLH1YymEGqEHgVl3WLSxq+nFQxmDEINEWg/9uLw3T5wTwrflltzIqzVuupNwIECPwpsB/3/B31Tw53WiBw1IIcpECAAAECBAgQIECAAAECBAgQIECgcwIucdi5KZcwgdULTLe/6+XFx9Hqe9bjOgRc0nAd6sZsksD8kofD6fbzSZ5lP68g9nfFRj6c97uC7nRBgAABAnOBvbh9TINAywQOW5aPdAgQIECAAAECBAgQIECAAAECBAh0QsAKWp2YZkkSKFdgI/+Yvvy6X+4oeq9A4J1LGlagbIjWCPQPXozjkof/Ewm9vUVSUZyVDdLKXLfow6kECBAg8LnAMHZ98/luewg0WuBdo6MXPAECBAgQIECAAAECBAgQIECAAIEOCyjQ6vDkS53AKgSm288GRZE9WUVf+linQFxeLfvKJQ3XOQXGbqTA6SUP/9iK4F8tkYDirCXQnEKAAIFrCKTP5fQfCGwE2iagoLttMyofAgQIECBAgAABAgQIECBAgACBzggo0OrMVEuUQDkCeZaPy+lZr1UJ5FnxS3Hvw6B/8OOsqjGNQ6BNAunShL2DF4P0XrpBXoqzboDlUAIECNxQYBzHW931hmgOb4TAUSOiFCQBAgQIECBAgAABAgQIECBAgAABAp8JKND6jMQOAgSuKzB99Gw3jn1w3eMdVz+BIst/eHDwcpgKTOoXnYgINEsgvZeKLPv7NaJWnHUNJIcQIEBgSYG9OO/hkuc6jUDdBQ7rHqD4CBAgQIAAAQIECBAgQIAAAQIECBC4WECB1sUu9hIg8AWB6WB3My/y0RcO83R9Bd6lQpL+wU/msL5zJLIGCvQPXoyLrPhbhP7usvCLPB+mSyNe9rz9BAgQILC0wCDO/Gbps51IoP4Cs/qHKEICBAgQIECAAAECBAgQIECAAAECBC4SuHPRTvsIECDwJYGN93f2osDHpWO+BFXP563eU895EVVLBPoHLyfTr58P8uNsP1L6ZJXBk8LI1z+l/baSBKbbzwafdX3vw6GVAj9TsYNA2wQ2I6Fx25KSD4FzArNzjz0kQIAAAQIECBAgQIAAAQIECBAgQKAhAnlD4hQmAQI1EojCg60oPPhPjUISyrUFijfFhtV7rs3lQAK3EDhZafD9nUmW5SeX2jpdte7F+BZdOvWcQDLO3t/d2ciznaLItuLpTwrizh2eHr4q8mI/y/OJVcwu0LGLQLMFRhH+981OQfQEvijQjyNmXzzKAQQIECBAgAABAgQIECBAoBsCk0jzcTdSzX6IPEcdyVWaBForoECrtVMrMQLlCcy2n0+i9678hac8yMp7juKsex8GVpGpHN6AHRZIBUQbv98dHxfZfrr8YYcpVpp6WiUrrtM9LLL86fIdx2dilu+Zl+UFnUmgRgK9iGVao3iEQqAsAb/DKUtWvwQIECBAgAABAgQIECDQRIFJBN2V7ysVaDXxFSpmAucE/HLvHIiHBAhcLZC+FM+z/N9XH+XZugnkefbr8V//GCrOqtvMiIcAgZsITLe/6+XZx3Gcs8p/dL8t8ny379KTN5kKxxKom8AkAlrl50Ld8hMPgSTwNlov3bERIECAAAECBAgQIECAAAECJwKT+LMrvxNSoOVFT6AFAndakIMUCBCoUCCKs8YVDmeoFQjkWfHLg9cvhyvoShcECBBYm8D00bPdvPg4igDurziIB3lR/Ovto+cKWVcMqzsCFQnsxDhd+UVcRaSGqanArKZxCYsAAQIECBAgQIAAAQIECBAgQIAAgWsIxNVhbAQIELiewHT7+TCOfHC9ox1VB4GT4qwDxVl1mAsxECCwnEC6TGQUT+3nRf6P6GHVxVl/BlUU2ZP8/d3D6dfPt/7c6Q4BAk0Q2GtCkGIksAKB2Qr60AUBAgQIECBAgAABAgQIECBAgAABAmsSUKC1JnjDEmiaQPqCPK6JOmpa3F2OV3FWl2df7gTaIXDys+f9nUkqnqooowf5cTZRpFWRtmEI3F5gGF34zwO3d9RDMwRmzQhTlAQIECBAgAABAgQIECBAgAABAgQIXCSgQOsiFfsIEPhc4P1fdmOnL8A+l6nlHsVZtZwWQREgcAOBRXFWluUPb3DaKg69r0hrFcEm6tIAAEAASURBVIz6IFCJwKiSUQxCoB4Ch/UIQxQECBAgQIAAAQIECBAgQIAAAQIECCwjoEBrGTXnEOiYwOnqWUUq0LI1QEBxVgMmSYgECHxRYOP3u+M1FGct4jot0orVIxc73BIgUDuBYUTkPw/UbloEVKLAUYl965oAAQIECBAgQIAAAQIECBAgQIAAgZIFFGiVDKx7Aq0QOF09634rcml5EoqzWj7B0iPQEYHpo2e7FV7W8DLV+/n7u/uXPWk/AQJrFxitPQIBEKhW4LDa4YxGgAABAgQIECBAgAABAgQIECBAgMAqBRRorVJTXwRaKGD1rOZMquKs5syVSAkQuFxguv1dLy/y0eVHVPrM41QsVumIBiNA4DoCwzjI6lnXkXJMmwSsoNWm2ZQLAQIECBAgQIAAAQIECBAgQIBA5wQUaHVuyiVM4IYCv98dxRlWz7ohW9WHK86qWtx4BAiUJZBnH8fRd21+7qRisVSsXFa++iVAYCmB4VJnOYlAcwXeNDd0kRMgQIAAAQIECBAgQIAAAQIECBAgkAQUaHkdECBwqcDpKibZN5ce4IlaCCjOqsU0CIIAgRUITLefDaKbxyvoapVd3M9OL/W7yj71RYDA8gJbcWrdPieWz8aZBK4nYPWs6zk5igABAgQIECBAgAABAgQIECBAgEBtBRRo1XZqBEZg/QIb2YfR+qMQwVUCirOu0vEcAQJNE4i/mA7rGHN81u5aRauOMyOmjgrsdjRvaXdb4LDb6cueAAECBAgQIECAAAECBAgQIECAQPMFFGg1fw5lQKAUgbR6VpHlT0vpXKerEnj14ODlcFWd6YcAAQLrFEgFUDX+uROraN3dWaePsQkQOBHYjD+9F70Yuihw1MWk5UyAAAECBAgQIECAAAECBAgQIECgTQIKtNo0m3IhsFKB4+FKu9PZigWKN8W9P3xBuWJV3REgsEaBmhdAbeSKQtb46jA0gYVA+rvP/cUDtwQ6JHDYoVylSoAAAQIECBAgQIAAAQIECBAgQKCVAndamZWkCBC4lUBaxSR/X+zeqhMnlynwtrj3YdCf7B2VOYi+CRAgUKVAKoAqiipHvNlYEduTm53haAIEShBIBVq26gXexJDp752H89sUwST9Md9mcZvaqrbBBR1txb7NM/vPPk77H555ro13j9qYlJwIECBAgAABAgQIECBAgAABAgQIdElAgVaXZluuBK4r8P4vu1lWWJ3gul7VHveu2Mh2FGdVi240AgTKF4gCqPRle6236fazQf/g5aTWQQqOQHsFepGaQsly5zcVYh1Gm0WbzG/T/aq3yQUDXrTvgsNOdg3mT2zG7eJnSy/up5a2tK9p/9aZpMBtBAgQIECAAAECBAgQIECAAAECBAg0V0CBVnPnTuQEShGwelYprCvrNIqzBv3fXqQvzmwECBBom8CD+ieU9+ofowgJtFZgp7WZrS+xVJC1H20SLf398ihaG7bJmSRSfpdtvXgitbQNTv787+1WPG5aEdc8BTcECBAgQIAAAQIECBAgQIAAAQIECNRRQIFWHWdFTATWKWD1rHXqXzl2XPnr74qzriTyJAECDRVIK1M1I/S814w4RUmglQI7rcyq+qR+jSFT0VJqR9UPX6sRZxFNammbnPz5+R9bsWszWm/eFo/TbVUFXK9iLBsBAgQIECBAgAABAgQIECBAgAABAg0XUKDV8AkUPoFVC+RZMVx1n/q7vUCRZ//sv34xvn1PeiBAgAABAgQINE4gFcg8blzU9Qk4rZS1F20/2lF9wmpEJIdfiHIwfz7dbkbbitaL1oBVISNKGwECBAgQIECAAAECBAgQIECAAAEClQko0KqM2kAE6i8w3X4+jCh9mVCzqcrz7Nfe6xe7NQtLOAQIECBAgACBqgR2qhqoZeP8EvmMo02i2coRmMy7XdyeHWUQDxZFW6lwK91fptBwEufZCBAgQIAAAQIECBAgQIAAAQIECBBouIACrYZPoPAJrFIgz7LRKvvT1yoEijfHf/0wXEVP+iBAgAABAgQINFRg0NC41xV2KswaRZtFs61PYDIfev9cCL14nNpgfpvuL1O4FafZCBAgQIAAAQIECBAgQIAAAQIECBBoioACrabMlDgJlCww3X42iCGsnlWy8w27f1ds5MP+ZO/ohuc5nAABAgQIECDQJoGdNiVTYi7pUoa70SYljqHr2wvMoovUJtHObr14kNog2la0XrSH0SbRbAQIECBAgAABAgQIECBAgAABAgQINFxAgVbDJ1D4BFYlkGf5aFV96Wc1AkV8wdb/7cXhanrTCwECBGoscO/DYfb+bo0DnIeWHx/VP0gREmidQCpUud+6rFaf0A/R5Wj13eqxQoFZjJXaJJqNAAECBAgQIECAAAECBAgQIECAAIGWCWy0LB/pECCwhMB0+7tenOayGkvYlXVKkWf/7B+8GJfVv34JECBQJ4HGrBRYZIpm6/TCEUtXBAZdSXTJPN/Gef8TbbTk+U4jQIAAAQIECBAgQIAAAQIECBAgQIAAgQoEFGhVgGwIAnUX2Mg+jOoeY7fiK970X7/Y7VbOsiVAgED2qvYGaaUvGwECVQsMqh6wQeOlz820wpjPpgZNmlAJECBAgAABAgQIECBAgAABAgQIEOimgAKtbs67rAn8KTAd7G4WWb7z5w531i3wrsjumI91z4LxCRCoXKDIi/3KB73RgFE8O9k7utEpDiZAYBUCW6vopIV9/BI5DaL5XGrh5EqJAAECBAgQIECAAAECBAgQIECAAIH2CSjQat+cyojAzQR+vzOME+7f7CRHlyVQ5Pmwf/DjrKz+9UuAAIHaCuT5pLaxRWBx6dlxneMTG4GWCvQirwctze02aaXirOFtOnAuAQIECBAgQIAAAQIECBAgQIAAAQIECFQroECrWm+jEaidQF7ku7ULqqMBxZf//+y//mm/o+lLmwCBjgv0f3txGGVQb2rLUNzx+VzbyRFYiwW2WpzbsqkpzlpWznkECBAgQIAAAQIECBAgQIAAAQIECBBYo4ACrTXiG5rAugWmj77diRisSrDuiTgZP4oS/vrHqBahCIIAAQJrEohL7u6taegrh82z4herG15J5EkCZQko0PpUNhWxDj/d5REBAgQIECBAgAABAgQIECBAgAABAgQINEFAgVYTZkmMBEoS2MiKYUld6/aGAsVGXNpwsnd0w9McToAAgVYJ9A9ejCOht3VL6nijnoVjdXMSD4ESBBRo/Rf1Xdwd/PehewQIECBAgAABAgQIECBAgAABAgQIECDQJAEFWk2aLbESWKHAdPu7XlFkT1bYpa6WFIgVY344vbTXkh04jQABAi0SKPJ6XXr3ZPWsk8svtghZKgSaI6BA679ztRN3FfP/18M9AgQIECBAgAABAgQIECBAgAABAgQINEpAgVajpkuwBFYpcDxcZW/6WlageNM/+Gm07NnOI0CAQNsE+q9/2s/z7Nea5PXu+N6H3ZrEIgwCXRRwKe7TWf8lbiZdfAHImQABAgQIECBAgAABAgQIECBAgAABAm0RUKDVlpmUB4EbCsSKIMMbnuLwEgTSpQ1L6FaXBAgQaLTA8V//GEYCa7/UYZEVOy4/2+iXkuCbLTBodvgriz5d2lCh6Mo4dUSAAAECBAgQIECAAAECBAgQIECAAIH1CCjQWo+7UQmsVWD66Nt0iRQrEqx1FrLMpQ3XPAGGJ0CgtgKpKKrYyNLPqlSYsJatyLK/9w9eTtYyuEEJEEgCmxhOBEbx5xELAgQIECBAgAABAgQIECBAgAABAgQIEGi2gAKtZs+f6AksJbBRHKcvvW1rFXBpw7XyG5wAgdoL9H97cRhFWoMItPIirdPirBfj2iMJkEC7Bbband61sksrCe5d60gHESBAgAABAgQIECBAgAABAgQIECBAgECtBRRo1Xp6BEdg9QLTwe5mrNz0dPU96/EmAi5teBMtxxIg0FWBdRRpKc7q6qtN3jUU2KxhTFWHNKp6QOMRIECAAAECBAgQIECAAAECBAgQIECAQDkCCrTKcdUrgfoKvL9r9aw1z06RZ/9MRQdrDsPwBAgQaITASZHWvT96EeyrkgN+V2TF3/oHVs4q2Vn3BK4rsHXdA1t6XFo9cL+luUmLAAECBAgQIECAAAECBAgQIECAAAECnRNQoNW5KZdw1wXyrNjtusGa83+b/fWP0ZpjMDwBAgQaJdCf7B31Dl4Mirz43wh85Zc8jJ+NvxRRBNY/eDlpFIxgCRBos8A4kjtqc4JyI0CAAAECBAgQIECAAAECBAgQIECAQJcEFGh1abbl2nmB6fZ3vSzLH3YeYo0ARZ7vpkKDNYZgaAIECDRWoP/65V4qpIpL9f4QSdy6UCvPs1+Ljex/Hhy8HPpsbuzLQuDtFXjc3tSuldnetY5yEAECBAgQIECAAAECBAgQIECAAAECBAg0QuBOI6IUJAECKxI4Hq6oI90sJ/Cq//qn/eVOdRYBAgQIJIF5IdVoOtjdy+KyvRt5tlMU2ZPr6xRv4lKz46y4s997/ePs+uc5kgABApUJvImRZpWNZiACBAgQIECAAAECBAgQIECAAAECBAgQKF1AgVbpxAYgUB+BuITTsD7RdC+SIvtq2L2sZUyAAIFyBOaFWuPoPbVsuv1sEKtE9k5b9umWHx9lRXaY3ftwaKWsT2k8IlBTgV5N46oqrHFVAxmHAAECBAgQIECAAAECBAgQIECAAAECBKoRUKBVjbNRCKxdYPr1863sOHuw9kA6GkC6HFf/wEotHZ1+aRMgUIFA/+DlpIJhDEGAQDUCvWqGqe0ok9pGJjACBAgQIECAAAECBAgQIECAAAECBAgQWEpgY6mznESAQPMEimzYvKBbE/G77N7/22tNNhIhQIAAAQIECBAoS+BtdHxYVuf6JUCAAAECBAgQIECAAAECBAgQIECAAIH1CCjQWo+7UQlULpAX2U7lgxrwRKDIsl2X1PJiIECAAAECBAgQuIbA5BrHOIQAAQIECBAgQIAAAQIECBAgQIAAAQIEGiagQKthEyZcAssInFzeMHN5w2XsVnDO2/7Bi/EK+tEFAQIECBAgQKArAltdSfSCPK2edQGKXQQIECBAgAABAgQIECBAgAABAgQIEGi6wJ2mJyB+AgSuIeDyhtdAKueQIiuG5fSsVwIECBAgQIBAawU2W5vZlxObfPkQRxAg0BKB9Fm3KEg9ez+l15u3dP/8lo59eH7nmcdv4v7Rmcdn787iQWqLbRZ3UkvbbN7SfRsBAt0SSJ9F6bMltXR/sQ0Wd87cpmMu+gx6deaYdPcw2tG8pfuzeYsbG4FSBAZneu3F/dTOboOzDy64vxX77l+w/+yu86/zs8+l+7N5S/cX2+K9cNnjxX63BAgQIECAAAECHRBQoNWBSZYiAZc3XNtr4FX/4OVkbaMbmAABAgQIECBAoGkC6QscGwEC7RBIX/RuRhvM01ncpv1f+gJ4fspSNxcVTiw6ery484XbxRfQk/lx6fYo2uH8sRsCBJolkD53NqMN5mEvbq/7mTA/7cqb832df7w4OX2+pM+S1CbRZtFsBK4SSK/drWjnb9M5aX+ZP1PTGGe3y17Xi2O+9PziuMXt27gzmz9It4v7h3H/aN7SfRsBAgQIECBAgEBLBBRotWQipUHgMoGTyxseu7zhZT5l7o/Vs0Zl9q9vAgQIECBAgACBVgmkVW9sBAg0TyB9OdyLlm4X968qkorDar8tvmBe3H5/JuLFl8mT2DeLlr44Ts1GgMD6BRafQel2cb9un0fpc2Xx2ZLE0mfKfrTJ/DZubB0V6EXei9duut2Mdva1Eg9btz2IjFJL25dyXayQeRjHHkWbnWvx0EaAAAECBAgQIFB3AQVadZ8h8RG4rYDLG95WcNnzrZ61rJzzCBAgQIAAAQLdFJh1M21ZE2iUQC+iTV8aD+a3X/oyNQ5r3bb4Mvl87q8i0/SlcWqTaLNoNgIEyhNYfBb1Yoh0//x7sryRV9tz+kz5Zt7exe1+tL1oh9Fs7RXoRWrpdTuY3zb19RvhV7Ytii0vszpbwDWLqNJ7KN2mZiNAgAABAgQIEKiJgAKtmkyEMAiUJZAXxSDL8rK61+8lAlbPugTGbgIECBAgQIAAgcsEfBF5mYz9BNYn0IuhB2daKiSwXSyQvjA++6VxWhVncqbN4r6NAIHlBHpxWheKWe5Hnk/nLRWb7EUbR7M1X6AXKQzOND9PA2PF21UFXOn9NIuW/r2R2uJ+3LURIECAAAECBAhUKaBAq0ptYxGoWGC6/V0vyz4u/nFW8eidHs7qWZ2efskTIECAAAECBJYSmC11lpMIEFi1wCA63ImWbv17OhCW3NKX74tCi9SFy5gtCVniaZPo+3GJ/ZfR9S/R6bCMjmvW51bEM5i3dL+LxSzp8/fnaKNo4/lt3NgaJLD4WZpuu/gartNUpfdTak/OBfUqHs+iHc7bJG7buBVtTOqSnP4W+yeXPGf3lwWS3eMvH9aKI9L7f9CKTCRBgACBhgko0GrYhAmXwI0E8g87WZHf6BQH317A6lm3N9QDAQIECBAgQKCDArMO5ixlAnURSF8eL9r9ugTVsjjSl/PfzFu6jNkk2v68HcWtjcB1BAbXOaiBx2xFzCm3RfM5FBjzLX12fB9tGG0UbRzNVl+Bxc/SdOt1XN95WkSWClFSe7rYEbdpta3DaJP5bbpvI0CAAAECBAgQWJGAAq0VQeqGQB0FNrJ8UNQxsHbHZPWsds+v7AgQIECAAAECZQkcldWxfgkQuFAgfXm8aL5EvpCotJ3J+8m8/Ry3v0Tbn7e4sRG4VOBBPLMV7fDSI5rxxGaEuRNtMG8pL9vVAskofV4M520Wt7Z6CPQijN1ow2h+ngZCw7eHEX9qT+d5pKLq9Jk7OdPiro0AAQIECBAgQGAZAQVay6g5h0ADBKaD3c3i/WfLFjcg8maHaPWsZs+f6AkQIECAAAECaxRIX3zYCBAoV6AX3Q/nTUFEQNRkS18Cp5a+BB5H24s2i2YjcJHAIHY28WfmVsS9M2+p+MG2nMDjOC3N/yjaXjTb+gSGMXRqaU5s7RVIRXdpjlP7fp7mP+N2d37fDQECBAgQIECAwA0ENm5wrEMJEGiSwO9/GTQp3JbEavWslkykNAgQIECAAAECBAgQaJVAKorYjzaNlr5cfBDNVj+B9CXwN9HSPE2iDaPZCJwXGJ7fUdPHmxFX+uwZRzuK9p9o6fPnYTTb7QTSZ8U/ok2iJWdbdQLJexhtFu3naI+j2bonkD7TbAQIECBAgAABAksIKNBaAs0pBJogsFEc7zQhzjbFWOT5XpvykQsBAgQIECBAgEBlAmnVGBsBAqsXGEaXs2j/ivYkmq05AulL//Tl/yzabrTNaDYCSeBhtLq+HlJcw2j70f5vtPTZ8zTa/Wi21Qukz4nDaFur71qPFwiMYt8sWvpsfhDNRoAAAQIECBAgQIDADQUUaN0QzOEEmiJQZPmgKbG2JM63/dc/pV/A2QgQIECAAAECBAjcVCB9uWgjQGA1ApvRzSjaLJovkQOh4VsqAvhHtFm0UbQ0vzYCOzUi6EUsu9Em0VJRVvrceRLNVo1A+oyYRBtEs5UjMIxuZ9G+j6bYMBBsJ+85DAQIECBAgAABAksIKNBaAs0pBOouMN3+rhcxpl9Q2CoSKE5/UVzRaIYhQIAAAQIECBAgQIAAgQsEUpHELFr6Etm/iQOhRVsqCkjzOos2iqZQKxA6vA3WnHt6/Q2jHUabRvtHtMfRbOsRSJ8P/442XM/wrR11KzKbRPs52oNoNgIECBAgQIAAAQIEbimgQOuWgE4nUEuB/MNOLeNqb1Dvsnt/7Lc3PZkRIECAAAECBAgQIECg1gLDiG4WLRVJpC/qbe0VSPP7fbRZtGE0WzcF1vF7r82gHkZLv//5v9FS0crDaLb6CKQ5GdYnnEZHMoro/xPtcaOzEHxZApOyOtYvAQIECBAgQKDtAgq02j7D8uukwEaWDzqZ+JqSLvJs3J/sHa1peMMSIECAAAECBAgQIECgqwJbkfgkWvpS/kE0W3cEUqFWmvfDaINotm4JpPlP7/8qtp0YZBxtFi295p5Es9VXIM3RoL7h1T6y9L5Kn6vf1z5SARIgQIAAAQIECBBooIACrQZOmpAJfEmgKPwi4ktGK32++Gpvpf3pjAABAgQIECBAgAABAgSuEtiMJ9O/w6zucZVSN557GGn+O9o4Wnpd2LojMCwx1V70nT5jZtH+Fe1ptPvRbM0Q2I8wt5oRaq2iHEY0k2jpc9VG4DKBV5c9YT8BAgQIECBAgMCXBRRofdnIEQQaJTD9+nn6BYRfGlU0a3me/do/+HFW0XCGIUCAAAECBAgQIECAQNcFdgJgFu2brkPI/xOBVEAzi5ZeH7ZuCAxKSHMYfU6iTaOlz5gH0WzNE0i/F92Pttm80NcW8ThG/jlasrMRIECAAAECBAgQIFCSgAKtkmB1S2BtAse5X0ZWiH+c5eMKhzMUAQIECBAgQIAAAQIEuiqQvmhPX7j/K5ovkLv6Krg67/S6SK+P9DpJrxdbuwUeRnq9FaSY+hhHO4qWClQeR7M1XyAV16XPAtvVAumzchLt6dWHeZbAnwKTP++5Q4AAAQIECBAgcGMBBVo3JnMCgXoL5FkxqHeErYrubf/1T37Z06oplQwBAgQIECBAgAABAjUUGERMh9Ge1DA2IdVPIL1OZtF26heaiFYsMLhFf8M4dxJtGi0Vp9yPZmuXwONIZ9SulFaazaI4KznZCBAgQIAAAQIECBCoQECBVgXIhiBQscBWxeN1drjC6lmdnXuJEyBAgAABAgQIECBQmcAoRvp3tAeVjWigNgikYpt/RdtrQzJyuFTgpkV4vehpFG0W7edoClMCoeXb95Gf35V+PsmbsWsS7eHnT9lD4EqBwyuf9SQBAgQIECBAgMCVAgq0ruTxJIFmCUy/fp5+4eB//FU2bRvjyoYyEAECBAgQIECAAAECBLolkL483o+Wvly3EVhW4Js4cRItvZ5s7RN4cs2U0u/LxtGm0dJnyoNotu4IjLuT6rUyTZ+Hk2iKs67F5aBzAkfnHntIgAABAgQIECBwAwEFWjfAciiB2gsULm9Y4Ry96h/8OKtwPEMRIECAAAECBAgQIECgKwKpmGIS7brFF11xkedyAo/jtMNo6XVla5/AzhUppecm0f4T7Wk0WzcFUiHSqJupX5j1JPYmExuBZQTSz1MbAQIECBAgQIDAkgIKtJaEcxqBOgpsZPmgjnG1Mabi9H9etjE1OREgQIAAAQIECBAgQGCdAqmIZhLNl8frnIX2jZ1WTJpEu6qYp31ZdyOjwQVpDmPfLNq/oqUCPRuB3SDoYThZSc7PVy+E2wgc3eZk5xIgQIAAAQIEui5wp+sA8ifQJoGiyAZtyqfGubzL7v2xX+P4hEaAAAECJQhMt58NPul2Iz/q//bi8JN9HhAgQIAAAQK3ERjGyXvR7t+mE+cSuEQgva5Swc7fo42j2dohsBNp7EbbjDac308FeTYCZwXS+38UbRitq1t6nzztavLyXonAm5X0ohMCBAgQIECAQIcFFGh1ePKl3i6B6fZ3vSz76JfYFUxrnhX7vcneUQVDGaJDAtOvn29lx0X6hXKW5XHpjWLj9P5Zg/z4KCtOLs2RZQpDzsq4T2DlAic/V/MPO2l1ynkB9Oc/Y4/jv+VvP09jv42fDZPjLJ+kAt6+nxErnw8dEiBAgEAnBIaR5c+dyFSS6xZYvM7G6w7E+CsRSMVYe9GG0T7/O3vstBGYC6TipFG0WbSubVuR8D+6lrR8Vy5wtPIedUiAAAECBAgQ6JiAAq2OTbh02yzwcdDm7OqU23G+sV+neMTSLIHTQqwowIoirLyI2+yk3c+i0CNVZp1sRfrz5I/Tx4s/i/nz6fGZwpB4NIunDk+Lt76a9A9+nKVDbAQI3Fxguv18GO+0YRQ9P87ijXXBO/GiTh8UWf40znuavb/789vtZ7/EW3TcP3g5uehg+wgQIECAAIHPBIax5+fP9tpBoDyBxettXN4Qeq5Q4JsKxzJUswVGEf6w2SncOPrNOMPvMm/M5oQLBA4v2GcXAQIECBAgQIDADQQUaN0Ay6EEai1wsuJOrSNsS3Dv+q9/8kuNtsxmBXl8tgrP8fx/9F6z6uMaIT6IYx5Esdfj02M/phV93uV5Njku0i/gFGxdw9AhXxCYDnY3s9//Mohqpa0oWRpcdHi85o6Oi/ww6gwPs7/+v0nTVpFKly/Ms3wcuaX31K22RbHW20fPfz0uvtpVNHkrTicTIECAQPsFhpHiz+1PU4Y1FFi87sY1jE1IBAiUI/A0uh1Fm0XryjaKRG/979yuYMnzSoGjK5/1JAECBAgQIECAwBcFFGh9kcgBBJohMF+JpxnBNjjKdHnDBocv9IoETouyPu7G+3InVuF5cINVeFYV4f24JNuTWM3nSYwfBVvP3sRCQOOsuLOvUGRVxN3oJ60mtZFnO8X79Foqrkw6XnNRm1U8OTns/d3spDgpCp7qXtR6Wnx2dxTv15X/r/vT9+HHwfTRs1H/9cu9KwE9SYAAAQIEuikwjLR/7mbqsq6JwOL1N65JPMIgQKB8gVEMMSx/mFqMMIgoVv5v3VpkJoh1CByuY1BjEiBAgAABAgTaJKBAq02zKZeuCzzuOkAV+bu8YRXKzR3j9NJoxW4URT38Qi1LxUnmD6P45B8R1z+aUjRTMZDhzgnML/M3it0PUuHVMttpcVLxJFZ0extdjPoHL8bL9FPmOemSo/n7IsX1sMRx7udF/o+47OHW8b0Pu01bWaxEF10TIECAAIH4zwyKs7wMaiGgSKsW0yAIApUJPI2R4nc32VFlI65voL31DW3kFgp04T3TwmmTEgECBAgQIFAnAQVadZoNsRBYUiB9wZwdL3my024i4PKGN9HqyLEnq++8/8turByUfrl3P60hVOftk6KZvNjL/vphrGCkzjNWbWwnBUvHKy9YehDvip+jUGtYbGS7/d9eHFab1cWjneaaTeI9G+/b8reTyx6+v7MVnxkD77nyvY1AgAABArUX2IoIx7WPUoBdEkhFWrNok2g2AgTaLzCMFPdanmbKscz/jNRyPuldIFCL3+dcEJddBAgQIECAAIHGCGw0JlKBEiBwucBxln65bStZwOUNSwZuWPepMGu6/e0of393Fq+N7yP8Soo8Vsj0IK3qk+JPeZwUmq2wc101TyAuw7ebH2f/iYKlsn6B+zj6n6TVudat89/irKrft7Ga3fs7E++3db8CjE+AAAECaxbYjPEn0Zr29+c1sxm+AoH9GMPvVyqANgSBGgjs1iCGMkNIP2tHZQ6g704KHHUya0kTIECAAAECBFYooEBrhZi6IrA2gdwvEKuwP87ySRXjGKPeAi0ozDoPfD8VmEWh1mEdCmfOB+dxNQJx+b1xKtirYLR4vWU/Tx8936tgrAuHSO/hKBTbjyfX9KVw/nDj97vjC4OzkwABAgQItF8gfWE8ibamn8PtB5bhrQTS63IcLb1ObQQItFvgQaQ3aHGKu5FbytFGYFUCb1bVkX4IECBAgAABAl0WUKDV5dmXe2sE8kKBViWTee+P9IW+rcMC00ff7qRCpoaumPWlmZtfhu5ZFGo9G3zpYM+3RyAVZ6XL71WZUfzc+iaNW+WYi7HiPZw+y9f6i+p0qdG0YtkiJrcECBAgQKBDAnuR68MO5SvV5gmk1+e4eWGLmACBJQSGS5zTlFPanFtT5qBtcR61LSH5ECBAgAABAgTWIaBAax3qxiSweoHHq+9Sj+cEXvUne/4heg6lKw/TijtvHz3fz4viX5HzWgs7yjePS7Bl+b/TCkcuw1a+9rpHSPNcdXHWIuc0btVFSvNV4mrxMzOtWDbd/q638HBLgAABAgQ6IDCMHJ92IE8pNl/gSaQwan4aMiBA4AsCO194vqlPDyPwlv/uqqlT0+i4DxsdveAJECBAgAABAjURUKBVk4kQBoFlBXy5u6zczc4r8mL/Zmc4ui0C81WzZmnFm7bkdJ080gpHJ5c9/Pr51nWOd0zzBE5e2zHP64z8tEipmhXbTi5tmGV768z3/Nh59nF8fp/HBAgQIECgpQLp75S1+jncUmdprU7g++jKv4VW56knAnUUuB9B7dQxsFvGtHvL851O4CKBo4t22keAAAECBAgQIHAzAQVaN/NyNIH6CeTHfmFYxazk+aSKYYxRL4G0utB81az0S7subg/y4+w/Va9y1EXoqnNOxb3x2h5XPe5F48WKbfuVrNb2/i/pl9R1ey8/dknRi14V9hEgQIBACwXGkVPdfg63kFlKKxbYj/42V9yn7ggQqJfAoF7h3Dqa9Hvih7fuRQcEPhc4/HyXPQQIECBAgAABAjcVUKB1UzHHE6ibQOF/dFYwJe/6v73wj9AKoOsyRCpemW0/O0yrSNUlpnXGkVY5Spd4rKSIZp2JdmjsjfzjXqRbly9J72e/3x2VzZ9nxW7ZYyzT/0ae1zKuZXJxDgECBAgQuERgFPt9WXwJjt21FkiXCBvVOkLBESBwW4Gd23ZQs/P9+7JmE9KicI5alItUCBAgQIAAAQJrE1CgtTZ6AxNYjcBGXmytpie9XCaQ59nksufsb5/ANC7pF5cdO8yy3JdIZ6Y3XeIxf39n4rKqZ1Aaejet2FS3S3amYsgyX1vT7efDmK66FKR98spJc6H48RMSDwgQIECgXQLp36vpUnE2Ak0V+CYCHzQ1eHETIPBFgVSI2fviUc05YKc5oYq0YQLxu1IbAQIECBAgQIDAbQUUaN1W0PkE1ixQFEVvzSG0fvjjIttvfZISPBFIRRxxSb9JPKhlIcf6pyl/mIrXUhHb+mMRwbICdV2xaSP7MFo2py+dt5Fn9f4l9fu79Y7vS8CeJ0CAAAEClwvsXf6UZwg0RmDcmEgFSoDAMgJt+fdYysPvs5Z5BTjnOgJH1znIMQQIECBAgAABAlcLKNC62sezBBogYJWf8ifpq0n5Yxhh3QInxVlZ9nPE4ZdZV0/G/VTEpkjraqS6PptWqarb6lkLqyLLn5a1klTkPFiMU8fb2heQ1RFNTAQIECDQBIHdCPJxEwIVI4EvCKQVdkZfOMbTBAg0V2DQ3NA/ibwthWafJOVBLQTe1iIKQRAgQIAAAQIEWiCgQKsFkyiF7gqUeTmo7qp+lvnb/sGPs8/22tEqgTPFWa3Kq8RkFGmViFtq1/mHev/CtoSVpObFhLUuvKx7AVmpr0mdEyBAgEBbBTYjsVFbk5NXJwVSwWGvk5lLmkD7BQYtSbHe/95vCXJH05h1NG9pEyBAgAABAgRWLqBAa+WkOiRQpcCHXpWjdXGsPM8Ou5h3l3JWnLX0bCvSWppufSfmRV7rX9iWspJUkffWJ37tke+XtXrYtSNwIAECBAgQWK3AKLqrdYH0atPVWwcE0ut51IE8pUigiwLp/d1reOJbEb+fuw2fxBqHP6txbEIjQIAAAQIECDRKQIFWo6ZLsATOC2wMzu/xeLUCx1kxWW2PequTgOKsW8+GIq1bE1beQa0vM1TKSlJFln5RXf/t/Z1mxFl/SRESIECAwPoFehHCN+sPQwQEVi7wNHocrLxXHRIgUAeBQR2CuEUMtf7PWLfIy6n1EJjVIwxRECBAgAABAgSaL6BAq/lzKIMuC+TFZpfTryT3PJ9UMo5BKhdIlz3Ls+znygdu34CKtBoyp9PtZ4MGhHrf5XsbMEtCJECAAAECVwuMrn7aswQaLTBqdPSCJ0DgMoGm/4eZwWWJ2U9gBQKzFfShCwIECBAgQIAAgRBQoOVlQKDBAnlTVgVpsHH/txeHDQ5f6JcInBRnHWeTS562++YCUaRVjF2i7eZwzrhIwOV7L1KxjwABAgQINESgF3GmVYZsBNoqkFakHbQ1OXkR6LBA0wu00meTjUBZArOyOtYvAQIECBAgQKBrAgq0ujbj8m2bQK9tCdUsn1c1i0c4KxBIRUSpmCi6ur+C7nTxp0D+cOP3u+M/H7pTQ4GNQQ2D+jykfMPqkJ+r2EOAAAECBJoiMGpKoOIkcAuB0S3OdSoBAvUUaHKBVpNjr+erQVTnBWbnd3hMgAABAgQIECCwnIACreXcnEWgLgIP6hJIG+Mo8uywjXl1PaeN93f2six/2HWHMvIviuzJdPvbURl967NDAlaH7NBkS5UAAQIEWibQi3ysntWySZXOhQJW0bqQxU4CjRZI/4mv19AMBg2NW9jNEZg1J1SREiBAgAABAgTqLaBAq97zIzoClwpMt7/rXfqkJ1YjUCjQWg1kfXqZbj8fFlnuS6MSpyTPiu+n288GJQ6hawI3E8iPj252wrqOvjNb18jGJUCAAAECKxIYragf3RBogsCwCUGKkQCBGwn0bnR0fQ62glZ95qKNkbxtY1JyIkCAAAECBAisS+DOugY2LgECtxX40ItVgG7bifOvEthQoHUVT9OeS0WNefYxVs+ylS2QZ/k4LiW51Z/sNaQwpmwR/d9IYNWrFzak2LZ/8OPsRk4OJkCAAAEC9RLYjHB26hWSaAiUKpD+488o2iyajQCBdggMIo1JA1PpNTDmOoX8LoI5vGFAvTj+wQ3Paerhs6YGLm4CBAgQIECAQB0FFGjVcVbEROBaAnnvWoc5aGmB/m8vbvqP86XHcmL5AlGcNY5R0pL1tvIFHmS/3x3FMLvlD2WEawukwqfi2kev78BitSte9Q9eTmbbz9eXz/VGfnW9wxxFgAABAgRqKzCMyPxdu7bTI7CSBNK/d/ybpyRc3RJYg8DmGsZcxZCPV9FJS/tIqz/Nok2iHUU7jJa2ycmfq/9jcK7Ls4+34rnFayzdb8rfm2YRq40AAQIECBAgQGBFAgq0VgSpGwLVC+S9rBHftFcvs6IRfVm+Isg6dDN99Gw33i5+YVXhZORF9k1c6nA/FcdUOKyhrhI4KXzKrzqiJs+Vcam/4k2sOvmwJgl+FkZcenXy2U47CBAgQIBAswR2mxVuI6NdfMl83eB7cWBXVve4rsmqjxtGh177q1bVH4H1CaSimaZtvaYFXHK86WflfrTJvB3FbZXb5Nxg5x+fe/rk4WC+czNuF6/BdJse96Kt+2f5LGKwESBAgAABAgQIrEhAgdaKIHVDoHKBvNhUn1Weep4Vs/J613OVAnGpvc38fT6qckxjnQpEKdBe3Fv8cgnLmgUaspLUuzIu9Vfk2TiKBv+x5im4fPiNYv/yJz1DgAABAgRqLzCICNf95WHtka4RYPpS+XDeZnGb2lG0tO+2Wy86ONu25o9rW8Ae8TVhS6ufDKONo9kIEGi+wGYDU+g1MOYyQv4lOh1Hm0Rr2jY5E/D+mftn76bXZvrZnbbByZ//vS37P6TO5uO5IUCAAAECBAgQWIGAAq0VIOqCwDoE4ovmxT/K1jF868c8zjZmrU+yIwluvL+zVzRn2fCWzUr+MK1e1n/9cq9liTU4nXqvJJXnJf0ytbizn2Uf61qg9dYldRv8lhI6AQIECCSBIYalBF7FWZMzbalOrnnSLI5L7aJtEDtTS79jeBLNdjOBnTh8fLNTHE2AQE0Fmli0mj67u7yln6XDaLNobd6OIrnJPMHF7fzhnzeDuLcZLb0mFre9uH/bIvpZ9GEjQIAAAQIECBBYkYACrRVB6oYAgbYJHE/allEX85luf9crso9Pu5h7XXLOi3wUq5iN+5O99Msk25oF6r6S1HFWTMogSqtyvd1+9ktcSrB2nwdRQDoqI2d9EiBAgACBigTSF4C1+/laUe43HeZdnLA/b5O4rcvfj1MsqS22nbizaGmFKNvVAqmorRdtFs1GgACBqgU2qx6wRuP9PWIZ1yiedYcymQewf0EgW7GvF21xm+4/jnadbXadgxxDgAABAgQIECBwPYGN6x3mKAIEaiiQ/kFlK0tgIz8qq2v9ViewkX0YVTeakS4RuJ+9/8vuJc/ZXbXAyUpSVQ96g/H++mF8g6NvdOhxdmd0oxOqOfht/+DFuJqhjEKAAAECBEoR2Cml13Z1+ibSSV8i96INo+1Hq/O/N1N8Kc7NaCnuV9FsVwvsXP20ZwkQaJDAoEGxplB7DYt3FeGmguf/iTZeRWcd6eMw8kw/30fRhtEG0fJo/yfa36L9b7R/RrvoZ/4s9tsIECBAgAABAgRWJKBAa0WQuiGwBgH/k7VEdJebKhG3oq5PV8+q32o5FaVfq2HyrNiNVbTSFzy2NQuklaQihIt+4bbmyNJvBotfylxpLeWexlh7omcCKPJ898xDdwkQIECAQBMFdpoYdEUxp79z/S3aVrRxtKNoTdvGEfAgWsoj5WO7WGB48W57CRAgULpAr/QR6jfAMEI6rF9YjYwo/d1kEm0v2m60QbQ8Wj9a+tn/QzQbAQIECBAgQIDACgUUaK0QU1cEqhJQ6FC2dPGm7BH0X76A1bPKN77BCFbRugFW2YcWWTEqe4xl+j+u4H+/Ht/7kH7h+G6Z+FZ9Tp5nv/Zf/7S/6n71R4AAAQIEKhTYjLHS5d1snwq8jYfpS81BtEm0NmyTSGIQLeXl38uBcG57GI975/Z5SIBAMwXSzzZbfQXSKk/+HV3+/MxiiEm0UTQbAQIECBAgQIDACgUUaK0QU1cEKhN4f2ersrE6OZDLGzZ92q2eVb8ZTKto1S+qbkbUP3g5icxf1Sn7k9WzTuMqNay0QlcUqO2UOsj1On93/Nc/htc71FEECBAgQKC2AnX4mVo3nB8ioF60SbQ2bpNIKv0+4n+j1aLoPeKoy+b9UJeZ6F4c6b2Y/n2XWipeSZ9DF7Vf58d47wbEFVv6jGvS9rhJwd4y1vTaHd2yD6cTIECAAAECBAgQWKvAnbWObnACBAjUUKDILZNdw2m5YUjHwxue4PDyBe5Pt58P+wcvxuUPZYQvCRTZV8M8+3gYx9XhcrnvjrM7o4ilki0VqMVr8e95lv1cyYCfD/Ku2MgGZV7O8fMh7SFAgAABAqUIDErptZmdvo2wU4FO+vtVF7a9SHISbRwtrR5lO53/5GIjUJZAKk5JnzGTaLN5S/eX2Xpx0iDaTjQrIQaCrREC44jyqBGRCpIAAQIECBAgQIDAJQJW0LoExm4CtRbINzZrHV/TgyusoNX0KbRaUz1nMApihvWMrHtR9Q9+nBV5PS51WOR5FO79OKtyFlKhYJFlf69yzPlYp8VZv71IX6zYCBAgQIBA0wXSF/u201VrtgKiaz/fU76DaL9Es2VZWsVmEwSBFQq8ib7+GS39u6UfLb2+BtFG0cbRJtGW3WZx4jjaTrT/E+2HaKkAzEagzgLjOgcnNgIECBAgQIAAAQLXEVCgdR0lxxCom0BxckmBukXVnnisoNXouZw++jb9grEOqwI12rGk4B+ny0+W1LdubyjQf/1yL11a8IanrfTwk0sbvv5pf6WdXrOzNRRpKc665tw4jAABAgQaIbAVUfo792lx0iAsjhoxa6sPMuU9jLbWv1OuPq2lexwsfaYTCWTZ20BI76X/L1oqmkqfs7vRxtFm0cra0vt4FK0X7ddoXd96DQLYbFCstw01vT8Ob9uJ8wkQIECAAAECBAisW0CB1rpnwPgECNRPoDhOv5yyNVRgIyuGDQ29G2HnH3e7kWgzsnxw8HIYkb5aR7SpOGs+/jqGPxnztEir+Fs8KPl/ixdv4rKSW30rZ61trg1MgAABAisX2Fl5j83r8JcIedi8sEuJODkkj65vg64DyP/GAqkg6n+j9aP1og2j7Udbx++l0pjps/2HaF3eeg1KfqtBsd421MltO3A+AQIECBAgQIAAgToIKNCqwyyIgQCBmgncmdUsIOFcU2A62N0siuzJNQ932P/P3r0lN3Ftfxzv9t+c8GafEVgagXXeTF7ojABnBCgjwKnCqbwh3lKBKpQRIEYQMYI0L4nfIo9A7REc8UZOiPv/W0YGG3zRpS/78t1VC9269177syUsS8vdLQik5dkHvi2MzJDXCZR3/95v+khaLhRnnXt0j57nMujUZPC2TNKnnaPnvaZP43g+Py4RQAABBBCoSSCrqV9furVipL4vyTaUp3mYS8wti3nyzH0hAfvDEHudfKv4t8IKooaKQuFKGyiR2Iu0XFkL8vgkUHy6yjUEEEAAAQQQQAABBPwVoEDL37Uj84gFNpLTTsTTr33qfIleO3F9A/z1r6y+zum5IoEdTnNYkWRF3XTz4cyOZFWmyS8VdXljN1aw1PaRsz5P8KNBUn6TppWc1uOteVrhV/fo58Hn43EbAQQQQACBAATuBzCHVadwrB0PVt058P36mp/5xNp2NfHtWCfPvK8VeKtHzouy7PnRV4wVM4WrbaDEXruaHHlFKZBHOWsmjQACCCCAAAIIIBCcAAVawS0pE4pBQF9ud2KYJ3NEYFmBjfJ0f9l92L4FgfQ969QC+21Ddv94dlCqQEnbndy27YqPn1j/Lhcs2dG0dv54tq/TEXbLtPw+ScqlvmC04q4ySb47K8ySpxV+rWjFbggggAACCLgskLmcXM25WaGFvZflZ/z10JkeMqdYWxbrxJn3FwJXFWV9sZHDd/SVW8yvZYeXhtQQQAABBBBAAAEEEEDAV4FNXxMnbwQQQKAmgTc19Uu3DQioeDFrYBiGWFMgLVP7Umu4ZjfsXoOAFSjpVKG95N2/DnTKvwMNsVXBMHaav6HLhVmfz3F+JEV7jg7t1KnJu81ekmxkuv1lS09nSZlMzO7LB7kHAQQQQACBIAX0czHaNtDMi2hnv9jEZ9qsr/h1sc2D28peH+PgZsWEFhWwz5RGCnsO2GvB52b5DxVPfJ4EuQcjUAQzEyaCAAIIIIAAAgggELUABVpRLz+TRwABBMIR+HDavH92wplR0DOJ+ZQ4zi/s/KhPAxUmDZO/NvsqqDtQ0iu8tspjneZvlHz1fuTzkaTmuecysKAhgAACCCCAQJJkkSJY4YUVK9BuFxhrk9eKB7dvGtwWWXAzYkK3CZxog9E8Cl2G1CjQCmk1/Z5L4Xf6ZI8AAggggAACCCCAwAcBCrR4JiCAAAIIBCLwTxbIRKKYxnTvccYRh9xe6nlhkn0gPzwrgNSpKTfKpDc/zW5P9188upad+mKio24Vp2kyScrN8fwoVG5PkuwQQAABBBBAYBUBex8QYzuIcdJrzNm8YizQivX1scZTxdtdXynzkSJXhNpmmpjN82GoE2ReCCCAAAIIIIAAAggggECTAhRoNanNWAhUJ8DRZ6qzvNSTjvYyuXQHN/wRSJOeTjNG80XA1ivsD7J9WYmF8rxwyr+FtmcjBBBAAAEEEAhaYCfo2V09OStQ4HfFq22uu7fQA08VT67bIND77Y8YOopCQQtP4ERTGipGipkihpZrkg9jmChzRAABBBBAAAEEEEAAAQTqFtioewD6RwABBLwSKNNYPmDzalkWSTbVkX0W2Y5t3BCwIzG5kQlZIIAAAggggAACCCwhkC2xbUibDkKaTINzGTU4lktD8buOS6tRTS5v1M23io5iqJgpYml5LBNlnggggAACCCCAAAIIIIBA3QIUaNUtTP8IIIAAAk0J3G9qIMZZX2B+mrz1O6IHBBBAAAEEEEAAgSYFYiw8eS3goknkgMYyt1cBzWfRqcT4OlnUxqft7DTu9vztKjLFWBFjKzRps6AhgAACCCCAAAIIIIAAAgisKUCB1pqA7I4AAggg0L7AdO/HTvtZkMGSAhTULQnG5ggggAACCCCAgAMCHQdyaDqFUdMDBjbeMLD5LDIdCrQWUXJ3mxOl9lTRUfQVhSL2NokdgPkjgAACCCCAAAIIIIAAAlUIUKBVhSJ9IIBAOALp6SycycQ0k/edmGYbylyn2cF2KHNhHggggAACCCCAQCQCsRWeWKHGOJK1rWuaE3VsjjE1fs/xc7XtefqdoqMYKGYK2geBAggEEEAAAQQQQAABBBBAAIH1BSjQWt+QHhBAICSBMrEPj2neCaQd71Im4SR5t9mDAQEEEEAAAQQQQMArgY5X2a6f7Hj9LuhBAsPIFDhasF8L/kbpfqvoKEYK2pcCxZd3cQ8CCCCAAAIIIIAAAggggMCyAhRoLSvG9ggggAACDgqkHQeTIiUEEEAAAQQQQAABBEIT2AltQrfMhwKtW4AWfDhfcLuQNtsOaTKBzsUKs75RZApe60KgIYAAAggggAACCCCAAAII1CtAgVa9vvSOAAIIIIAAAtcJpEnvuoe4HwEEEEAAAQQQQMA5gdjeu73VCuTOrYKfCU2U9omfqa+cdWyvl5WhWtjxYmFW3sL4DIkAAssLZMvvwh4IIIAAAggggAACCLgnQIGWe2tCRggggAACSwpsJKedJXdhcxcEyo1tF9IgBwQQQAABBBBAAIGFBGJ775YvpMJGiwrE5hnb62XR50Gb21GY1aY+YyOAAAIIIIAAAggggAACCCQUaPEkQMAzgenejx3PUiZdBGoXKJO0U/sgDIAAAggggAACCCCAQNwCncimP4lsvnVPN697AMf67zmWT+zp/CKATJEraAgggAACCCCAAAIIIIAAAgi0IkCBVivsDIrAOgLvO+vszb4IIIAAAggggAACCCCAAAIIrCDQWWEfn3fJfU7ewdwpeHNwUSJKaRbRXJkqAiEKZCFOijkhgAACCCCAAAIIxCdAgVZ8a86MEUAAAQQQQAABBBBAAAEEEEAAAQRuFqCg6GafZR+NzTNbFojtEUAAAQSuFehc+wgPIIAAAggggAACCCDgkQAFWh4tFqkigAACCCCAAAIIIIAAAggggAACLQlkLY3bxrBvNShH3Kle/rj6LukRAQQQiFYgpsLXXrSrzMQRQAABBBBAAAEEghKgQCuo5WQyCCCAAAIIIIAAAggggAACCCCAAAJrCsT0pfeaVEvtXiy1NRsjgAACCNwkEFMh8a4gOjdh8BgCCCCAAAIIIIAAAj4IUKDlwyqRIwIXBLpHz/MLN7mKAAIIIIAAAggggAACCCCAAALVChTVdkdvc4GYCt/us+oIIIAAApUK7FfaG50hgAACCCCAAAIIINCCAAVaLaAzJAIIIIBAtQJlkubV9khvCCCAAAIIIIAAAggg8JlA77PbId8sQp4cc0MAAQQQQMBDgQMPcyZlBBBAAAEEEEAAAQQuCVCgdYmDGwgggAACCCDQmECaxPQX9I2xMhACCCCAAAIIIFCTwFZN/brY7czFpALIKQ9gDkwBAQQQQKAdgR0NO2hnaEZFAAEEEEAAAQQQQKAaAQq0qnGkFwQQQAABBBBYVqA85YuvZc3YHgEEEEAAAQQQQKAJAf6QoAllxkAAAQQQWFfgzbodeLb/E+Xb8yxn0kUAAQQQQAABBBBA4KMABVofKbiCAAIImEDa0T807wROc+9SJuEk2Ugp0OJ5gAACCCCAAAIIIIAAAqEKZKFOjHkhgAACLQrkGpsirRYXgKERQAABBBBAAAEEVhegQGt1O/ZEAIEgBdJOkNMKfVIU+ni5wt3fn3FkAi9XjqQRQAABBBBAAAEEEFhJgPf/K7GxEwIIIIDABQE75XKu2L9wH1cRQAABBBBAAAEEEPBCgAItL5aJJBFAAAEEbhKg0OcmHWcfO3E2MxJDAAEEEEAAAQQQ+Fyg8/kd3EZgBYHZCvuwCwIIIIDA9QKxFr5akdaviqFi+3oeHkEAAQQQQAABBBBAwC0BCrTcWg+yQQABBBBYXYCCn9Xt2tizaGNQxkQAAQQQQAABBBBYSaCz0l7+7kQhkb9rR+YIIIBATAKx/7x6pMUuFAMFhVpCoCGAAAIIIIAAAgi4LUCBltvrQ3YIIIAAAgsKpGkyWXBTNnNAoEzS3IE0SAEBBBBAAAEEEEAAgasE+N3iKhXuQwABBBBwTaBwLaEW8rGjaT1RFIqBoqOgIYAAAggggAACCCDgpMCmk1mRFAII3CJQHidJunvLRjy8gkCalNkKu7FB/phxAABAAElEQVSLAwKnZTrR+j1wIBVSWESAgrpFlJzaZpodbCfvNntJspFZYhtp2SvLZFvFkTN7/dl9SXKaJ3ffT7r5cPbhNv8igAACCCCAAAIIIIAAAggggEBNAkVN/frY7XmhlhVrvVaMFGMFDQEEEEAAAQQQQAABZwQo0HJmKUgEgWUEUr74XoaLbSMRUGFIktqHMDQfBL76X+5DmrHnON37saOiq36anO4n784Lg8szFhVnfbz8VByp1+C7O0mx9/i4TPVhaLk57h79VHzYkn8RQAABBBBAAAEEEEAAAQQQQKBCAT4jvhrT/oDT4q3CirTOQ1dpCCCAAAIIIIAAAgi0J0CBVnv2jIwAAgggUKFA9+h5XuwdVtgjXdUnUB5zhKX6dKvoefr1YW+jTAZl+Y99oKmWfrhY+N90Ny2TF0nyz4uTvcevTpPNge+FWp+OIHYZwf7vuXwPtxBAAAEEEEAAAQQQQAABBBBoRGDSyCj+DrKl1B/Ow4q1csV5sdZM12kIIIAAAggggAACCDQqQIFWo9wMhgACHgj0PMiRFK8R0KnWXuuoPvOCkms24u7WBco0zVtPggSuFDgrQvrrziA9TR7ND5B15XbL3Fkm6cM0+efh9N7hL8lXfw98Kc47O3pY+n4/LdN9zbeXvEvsg90v2rww9ET//0xOS33Qe/fvsS9z/GIy3IEAAggggAACCCCAAAIIIOCbwIkS3vEt6Rbytd/p7TNDi5eKY4UVa+Xz0AUNAQQQQAABBBBAAIF6BTbq7Z7eEUAAAe8ErvwC3rtZRJrwaVLmkU7ds2lToOXigtlRs9J3dyY68tWjOvKzfq1/G6eO/qvqc7p32NcpGicqKpuqOOuF+r2vuO1nw44Vh+o4Yy81x/+e3DscT/ceZ1XlRD8IIIAAAggggAACCCCAAAIIXCNQXHM/d98ssKuHnyh+U8wUVqx1oHD6MwvlR0MAAQQQQAABBBDwWIACLY8Xj9TjFdDRSPJ4Z1//zM+OIFP/MIxQh0C5aR+m0NwWeNv942fWybE1sqIkHTXrT6W1U3NqOxont/FqHmfp7q2gSkfDKqzISqd0tA9qV24firXS39Sf5vpjZ+WO2BEBBBBAAAEEEEAAAQQQQACBmwXymx/m0QUE7I+yHiheKP5UFIqRoq/oKGgIIIAAAggggAACCFQiQIFWJYx0ggACQQm82+QvpTxd0O7RT0WSlHaIcpqjAmlSUpzl2NqcFWd9OLx/U5ltWRGUK0VaVpRrR7xKk9T+arbqArX7diSu6b3HB03hMg4CCCCAAAIIIIAAAggggEBUApOoZtvMZO2zgYeKl4qpolCMFPuKbQUNAQQQQAABBBBAAIGVBCjQWomNnRBAAAEEXBUo07MPTFxNL/q8TtONcfQIDgG0UJz1cfZnRVr3frAPN1trH07ruJnbEa/qTMJOlXh22kMVg9U5Dn0jgAACCCCAAAIIIIAAAghEJzCJbsbNT/i8YOtXDf1fhZkPFZmChgACCCCAAAIIIIDAwgIUaC1MxYYIuCRQFi5lE1wuadILbk4xTeir96OYpuvZXE84vaE7K3ZWnNTskbO+mHxaliPL44sHGrjjbP463eK6pzNcNNWz0x6+28w5je6iYmyHAAIIIIAAAggggAACCCCwgEChbd4usB2bVCewq64eKX5TlIqx4kDRUdAQQAABBBBAAAEEELhWgAKta2l4AAGXBSjQqnV1yo3tWvun81oFuvlwptPovap1EDpfSaBM0tFKO7JT5QJWJJSenn2AWHnfS3a4lZ6WoyX3WXvzT8VZydbanS3VQbqbUqS1lBgbI4AAAggggAACCCCAAAII3CqQ37oFG9Qp8ECdv1BwOsQ6lekbAQQQQAABBBAIQIACrQAWkSkggEC1Ahtp2crRXKqdRdy9nSac5tDNZ8DGyM28Iszq3b/sLzvtEP0OtHR3uvfDoKlE5sVpucZruDjrfIbp7sZfd0bnt7hEAAEEEEAAAQQQQAABBBBAYE2BfM392b06Afus5aHiV8V/FbnCPoPh82Yh0BBAAAEEEEAAgdgFKNCK/RnA/D0V2Cw8TdyLtHUaqm0vEiXJawW6R89zHWH8+NoNeKBxATuqWffop6LxgRnwC4Hp3o8drceTLx5o8Q7lc9DUqf/Sd3fGmmpLxVkfkO10h00WpbW4tAyNAAIIIIAAAggggAACCCBQv0Be/xCMsKLAfe33QvGnolAMFfsKGgIIIIAAAggggECEAhRoRbjoTNl/AYocal9D+8WZ5rmATqdnH3jQHBE4TTYHjqQSfRobyXsX12Ir+XBUr1rXZ3rv8YEGcOL/eCuSs2K5WidM5wgggAACCCCAAAIIIIAAAjEITDTJkxgm6vkcd5T/I8WviplirOgrthU0BBBAAAEEEEAAgQgEKNCKYJGZIgIILC/Q1JFcls+MPRYV6B49G2lbPpxaFKzG7Th6Vo24S3Zt/7epeHF/yd0a2dyOolXnQGenNizTQZ1jLNt3mvwzWnYftkcAAQQQQAABBBBAAAEEEEDgCgEr9qH5I7ClVB8oXir+q7D1s89FOgoaAggggAACCCCAQKACFGgFurBMKwYBTt9W6yq/2+zV2j+dNyJQJsmgkYEY5EYBjp51I0+zD767s68B7UNAF9vW9N4Pll897cMRulyb+/3p3uOsngnTKwIIIIAAAggggAACCCCAQEQCo4jmGuJUrVjrhWKqmCgOFB0FDQEEEEAAAQQQQCAgAQq0AlpMphKbQDqLbcaNzjdNeo2Ox2C1CMyPovWmls7pdCEBjp61EFNjG22kyX5jg60w0EZ5Wlt+dR+ha4Xpnu2ykaYHq+7LfggggAACCCCAAAIIIIAAAgjMBSa65EjyYTwddjWNz4u1tsOYGrNAAAEEEEAAAQTiFqBAK+71Z/YeC+iL5sLj9D1IPe14kCQpLiBQJuVggc3YpB6Bt6d331N8Uo/tSr2WZZKttGNDO+n0i7XkN9077GsKWw1NY6lhtCYPpns/dpbaiY0RQAABBBBAAAEEEEAAAQQQ+FJg9OVd3OO5wHmx1n81j7Gi7/l8SB8BBBBAAAEEEIhagAKtqJefyfsscJpsFD7n73ruackRtFxfo0Xz6x49z+0oTotuz3bVCZRpOejmw1l1PdLTOgLTrw972t/JIqUL89qZZgfbF25XctX1I4cl6fv9SiZKJwgggAACCCCAAAIIIIAAAjELDGOefARzf6A5vlTMFCNFT0FDAAEEEEAAAQQQ8EiAAi2PFotUEbgkkJ7aL2K0+gT4Bbc+28Z7nh/F6W3jA0c9YHnc/eP5MGoC1yZ/Wm67ltKV+bzbrPz/X9ePHLZR05HDrvTlTgQQQAABBBBAAAEEEEAAgVAFZpoYf6QY6up+mpf98d1DxZ+KiaKv8OMzHyVKQwABBBBAAAEEYhagQCvm1WfufguUZ798+T0Ht7Pf4pRTbi/QMtnZUZzKNO0vsw/bridQbuC9nmAde29kdfTqep8+HDnM9QIy19eY/BBAAAEEEEAAAQQQQAABBD4KDD5e40oMAruapB1Vq1AMFR0FDQEEEEAAAQQQQMBRAQq0HF0Y0kLgVoGN1P4iilanQHraq7N7+m5WoPvHz2NOddiMeZmkT7u/P5s0MxqjhCewkVU6pzLtVNpfPZ1t1XFqx3pSpVcEEEAAAQQQQAABBBBAAAGHBQrlxlG0HF6gmlKzo2o9UkwVY0WmoCGAAAIIIIAAAgg4JkCBlmMLQjoILCpA8cOiUmtsVyYUaK3B5+Ku81MdnriYW0A5veke/TwIaD5MxXcBX/4vr+HUjr4vHfkjgAACCCCAAAIIIIAAAgisJDDQXm9X2pOdQhB4oEn8psgVmYKGAAIIIIAAAggg4IgABVqOLARpILCiAL9orwi3yG462lK2yHZs44/A2akON5J9Zcxrp55le1ve/dt8aQisIVAWa+zMrggggAACCCCAAAIIIIAAAgjELlAIYBg7AvNP7suAQi2eCAgggAACCCCAgEMCFGg5tBikgsAKApMV9mGXxQV6i2/Klr4I2NHnyiQ58CVfn/IsN5LMiuB8yjmuXH0pfPIlz7iePcwWAQQQQAABBBBAAAEEEEDAK4GBsj32KmOSrUvgvFBrrAE6dQ1CvwgggAACCCCAAAK3C1CgdbsRWyDgrICO8FQ4m1wYiW1N937shDEVZnFRoHv0bFQm6dOL93F9PQEVvX3HqVfXM6x/b09+ZmykFPnV/2RgBAQQQAABBBBAAAEEEEAAgfAF+uFPkRkuIWCnPpwqBoptBQ0BBBBAAAEEEECgYQEKtBoGZzgEqhQ4TTaKKvujr6sE/smuupf7/BfoHv08UJHjK/9n0v4MyrT83ore2s+EDG4UuPt+cuPjjjxIoZ8jC0EaCCCAAAIIIIAAAggggAACvgvY5wDf+z4J8q9c4Il6tOdGVnnPdIgAAggggAACCCBwowAFWjfy8CACjgukZ79IOZ6k5+mlSc/zGZD+DQI7R8/7FGndALTAQ+bX/eP5cIFN2aRlgfnpJ09aTuO24d/ctsHSj6ens6X3aWWHzaKVYRkUAQQQQAABBBBAAAEEEEAgZAH7zIY/UAx5hVeb2452+01hz4/t1bpgLwQQQAABBBBAAIFlBSjQWlaM7RFwSaD05Utnl9CWyyUty2y5PdjaNwEr0kqS8ti3vF3I14qzPvi5kA05LCJQpsl4ke3a2kZHY6s+v9KPYubu0U9FW+6MiwACCCCAAAIIIIAAAgggELTAgWbHZ19BL/HKk3ukPSeK3so9sCMCCCCAAAIIIIDAwgIUaC1MxYYIuCfQPXqeu5dVaBmlu9PsYDu0WTGfywKdo+c9jqR12eS2WxRn3Sbk6ONpMnI0sw9plZvjqvPz5Gdl9UcOqxqS/hBAAAEEEEAAAQQQQAABBHwVmCnxTEGRlq8rWG/edjStXNFX0BBAAAEEEEAAAQRqFKBAq0ZcukagIQHXT1fVEEONw/z1r6zG3unaEQFOd7j4QpRJ+pQjZy3u5dKW3d+fTZSPqz833tR3FCm3j5Kn11Tu0vOEXBBAAAEEEEAAAQQQQAABBIIToEgruCWtdEJb6u2lYlBpr3SGAAIIIIAAAgggcEmAAq1LHNxAwEuBwsusvUqa0xx6tVxrJGtFRzoF3C9rdBH8rmWSfNc9+nkQ/EQDnqDW0Mn1K5Oytrz0uh45vaQbNZza0ekJkxwCCCCAAAIIIIAAAggggEALAhRptYDu2ZBPlO/Is5xJFwEEEEAAAQQQ8EaAAi1vlopEEbhagKNuXO1S5b1pSYFWlZ6u99X949mBFSEpz7eu59pwfm9VQPNN9+jZqOFxGa5igfkaunYULR09q8bT9tZw6sTqlqU8nh/ZrLou6QkBBBBAAAEEEEAAAQQQQACBqwUo0rrahXs/CTzU1dGnm1xDAAEEEEAAAQQQqEqAAq2qJOkHgdYEyqK1oaMZON2d7v3YiWa6TDSxApZyI8lE4VoRS0urUx6Xyf/1ai2gaWlmsQ6rYru+S3PX6+2gznzs1IlpUr6qc4xV+1ah9XDVfdkPAQQQQAABBBBAAAEEEEAAgRUErEirp3Dy9+QV5sMu1QtQpFW9KT0igAACCCCAAAIJBVo8CRDwXoACrWaW8J+smXEYxRUBO6JNeffvXpomr13JqY087JSPnaPnKs76qWhjfMasR8CK7Vw5nacKlJ42cQSp02RzUI/mWr2ecFS6tfzYGQEEEEAAAQQQQAABBBBAYHWBvnb9TsFR5Fc3DHlPK9Kq9Q/qQsZjbggggAACCCCAwFUCFGhdpcJ9CHgkwBFtmlmsjTTZb2YkRnFJoJsPZzt/PNsv0/Rb5RXbh1UnZ6c01CkfXVoTcqlOwE7nmSTlcXU9rtSTTm3482ClPZfcyYoMXSlKO09d/7fw+jrH4BIBBBBAAAEEEEAAAQQQQKANgZEGzRRtfz6gFGgOCrxQTpmDeZESAggggAACCCDgpQAFWl4uG0kj8LlA61+wf55QcLfLkl9Eg1vUJSbU/ePnsY6m1XH1FGlLTGWhTe2IRnb0MApAF+LyeqPy7vusvSItnTrz7t/NFr9+9fdAC+bEqUvt6Hz2f4vXTyCSRwABBBBAAAEEEEAAAQQQCEFgokn0FE9DmAxzqFzAPrvYrrxXOkQAAQQQQAABBCIUoEArwkVnyuEJpEliv0TT6hXYmu49zuodgt5dFjg7mtbR874dVaq9gpbahd6Uyf917YhGNt/aR2OA1gVsndsp0rLirPdZ08+zs/kmZb91eBWJnX71twt5OEBBCggggAACCCCAAAIIIIAAAo4IDJTHfxRvHMmHNNwQ2FIaIzdSIQsEEEAAAQQQQMBvAQq0/F4/skfgTOA02SigaEAgTfcbGIUhHBewo0p1jp73yiT5TqmeOJ7uoumpMKv8pnP0LLPTwC26E9uFIfCpSKuZD2DtyFFtFGedr5a9huev3/O7mr58W24k+00XpzU9ScZDAAEEEEAAAQQQQAABBBDwUsD+EDhThPS5l5cL4VjSD5QPn407tiikgwACCCCAAAL+CVCg5d+akTECVwic5lfcyV0VC6Qlv4RWTOp1d92jZyMVNHU8L9S6UJj1PPd6QUh+LQErFrICPTu95Vod3bJzmZbf7/zxrPXiJHv9tlSkZcVZWff3Z/aBNw0BBBBAAAEEEEAAAQQQQAABVwVGSqynsM8J3ipoCAxFsA0DAggggAACCCCAwOoCFGitbseeCLgjcPc9X/Q2sxo7068P7YMJGgIfBT4WaqXpt3ZkoI8POHwlTcpXn46YRWGWw0vVeGp2eksVENVxOgMVA+r0mX88tw/znGgtFGlRnOXEypMEAggggAACCCCAAAIIIIDAggIzbTdQdBQUagkh8raj+R9EbsD0EUAAAQQQQACBtQQo0FqLj50RcEPgw2mSymM3sgk8izLpBz5DpreiQPePn8d2ZCArQpkfhehkxa5q2q08tqMXlXf//vfO0fO+neatpoHo1nMBO7rTh6Npld+sW3R4uRjQvdNnfijSKr/RktX9en2j116HI2d5/uIgfQQQQAABBBBAAAEEEEAgToHPC7Xq/h06TmU/Zm0FWtt+pEqWCCCAAAIIIICAewKb7qVERgggsIpAmiQTna5pd5V92WdxgfTDaQ75S6HFyaLbsnt0VoQy0MQHZ0dcK8tMz5t+kqSNvz6tuOY0KfOk3BzP84puPZjw6gLzIr58mh1sJ+/u7G8kpZ0CMVOP9heT17Ty2H4enSZpntz9e9zRqROv2dCZu22emmMv+evOQK/VRxUn9laFkQOXjhxW8fzoDgEEEEAAAQQQQAABBBBAIB4B+x1/MI++Lu0z0sY/79KYtPYEtjR0XzFsLwVGRgABBBBAAAEE/BWgQMvftSNzBC4JnKbJRF8sP7x0JzfqEDg7zSFHQamDNrw+58+TiWY2PCty+etfWVImPR1VKNN9PYV9qFFVO1FB1uS0TDXeac4RsqpipZ8PR2lMRpKwOGtnxYen5fb57STZLHwuApzP8WC69+NwI3k/UCHauj9P36qPYXL3f8N535+ouIYAAggggAACCCCAAAIIIICA/wIjTcHCPt86UOwrqvycS93RHBWw9R46mhtpIYAAAggggAACTgtQoOX08pAcAksIpDpaiQ6hRWtA4MNpDu0XURoCCwvMizTG2sHirH04MtFmT0fX6nwI/fuheOvs8ev+UeFHfvaYCrKS8nSW3H0/oQjkOi3ur0Mg1CLVeZFZX4VagyR9v7/s0e/OjlpX6jWuo4fxmqzjmUefCCCAAAIIIIAAAggggAACjglMlE9fsa3YVxwoOKqWEAJudmR1W+txwHNkaggggAACCCCAQC0CFGjVwkqnCDQvYF+WF3uHzQ8c4Yj6wv78w4YIZ8+UqxSYF3DkVfZJXwggsL7AvFBrqJ4+HP3unQopU/1VcLmx/WXvZZEkpY4g9jz/8jHuQQABBBBAAAEEEEAAAQQQQCAKgZlmOZpHR5cHin2FFfPQwhOwtR2HNy1mhAACCCCAAAII1CtAgVa9vvSOQNMCbzTg/aYHjXC8nene44wv4yNceaaMAALRCVwopMyjmzwTRgABBBBAAAEEEEAAAQQQQGB5gUK7WIGWRU/RV+wrKNYSQiDN1pOGAAIIIIAAAgggsKTAxpLbszkCCDgs8PG0Zw7nGEpq+s+zH8pcmAcCCCCAAAIIIIAAAggggAACCCCAAAIIIFCDwER9Hig6iv8oflGcKGh+C2wpfYq0/F5DskcAAQQQQACBFgQo0GoBnSERqE0gTewXXloDAiqG4xfQBpwZAgEEEEAAAQQQQAABBBBAAAEEEEAAAQSCELDPrg8UHUVX8b3ijYLmpwCfj/u5bmSNAAIIIIAAAi0KUKDVIj5DI1C5wFf/yyvvkw6vE9ia7h32r3uQ+xFAAAEEEEAAAQQQQAABBBBAAAEEEEAAAQSuFCh071CRKf6t+FbxSnGioPkhkPmRJlkigAACCCCAAALuCFCg5c5akAkCawt08+EsScrjtTuig4UEUk5zuJATGyGAAAIIIIAAAggggAACCCCAAAIIIIAAAtcI6DPtZKzoKzqK/yi+V7xW0NwV2FFqHXfTIzMEEEAAAQQQQMA9AQq03FsTMkJgLYEyTfO1OmDnZQTuT/d+7CyzA9sigAACCCCAAAIIIIAAAggggAACCCCAAAIIXCsw0SNDxb5CfyObfKN4qnijoLkl0HMrHbJBAAEEEEAAAQTcFqBAy+31ITsEVhCgQGsFtNV3Sf85WH1n9kQAAQQQQAABBBBAAAEEEEAAAQQQQAABBBC4QSDXYwNFpqBgSwgOtcyhXEgFAQQQQAABBBBwXoACLeeXiAQRWFLgq//lS+7B5msIpGXSn2YH22t0wa4IIIAAAggggAACCCCAAAIIIIAAAggggAACiwnk2mygyBQUbAmhxcYRtFrEZ2gEEEAAAQQQ8E+AAi3/1oyMEbhRoJsPZ0lSHt+4EQ9WKbCVvLuzX2WH9IUAAggggAACCCCAAAIIIIAAAggggAACCCCwkECurQaKTHFesPWLrvMZuRBqbhRo1QxM9wgggAACCCAQlgAFWmGtJ7NB4EygTDbGUDQnkCblQXOjMRICCCCAAAIIIIAAAggggAACCCCAAAIIIIDANQK57rfPa6146N+K7xSvFG8VtGoFttTddrVd0hsCCCCAAAIIIBCuAAVa4a4tM4ta4DSPevqNTz7dne49zhoflgERQAABBBBAAAEEEEAAAQQQQAABBBBAAAEErhOY6YGRoq+wQqL/KH5RnCho1QhYIRwNAQQQQAABBBBAYAEBCrQWQGITBHwT6B49z5UzfxHU4MJtpOlBg8MxFAIIIIAAAggggAACCCCAAAIIIIAAAggggMByAhNtbp/jdhRdxfeKYwVtdYHO6ruyJwIIIIAAAgggEJcABVpxrTezjUggTZM8oum2PtWyTB5M937stJ4ICSCAAAIIIIAAAgj4KMBfnfu4auSMAAIIIIAAAggg4LNAoeSHCnsvbsVaHFlLCCu0zgr7sAsCCCCAAAIIIBClAAVaUS47k45B4DQp8xjm6dIcN5L3A5fyIRcEEEAAAQQQQAABbwS2vMmURBFAAAEEEEAAAQQQCE+g0JTOj6z1ra6/Cm+Ktc2oU1vPdIwAAggggAACCAQmQIFWYAvKdBD4KFBujj9e50ojAmWSPuQoWo1QMwgCCCCAAAIIIIAAAggggAACCCCAAAIIIFCHgH2u3lfYUbWeKt4qaNcLdK5/iEcQQAABBBBAAAEELgpQoHVRg+sIBCTQPfqpSJLyOKApeTKV074niZImAggggAACCCCAgFsCHbfSIRsEEEAAAQQQQAABBKIWKDT7gaKj+E5xoqAhgAACCCCAAAIIILCyAAVaK9OxIwLuC5RpmrufZVgZpkl5MM0OtsOaFbNBAAEEEEAAAQQQaECg08AYDIEAAggggAACCCCAAALLCcy0+UjRUTxVcEQtIVxo9y9c5yoCCCCAAAIIIIDADQIUaN2Aw0MIeC+Qnv3i6P00PJvAVvLuXwee5Uy6CCCAAAIIIIAAAu0LUOTf/hqQAQIIIIAAAggggAACNwkM9GBH8UpBQwABBBBAAAEEEEBgKQEKtJbiYmME/BLo/v5sooz5i56Gl42jaDUMznAIIIAAAggggEAYAr0wpsEsEEAAAQQQQAABBBAIWmCm2fUV3yhOFDQEEEAAAQQQQAABBBYSoEBrISY2QsBfARULjf3N3tvMOYqWt0tH4ggggAACCCCAQGsCndZGZmAEEEAAAQQQQAABBBBYViDXDvZHFm+W3THA7TsBzokpIYAAAggggAAClQtQoFU5KR0i4JbAabpBgVYLS8JRtFpAZ0gEEEAAAQQQQMBvgY7f6ZM9AkEJ2JetNAQQQAABBBBA4DaBmTbIFLGf8rAjAxoCCCCAAAIIIIDALQIUaN0CxMMI+C7Q/eNnK9DiNIfNL+TWxrvNYfPDMiICCCCAAAIIIICApwL3Pc2btOMQmMQxzY+z3P54jSsIIIAAAggggMDtAn1tEnuR1u1KbIEAAggggAACCEQuQIFW5E8Aph+HAKc5bGedyyR9ON37sdPO6IyKAAIIIIAAAggg4KFAz8OcSTkOgVkc02SWNQtQ+FYzMN0jgAACCLQq0NfonO6w1SVgcAQQQAABBBBAwG0BCrTcXh+yQ6ASAU5zWAnjSp1sJO8HK+3ITggggAACCCCAQLwCMReCUKAV7/OemSMQg0Bs/8fF/PMshuczc0QAAQSuEtjXnZzN4ioZ7kMAAQQQQAABBBBIKNDiSYBABAKc5rC9Rf5wFK3HWXsZMDICCCCAAAIIIOCdwMS7jKtLOKuuK3pCAAEEEGhZIOafZy3TMzwCCCDQmoAV5x60NjoDI4AAAggggAACCDgtQIGW08tDcghUJ8BpDquzXLanNEkHy+7D9ggggAACCCCAAAJRCmRRzppJI+CeQOZeSmSEAAIIIIAAAp4IjJTniSe5VpVmVlVH9IMAAggggAACCIQsQIFWyKvL3BC4IMBpDi9gNH/1/nTvsN/8sIyIAAIIIIAAAggg4JnAjvLteJYz6cYjwOl64lnrumaa1dUx/SKAAAIIIOCYwMCxfEgHAQQQQAABBBBAwAEBCrQcWARSQKAJAU5z2ITy9WOkSTKYZgfb12/BIwgggAACCCCAAAJzgSJyif3I58/03RWYuJta5Zl1Ku+RDhFAAAEEEEAgJoFxTJNlrggggAACCCCAAAKLCVCgtZgTWyEQhACnOWx1GXeSd/86aDUDBkcAAQQQQAABBPwQKPxIs7YsKdCqjZaOEVhYoLPwlmy4jEC2zMaeb/vG8/xJHwEEEEBgPYGZdn+9XhfsjQACCCCAAAIIIBCawGZoE2I+CCBwvcBpkox0JKeH12/BI3UKqEDuyXTvx1H36KeiznHoGwEEEIhFYHrvBxUxlFlaJj3N2WLrirnb6ZgmZZpMkiTN50eUvGIz7kIAAQScEbivTDqKQkFDwCWBmUvJ1JyLva+gVS+wXX2X9IgAAggggICzAvocInngbHYkhgACCCCAAAIIINC4AEfQapycARFoT6B79DzX6CftZcDIafLPCAUEEEAAgdUFVOjaOdl7PCr2DmdpWf6q4qxH6s2KGa4qzrKB7P77tp1tb/tN7x0OrR97kIYAAs4KHDubWTOJ9ZsZhlEQWErAvmSMpdn7h04sk21wnrsNjtX2ULO2E2B8BBBAAIHWBfLWMyABBBBAAAEEEEAAAacEKNByajlIBoH6BXQEkXH9ozDCDQL3Pxzx5YYteAgBBBBA4AuB88IsFbpOyyS1o0FeV5D1xb6f3bF1VqylfqzQa5odbH/2ODcRQMANgdi/2O67sQxkgUDUAr2oZ1/95LPqu3S6x4nT2ZEcAggggEATAkUTgzAGAggggAACCCCAgD8CFGj5s1ZkikA1AuX/DavpiF5WFdARXCgIWBWP/RBAIEqB6b3HByrMmswLsyozsP7Sd3eK6d5hv7JO6QgBBKoSKKrqyNN+dpR339PcSTtcgdgKTijQqva5jGe1nvSGAAIIIOC+QOF+imSIAAJzgW1dWtAQQAABBBCoVYACrVp56RwB9wS6Rz8VSVLGfsqYthdmK/nrzqDtJBgfAQQQcF3Ajm5lR7lKy/SFcl31iFm3TXMrTZKXNs5tG/I4Agg0KlA0Opqbg/XdTIusIhaYRTb3LLL51j3d2DwndYPSPwIIIIAAAggggMDaAlaUNVAUil0FDQEEEEAAgVoFKNCqlZfOEXBTQEcMGbqZWTxZ2em1pnuPs3hmzEwRQACB5QSsOCt9t5lXfdSs67KwcYq9xxNOeXidEPcj0LhA0fiI7g14Xyntu5cWGUUsUEQ2d3sN0qoTyKrryoueZl5kSZIIIIAAAnULnNQ9AP0jgMBKAhcLs56oh7r+MHSl5NgJAQQQQCBcAQq0wl1bZobA9QJ3/x7rwbfXb8AjTQikScqpDpuAZgwEEPBO4Lw4K0nShv9yLd21ojCKtLx7ypBwmAJFmNNaelbDpfdgBwTqEyjq69rZnvedzcyvxHpKN7YvvSZ+LRHZIoAAAgjUJFDU1C/dIoDAagLb2m2gKBQUZgmBhgACCCDQrAAFWs16MxoCTgh08+EsTcqxE8nEncQOpzqM+wnA7BFA4GqB9N0d/YxqujjrPJd0d+OvO6PzW1wigEBrAnlrI7s18I7SGbiVEtlELnAc2fz3I5tvXdPt19Wxw/3OHM6N1BBAAAEEEEAgTIFOmNOqZFZmM1QUCgqzhEBDAAEEEGhHgAKtdtwZFYHWBU6TZNR6EiSQcKpDngQIIIDAZYHp3g8D3XP/8r3N3irL5MH03uODZkdlNAQQuEKAI75+QLEPj3tX+HAXAm0IxFZ0st8GcoBjxub4JsA1ZEoIIIAAAggg4L5Ax/0UG8/QTEaKqeKRIrajumrKNAQQQAABlwQo0HJpNcgFgQYFukfPcw130uCQDHWNAKc6vAaGuxFAIDqB6deHPR3h0QoRWm9pmb6wfFpPhAQQiFtgEvf0L81+pFvbl+7hBgLtCOTtDNvaqPYFTr+10cMY2IqzdsKYysKzKBbekg0RQAABBBBAAIHqBPid8ZNlpqu5wgqzHipoCCCAAAIIOCFAgZYTy0ASCLQjUHK6lHbgvxx1Z+Pd5vDLu7kHAQQQiEsgPT071Lgzk3YtH2dgSASB5gTy5oZyfqRdZcj7ReeXKYoEiyhmeXmS/cs3ubWkQIx+xZJGbI4AAggggAACCFQh0KuiE8/76Cv/QvGb4r6ChgACCCCAgFMCFGg5tRwkg0DDAnf/HmtETh3TMPtVw5VJ+nB674f9qx7jPgQQQCAGgeneYV/zdO2Dk/vTvcdZDP7MEQFHBSaO5tVWWg818KCtwRkXgblAEaGEvT/JIpx3FVPuqJMHVXTkWR+5Z/mSLgIIIIAAAgiEIeDa52pNqXY00FAxU7xU7ChoCCCAAAIIOClAgZaTy0JSCDQj0M2HM51KatzMaIxym0BalqPp3o+d27bjcQQQQCBEgdTR0wfpNLSDEL2ZEwKeCFCg9eVCPdFd/S/v5h4EGhPIGxvJrYEGbqXjTTaxuhXerBCJIoAAAgjULRBrwUzdrvR/vUB2/UPBPbKvGdn3W1PFI4WdnpyGAAIIIICA0wIUaDm9PCSHQP0Cp8nmoP5RGGFBga00eU/B3IJYbIYAAuEITL8+7Gk2rn5oqaNoUTwbzrONmXgmUChfjvb65aK91F39L+/mHgQaEzhubCR3BrL3KZk76XiRib2/e+hFptUmaT+3imq7pDcEEEAAAQQQQGBhgf2Ft/Rzw47SHigKxa+KGI/WqmnTEEAAAQR8FaBAy9eVI28EKhLoHv1UqKs3FXVHN2sLpLvTe4fDtbuhAwQQQMAngdLxQoP0fegfbvn0bCHX+ATy+Ka80IytSIv3jAtRsVENApMa+vShy5EPSTqUY6z/R8X6+nDoqUcqCCCAAAIIRC3QD3T2Nq+xYqp4othR0BBAAAEEEPBOgAIt75aMhBGoXqBM01g/OK0es4Ie0zJ5NL33w34FXdEFAggg4IWATvGauZxoWqb8n+zyApFb6AKT0Ce4xvwead9csb1GH+yKwCoCsb4u7UugwSpgEe5zoDnfj3DeNuU80nkzbQQQQACBLwU6X94V7D15sDPzb2JbSrnvX9pXZtzTvSPFTPFSwdGyhEBDAAEEEPBbgAItv9eP7BGoRKD7x89jdXRSSWd0UomAihVGnFKrEko6QQABLwTSXcfTjPULRseXhfQiEcgjmeeq07T/nwpFpqAh0JRA3tRADo7zRDnZF0W06wXMZ3D9w8E/kgc/QyaIAAIIILCoQGfRDdkOgYoFhupvu+I+m+rO3kta/oXiT8VDhRWd0RBAAAEEEAhCgAKtIJaRSSCwvkCZlvaml+aOwFaavB9PswNff5FyR5JMEEDAaYHp3uPM6QTnyU2/PrQPiGgIINC8QK4h3zY/rFcj2ofVvylGCt47CsHj1lHumWKgGCsmikzhWrO8Yn5d5po/r7Wrn5XmMlLE/CVarvnTEEAAAQQQMIEODAi0JGDvxUYtjb3KsD3tNFQUij8VjxQ7ChoCCCCAAALBCVCgFdySMiEEVhT46v1Ie8b8IfuKcHXulu5uvNu0X0xoCCCAQLgC6YZ9ked+Oy39yNN9STJEYBWBfJWdItzH/rK4UAwU/J8lBIebrU+mOFAMFblippgqrNjuieKBYlfRU7jYcheTaiinLY1j899uaDyfhhkrWXvextqOY50480YAAQQQuFLA1fdxVyYb8J2xnjnEfp84cHhdM+U2VBSKPxWPFDsKGgIIIIAAAkELUKAV9PIyOQQWF+jmw1mZpPaGmOaQgNbk4fTeY5d/kXJIi1QQQMBLgdLZL54vc6ae5Hk5a24hEIpAHspEGpjHlsaw4p5CMVBsK2jtCfQ0dKYYKEaKXDFT/FdhhVgvFPZFxH2Frd1VzdU1zK9KNqL7djVXM3B1fdpYipEGtedyzC2PefLMHQEEEEDgC4Hsi3vCvaNweGou51Y3m/2+Max7kAX7t/fNfcVIMVPY70P2u9COgoYAAggggEA0ApvRzJSJIoDAAgIboyT558kCG7JJgwJpmb7QKcAm3aPneYPDMhQCCCCAwEWB0pMjfV3MmesIhCMw1lTsg2Xa4gJb2tTe1x8ozG+omCho1Qt01KVFT7GtyOaXu7qsolm/LrbcxaQazsnW2BwyxUwRa7Pn/UjxIFaAC/MeX7jOVQQQQACBuAXs52NV7wd9kCx8SDLSHB9p3j1FX1Eommr2GsguREyvh6aMGQcBBBBAwEOBDQ9zJmUEEKhJoHv0U5Em5auauqfbNQTSJB1Pvz60X6RoCCCAAAIIIIBAbAKFJsxpo1Zb9S3t9lDxp6JQHCh4TymEJVum7S0GiqEiV0wUpWKq+E3xQvFEcV9R5ZcP2+rPxWbzj/V0MRfXw9Y6V/Qu3hnRdXt+5ooHEc35uqm+1QP5dQ9yPwIIIIBAdAL70c2YCbssYL+jTBUjRUdRR+uoU3veDxUTxX8VvyoeKXYVNAQQQAABBBCQAEfQ4mmAAAKXBE6TzUGa/PPw0p3ccEFgKz0tR9PsILPTUbqQEDkggAAClQikp7OkTCvpqtZOUo48U6svnSNwu8BIm7y4fTO2uEFg54KhFdbkivH8Mub3lz0ZbCs687Drdp81+yKj7XaeS9t5XDV+rjv53fHDF05m0VeMFbG0TBO1+W7FMuFb5pnf8jgPI4AAAk0IbGuQ/ypeK3KF/T9dKGjNCxw0P2RrI9rvFi63mcvJNZybvXe3sD+Asv8fcsVEsYzRtrbvzaNz4TrvCYVBQwABBBBA4DYBCrRuE+JxBCITsKNonew9flUmKR+0O7f26W76bjNXWvYLEA0BBBAIQ6D0pPCpVCEZDQEE2hQYa3AKtKpbgR11df7hvPV6XrBV6HqumCh8/3+vpzlsK6xlZ/9+KsKym/fn97l+4fIXHWPh8Xvjh2eQrdOvCvtCvK/w/fWjKVzb7HU1UDy6dos4H7DXAw0BBBBoW6A3T+CBLi1eKM7f5+W6bv9XzRS0egUydb9b7xBO9V44lc2XyUx0l70eaJ8E7Plp8WR+lx0J1JzOm/0/sX1+Y37Z0eXOZ/dxEwEEEEAAAQSWFKBAa0kwNkcgBoFTHeo25YN2R5c63VUB3Wjn6Hnf0QRJCwEEEFhOYCOdJfrB437bLNzPkQwRCFqg0Ozsr3ztQ2Ra9QL2Qft5oc35h/Q2yhuFfTh//mF9ruvWinnY9bpbTwNc/HKgo9sW5y07v6JL23brwu1QrmaaSO7gZMbKyb7MCdF8Ve4H2rFQDBUDRWitrwnZ3FjzL1fWXg80BBBAoG2B7IoEzt/n2Xu9lwp7T53PY6LLQkGrTmBbXY2q686LnmZeZEmSNwnYe7v7N23AYwgggAACCCBQjQAFWtU40gsCQQl0j57nxd6hfRnDm3IHV9aObqYirYQiLQcXh5QQQGBpge7vzyb6meP6l7tv7QiTS0+OHRBAoGqBkTp8UXWn9HejwPnvAw/mWz25ZusT3V9c89iid9uXWbuLbsx2zgiMlclDZ7JxI5EtpWGvlb5ioDAj37+47GsOA8WOgvalwGvd5fsafzkr7kEAAR8Fegskbe+3LB7Nt7X3cblicuFSV2krCgy1X2w/L+2543KbuZwcuSGAAAIIIIBAXAIUaMW13swWgYUFyqQcpEn628I7sGGjAlakNd07zLtHz0aNDsxgCCCAQA0CaZrkZenu4eYtvxqmTZcIILC8wEi7vFh+N/ZoQMC+hIrti6gGWD8Okela/vGWW1fGSuehWyk5k429Jl4q7Iva0fyy0KUvraNE+4oDxZaCdr2AvQ5oCCCAgAsCnRWSsJ9X9rPc4rzZH+7misk8Cl3SbhcYaZOLjrfvEcYWM8enYc9jGgIIIIAAAggg4ITAhhNZkAQCCDgnYEfRUlL2yzjNUYFUH/arSKvvaHqkhQACCCwscFqeHVli4e2b3tD1/Jr2YDwEWhSwD/7tKCU0BBBwR2CsVOxImLTrBay4yY5SMlXYF4QHip7CxWZ5WX4TheX7REFxlhBuaeNbHudhBBBAoCmB3YoGuq9+7GfArwr7eTBT5IqBoq/oKWifBLZ1daR4+OmuqK5Nopotk0UAAQQQQAABBNYQ4Ahaa+CxKwKhC3AULfdXeF6klXAkLffXigwRQOAGgbt/j5N3d17esEWbD71NLD8aAgi4IjBUIg9cSYY8EGhIIGtonFWHsZ+TsX4huayZfXH+Yr6TFbaZ3WQeuS6bbj0NmCnOL3eaTiCA8V5pDrMA5sEUEEDAf4Gsxilsqe/787g4zLFuFIrzn2Xn13VXNK2vmQ4UMf8Mdf3noD0/aQgggAACCCCAgBMCFGg5sQwkgYCbAnYUrWLv0I6iZb+A0xwVOCvS+vpw0v39Gb9sOrpGpIUAAjcLdPPh7GTv8Ss7fevNWzb/aJqU447ya35kRkQAgWsEct1/ooj5C5BraLgbgdYEhhrZuZ/hrWksPrB92W1uF+3si25735HPL89/xyt022LZtq0devOd7PL8dkfXrViMtr7AeP0u6AEBBBCoRKBTSS/LdWI/SywefLbbVT/PCm1jEUKzn6f7ioGC30s+FOiJwtk2czYzEkMAAQQQQACB6AQo0IpuyZkwAssJcBSt5bza2jo9TfLp14cZRVptrQDjIoDAugKnyeYgTf65+AXlul1Wsr/lVUlHdIIAAlUKDNTZyyo7pC8EHBe473h+E+VnX8RS8LP+Qp0bLrLmVqxaXBiyo+s7F25ztX4BW4Nx/cMwAgIIILCQQG+hrZrZ6KafZ+c/vwqlYmHFM/Zewppd2m0XW6akeop9xSI/p7VZFM3eA/rQeK/qwyqRIwIIIIAAAhEIUKAVwSIzRQTWEeAoWuvoNbrvFkVajXozGAIIVCzQPfqpmN47/CUtk0cVd71ydzqi11PLa+UO2BEBBOoSGKvjoWKrrgHoFwEHBbaV08zBvM5Tstfky/MbXDYiYMVYFGQ1Qn3tIKNrH+EBBBBAoHmBXvNDrjTi+c+v+zfs/VaPTeaP2/uf8+t2l123+y62/OKNFa9nF/Y7v26X24rzgjNdpX0mcHFtPnvIqZufP2ecSo5kEEAAAQQQQCAeAQq04llrZorAygLlRnKg4p8/V+6AHZsSoEirKWnGQQCBegS++nuQvLuzr85d+LLxJLn7v2E9E6VXBBBYU8A+XLfX55M1+2F3BHwS6CnZ3OGER8rNXpcUTjq8SKRWuYA952kIIICAKwL2XiGUZu8nLhZwPQhlYgHOo/BkTrnyvPic8iRt0kQAAQQQQACB0AQ2QpsQ80EAgeoF7LR5aVK+qr5neqxB4LxIK6QPZWpgoksEEHBRoJsPZzq1bt+F3FScvG/5uJALOSCAwJUC9qW4/WU9DYFYBLY9mKi9LmkIxCJgn5HwXjGW1WaeCLgv0FGKFEm7v04hZph7Mil+ZnuyUKSJAAIIIIBA6AIUaIW+wswPgYoETpPNQUVd0U39AhRp1W/MCAggUJOAnVq3TJLvaup+oW5tfCtOXmhjNkIAgbYE7AP2YVuDMy4CLQj0Whhz2SHtNUnh5LJqbO+rwMDXxMkbAQSCFOgEOSsm5YNA7kOSynHiSZ6kiQACCCCAAAKBC1CgFfgCMz0EqhLoHv1UcBStqjQb6edDkdbe46yR0RgEAQQQqFCge/RsVKbl9xV2uXBXZ8VZGn/hHdgQAQTaFKAYpE19xm5aYLvpAVcYb6Z9xivsxy4I+CZgR88qfEuafBFAIGiBLOjZMTlXBY5dTeyKvCZX3MddCCCAAAIIIIBA4wIUaDVOzoAI+Ctwevf9gbLnL6L9WcKtNEl/m+4d9v1JmUwRQACBDwLdP54Pmz6SFsVZPPsQ8E7AikHs/SkNgRgEep5McuBJnqSJwDoCg3V2Zl8EEECgBgFf3ifUMHW6bFEgb3HsZYe23x1Plt2J7RFAAAEEEEAAgaoFKNCqWpT+EAhYoJsPZ2WSDgOeYpBTS5PkJUVaQS4tk0IgeIEPR9JKv9VE6y4Oflsm5Tc2XvCoTBCB8ARGmhIftIe3rszoS4HtL+9y8p5CWf3iZGYkhUA1Ahw9qxpHekEAgWoFOtV2R28ILCSQL7SVOxtN3EmFTBBAAAEEEEAgVgEKtGJdeeaNwKoCd/9nBVp8CbaqX0v7nRVp3Xt80NLwDItA1ALTez/sT78+7EWNsMbku3/8PC7v/t1J0+T1Gt1cu6v1a/13j57n127EAwgg4LpA3/UEyQ+BCgR2K+ijqS4GGqju4uqm5sI4CHwuMPj8Dm4jgAACDgj49D7BAS5SqEggr6ifprqhQKspacZBAAEEEEAAgWsFKNC6loYHEEDgKoEPR9FKBlc9xn1uC6Rl+uJk7/HI7SzJDoGwBKZ7PwzSsvw1PU1yirRWX1v72bPzx7N9O8qVenmzek+X9nxj/Vm/1v+lR7iBAAK+CeRKuJYiTt8gyDd4gW1PZmg/V4ee5EqaCCwj8Is2LpbZgW0RQACBBgSyBsZgCAQ+F7DPZnz7LCX/fBLcRgABBBBAAAEEmhagQKtpccZDIACB+SmgqvqCPAARf6agU1Q+PLl3OJ5mB758ueMPLpki8JmAFUSmSflkfvdWelqOeO19hrTkTTvKVefoWVZuJP+R7SvtfrJkFydlmvxi+1s/HDVrST02R8Btgb7S44g9bq8R2a0v0Fu/i8Z6GGikZX9ON5YcAyGwgoD9jBmssB+7IIAAAnULdOoegP4RuEJgfMV9rt+Vu54g+SGAAAIIIIBA+AKb4U+RGSKAQB0COurIIE3S3+romz7rFSjL5EH6bjNXoUjGUWPqtab3OAWsCCt9d2dcJsn9ywLpLq+9yyKr3ur+/myiffu2/9mRyU4TfWGddlS0ldl9F5sKU/MkKYtkI5nM97v4MNcRQCAcgZmm0lf8Gs6UmAkCXwh0vrjH7TsOlB6vSbfXiOwWF7Dns/2soSGAAAKuCfRcS4h8ohAYezrLY+XNKUE9XTzSRgABBBBAIAQBCrRCWEXmgEALAnbUER0d5pUdkamF4RlybQErFLlTqLAho2BhbUw6QOCjgBULpe/Kke645sMeirQ+YlV0Zf5/2KSi7ugGAQT8FrAvCV4rHvg9DbJH4FqBzrWPuPkAr0k314WslhewI4iPlt+NPRBAAIFGBHqNjMIgCHwSsCKn4tNNr67lyvaaz+y8mgfJIoAAAggggICnApzi0NOFI20EXBA4TTYHysMO80/zU0CnXEvy6d5h38/0yRoBtwSme48ze03pSE63fNDzsUhr260ZkA0CCCAQhEBfs+D9aRBLySSuEOhccZ/rdx0oQV6Trq8S+d0mYM9jGgIIIOCqAAVarq5MuHmNPJ7a2OPcSR0BBBBAAAEEAhCgQCuARWQKCLQl0D36qdARtIZtjc+4lQhspUnycrr3w6CS3ugEgUgFpvceH8xP+7q1GAFFWos5sRUCCCCwtMBMe+wvvRc7IOCHQMePNC9lWejW4NI93EDAL4GnSnfiV8pkiwACEQl0NNcFP4eISIWp1i0wqnuAGvvPa+ybrhFAAAEEEEAAgVsFKNC6lYgNEEDgJoHu0c8DPX5y0zY85r5AmpRPTu4djqfZwbb72ZIhAu4I2GtGp3sdpWX6Yvms0t2Nv+6Mlt+PPRBAAAEEbhHI9bh9oU5DIDSBjqcTGirv157mTtpxCxxr+oO4CZg9Agg4LtBzPD/SC0/glaY083xavC/1fAFJHwEEEEAAAZ8FKNDyefXIHQFHBMqk7DuSCmmsIVCWyYP03WY+/fqQD3fWcGTXeASmez927DWjIwk+XHXW9rqzAq9V92c/BBBAAIFrBQZ6hA/er+XhAU8FdjzN29LuK97aFRoCngjY83Xfk1xJEwEE4hXgM7x4176tmY/aGrjCcccV9kVXCCCAAAIIIIDAUgIUaC3FxcYIIHCVQPfoea4jMNlfz9C8F9Bp106TfLp32Pd+KkwAgRoFpvd+2E+TfyZJku6uO4wVeFGkta4i+yOAAAJXCvR17/GVj3AnAv4KdDxNfaa89z3NnbTjFDjQtIs4p86sEUDAI4GeR7mSqv8CbzSF3P9pJOMA5sAUEEAAAQQQQMBTAQq0PF040kbANYHTu+/tw0v+Itq1hVktn600SV5awQinPFwNkL3CFpjeOxymZfmrZrlV1Uwp0qpKkn4QQACBSwIz3dpX8B71Egs3PBfoeJx/rtyfepw/qccj8IumOopnuswUAQQ8Fuh5nDup+ycw8i/lKzO23xNfX/kIdyKAAAIIIIAAAjULUKBVMzDdIxCLQDcfzsq0HMQy3xjmaQUjnPIwhpVmjosK2CkNi73Hk7RMHi26zzLbUaS1jBbbIoAAAgsLFNoyU1CkJQRaEAK+fxE70CrwhVgQT8VgJ3GsmR0EOzsmhgACoQn4fPrj0NYi9PmcaIKjgCY5DmguTAUBBBBAAAEEPBKgQMujxSJVBFwX6P7xfKgc7VDHtGAEzk55+Of03mM+oA5mTZnIKgJ22s+qTml40/hWpDXd+2Fw0zY8hgACCCCwtMBEe+wvvRc7IOCmwLabaS2VVV9bWxEMDQHXBOzL58y1pMgHAQQQuEYgu+Z+7kagDoF+HZ222OdIY/NHPC0uAEMjgAACCCAQqwAFWrGuPPNGoCaBMvm/fk1d022LAmmZvij2DnNOedjiIjB0KwL2nD+5dzhOddpPJVDZKQ1vmkyalE+sIOymbXgMAQQQQGBpgVx7fLf0XuyAgHsCPfdSWjqjmfawokm+FFuajh1qFLDnoz0v7flJQwABBHwQ6PmQJDkGIWB/kJ0HMZPLkxhdvsktBBBAAAEEEECgfgEKtOo3BMyZbgAAQABJREFUZgQEohLoHv1U6AgwT6OadDyTvZ++u1NM7/1gH1rTEAheYLr3OLPnfFkmD5qerBWEUaTVtDrjIYBABAIjzZEirQgWOvApbgcyv0LzyBQUaQmB5oRApiwmTmRCEggggMBiAp3FNmMrBNYWOFi7Bzc7GLqZFlkhgAACCCCAQMgCFGiFvLrMDYGWBLpHPw+SpDxuaXiGrVdgKy3LX+2IQhxNq15oem9PwJ7b03uHwzRJf1MWjRw166rZUqR1lQr3IYAAAmsLjNQDRVprM9JBiwK9FseuemgrhskUFGlVLUt/ywrYzwV7PtIQQAABnwRCek/gk3tsuf6iCYf6M7LQ3F7HtqDMFwEEEEAAAQTaFaBAq11/RkcgWIFyI+0HOzkmltgRhTiaFk+EEAXsCHF6bk/SMnnkwvwo0nJhFcgBAQQCFBhpTt8oKAoJcHEjmFJrxeM12VKkVRMs3S4sYMVZo4W3ZkMEEEDAHYH77qRCJoEKnGheg0Dndj6t4fkVLhFAAAEEEEAAgSYEKNBqQpkxEIhQoPv7swmnOgx+4c+OplXsHebTvR87wc+WCQYtYEfNsiPD2RHiNNEdlyZLkZZLq0EuCCAQkECuuWQKirSEQPNOILQjZlCk5d1TMJiEKc4KZimZCALRCXSimzETbkNgX4PO2hi4wTFzjfWmwfEYCgEEEEAAAQQiF6BAK/InANNHoE4BTnVYp65Tfd9Pk38m03uPD5zKimQQWFDAnrt2RDg7MtyCuzS+mYq0htOvD3uND8yACCCAQNgCE03P/m89DnuazC5Age0A52Svx0xB0WSAi+volCjOcnRhSAsBBBYSsPewNATqFHiqzu39WQxtEMMkmePaAlbIZ68LGgIIIIAAAmsJUKC1Fh87I4DAbQKc6vA2oWAe19G00hfF3uPJdO9xFsysmEjQAlbwZEeAs+euJur66YK20tMkp0gr6Kckk0MAgXYECg2bKV4raAj4IhDql7IUafnyDPQ7TysC/I9i5Pc0yB4BBCIXCPW9QOTL6sz07XejgTPZ1J9IriGs+IaGwFUCr3SnvXfMFAOFvZekIYAAAgggsLIABVor07EjAggsIsCpDhdRCmmbdDdN0t9O9h6P7JRxIc2MuYQjYM/N6b3DoQqe/tSs7ns0M4q0PFosUkUAAa8EZsp2X8Ffw3q1bFEnG/L77IlWtqc4jnqFmXxdAifqOFPY84yGAAII+CxgPytpCNQhYO/B+nV07HifMc7Z8SVpPT0rzOoq+oqL7x1z3aYhgAACCCCwsgAFWivTsSMCCCwqwKkOF5UKZ7sySR/aKeOmez8MwpkVMwlB4Px0hmmZPPJ0PhRpebpwpI0AAl4IDJTlNwr+ItaL5Yo6ySzw2Rean83xjYKGQFUC9oWzFTRc/IKtqr7pBwEEEGhagAKtpsXjGM9+D9pXzOKY7qVZFrr19NI93IhRwF4D9jz4t6KvKBSft/Hnd3AbAQQQQACBZQQo0FpGi20RQGBlgTLZtF/u7A0uLR6BrTQpn+gUcirUOuzHM21m6qKAnXrTnouenM7wNkKKtG4T4nEEEEBgdYFcu3YUrxU0BBBoT8C+GMwUv7SXAiMHJPBKc+kp7HlFQwABBEIQ2AlhEszBKQH73D5TFIpY21ATP4l18pHP29b9O8W2YqC46T1jrsdpCCCAAAIIrCxAgdbKdOyIAALLCHSPfirKJDlYZh+2DUZgJ02SlyqOya1IJphZMREvBOaFWbmdelMJh/QBphVpjTmVqBdPQ5JEAAH/BOzD2H3F9wr7ooKGgGsC911LqMZ87HfIbxW8FmtEDrhre97Yl239gOfI1BBAID6BLL4pM+OaBeznZaaY1DyO693b74F915Mkv0oFXqu3bxQdxUixSCu00fEiG7INAggggAACVwlQoHWVCvchgEAtAt2jZ6M05WgEteD60el9K5KhUMuPxfI9y+nej52Te4fjeWFWqF9i7qTvNnOKtHx/tpI/Agg4LDBUbj3FG4dzJDUEYhAYa5K8FmNY6WrnaF+cZYqRgoYAAgiEJGA/E2kIVCVAcdZlyVw3n16+i1uBCdhz3ta4q9hX5Iplm/1+QkMAAQQQQGAlAQq0VmJjJwQQWFXg9Ku/+9r3ZNX92S8IgbNCLSuesSKaIGbEJJwROCvM2ns8SpN/pmWZPHAmsdoSSXcp0qoNl44RQAABEygUmeJbhX2QS0PAFYHMlUQayqPQOJmCL8yEQLtVwJ4nVsAwuXVLNkAAAQT8E+j4lzIZOypwrLwyBT8vLy/QQDfNhhaWwBtN5zvFtmKgKBSrtvGqO7IfAggggAACFGjxHEAAgUYFuvlwViZlv9FBGcxJASuesSKaExXTTL8+7DmZJEl5I3CpMCtJH3qTeCWJUqRVCSOdIIAAAjcL2AewHYV96U9DAIH2BAYa+j8K+4KFhsDnAvZlqj0/Bp8/wG0EEEAgIAE+QwtoMVucir2XyhSTFnNweWizeetyguS2kMCJtvpF0VVkipGiimavG54fVUjSBwIIIBChAAVaES46U0agbYHu0fO8TNKnbefB+G4I6LnwMD1N/uTUh26sh29ZTPceZ1bkd3bErOgKsy6uFkVaFzW4jgACCNQkMFO/A4V9uPtKQUOgTYGszcFbHtu+ELH5f6/gixEh0M6eB/YZQ09hzw8aAgggELLA/ZAnx9waEbCClUxhv9/QrhYwm0zBe82rfVy/135f/1bRURwoCkXVbVx1h/SHAAIIIBCHAAVacawzs0TAOYHu0c8DJfXGucRIqE2Bs1MfnhVq3fthv81EGNt9ASvMsudKmqS/WZGf+xk3kaEVad3hw4EmqBkDAQRiFygE0Fd8o+D9rBBorQhstzKqW4MOlU5H8cqttMimYYHXGq+nGDQ8LsMhgAACbQh02hiUMYMRsGIjK1o5CGZG9U5kou779Q5B7xUKHKuv7xT/VvQVY0WdLa+zc/pGAAEEEAhXgAKtcNeWmSHgvEB59+99JWm/GNIQuChwPy3LX1V8U0z3DvvT7GD74oNcj1fAngv2nLDnhhVmSYK/Gv3y6XDfjij25d3cgwACCCBQg0CuPjPFN4o3ChoCTQr0mhzM4bFmyq2v+I+C16EQImq23vb/r32uUChoCCCAQAwC9nPve8VxDJNljpUKvFZvHcW40l7D78y8vgt/mt7O8ESZ2/+JXUVPMVLY/5NNNF5LTSgzBgIIIBCgAAVaAS4qU0LAF4FuPpyVSbnvS77k2bjATpokL3VEoGJ673A43fux03gGDOiEgK29PQfsuWDPCSW140RijiZhRxSjSMvRxSEtBBAIVSDXxDLFN4pXChoCTQhsNzGIR2NMlGumsNfhGwUtXIETTe1bRabIFTQEEEAgJoGZJjtU9BRdhRUmHCtoCFwncP5zc18b2POHtrzASLt8t/xu7FGTgD2nf1H8R9FR2P+JhaLpZq+nN00PyngIIIAAAv4LUKDl/xoyAwS8FugePc/LtLQPE2gIXCewlZbJozT5Z3p2+kMdQem6Dbk/LIGpTnV5cu9wbGtvzwHNbiusGdY3G4q06rOlZwQQQOAGgVyP9RVdhX1g/FZBQ6Augd26Ova831z5Z4pvFHxhIoSA2rHm8p2ioxgraAgggEDsAoUArDChp+gq7P/I1woaAiZgv4s8Vdjzg5+bQlizjbT/fxTmSmte4ERD/qKwNegoDhQTRduN11bbK8D4CCCAgIcCqYc5kzICCAQoYEUYZZk8CHBqTKkegbdlqkMWK7q/P3Phl7F6Zhlhr2dHSkv/OVBB1r6mz5Gy1nwOpEn5aufoeX/NbtgdAQQQQGA1gW3tZj/PDhQU06xmyF6XBewLofxCTC4/zK0rBDLdZ69Bfte8AseTu94oz4EiV9CqFcjVXSynjX+quQ4UtNUEBtrtyWq7ereX/Z+TeZf1lwnbe1Cbh13y2YoQImuvNF97/zOLbN5NTLenQUYKfr+rX/t4bp3rclL/cCuNYM+HP1fas/2dQvl5Z5K5gve0JkFDAAEvBFIvsiRJBBAIXmCaHWyn7zbzJEn55Sb41a56guXxWbHWV+9HdtrMqnunv/oF7PWf/LXZV1FWn/8DqvfW6+OX7h/PDqrvmR4RQAABBJYQsA9u+/PYWmI/No1b4ETTnyjyedh12moCHe1m74f6Cl6DQnC8WTHiWDFQFApaPQK5uuXLrHpsQ+t1oAlRoOXvqnaUejaPfV3yc1AIATZ+dja3qNsaaqR40NyQ0Yz0WjPNFfY+sFD40Aol6WMhLAVaPjy7vszxqe4afHk39yCAgE8CFGj5tFrkikDgAtOvD3vp6dkbcD4oCHyt65pemiavT0v9Anf37zHFWnUpV9PvWVHWuzv7G2myz9HzqjG9qZdSpzroHj0b3bQNjyGAAAIINCZgX4ydB+97G2P3YiD7kHyiyOeXhS5p1Qv01aVFLIUpmqo3zY6UMFSMFTNvsvY30Vypx/I64Mus9Z6nA+3+ZL0uvNnbfhZn3mS7WqK9+Rxtnha8HxWCx+1EuY8U9vOTn51CaLAdaKyBgtfQ6uj2/B0r8vmlLrxr9tp75F3WH04Hn3mY91Up57qT97RXyXAfAgg4KZA6mRVJIYBAtALTez/sp2X5a7QATLwyAYq1KqOsrCOKsiqjXKmjkiKtldzYCQEEEKhZYF/9nwcf7NeM7Vj3VogymUc+v9QFrUGBjsay119fsaugtSNw/sXySMMX7aQQ7ai5Zs6XWdEu/1ITH2hrCrSWIvNq446yzebR0yU/E4XgQbMjDY0UYw9yDTnFjiY3VDwIeZIVzu2t+srnYc/dQuF729cEfvVwEm+Uc+Zh3lelnOtO3tNeJcN9CCDgpAAFWk4uC0khELfAdO+HQZqUsXzwE/diNzb7+WkQ0zTv/v5s0tiwDJTYkfGSssw4faEbT4aSIi03FoIsEEAAgasFerrbPty14Iuxq418vNe+hLD3n+dR6HquoLkl0FE69trrK3j9CaHmZgWK43nYa4PWjkCuYfkyqx1730YdKOFYPqcL6QvrVZ9n29qxp8jml3Z9R0FrX8B+fg4VY8Ws/XTI4IJApusjBa8VIXzW7P/VXGHP24kixFZ6OKmQft7l8r/v4RqskvJT7TRYZUf2QQABdwRSd1IhEwQQQOCTwMm9wzGnPfvkwbVKBU5UAJifphvj5Kv/5ZwKsVLb5OwoWX/9K9soT/fLJM3UOx9MVEu8dm/6xIDTHa6tSAcIIIBA7QLbGiG7EBSM1E5eyQD2IXcxj/zCdV2leSTQUa6ZYn9+uaVL2noC50dLsC/mckWhoLUvkCsFvsxqfx18yGCgJJ/4kGgFOYb0hXUFHB+7sPemPUU2v7TrfN4jhJrbxZ+f9jN0VvN4dL++QF9dDBSxvj7On7O5DCwmihiavT4feDbRkH7e5bLnPa1nT0DSRSBmAQq0Yl595o6AwwJW5JG+28yTJOXLKIfXKYzU7OhaqT3Xcgq2ll/R84KsJLGjZJUZr9nlDdvYo6RIqw12xkQAAQTWEdjWzj1FNg+7TtGIEFpoJxqzUEwUM0WuKOahC1qAAhdfe5nmx2vv9kW2L+fsNZJfCF2lIYAAAggEJpBpPvZzsjO/tOv8nBTCGs2KJvILsUZX7NqiwL7GPlCEXjRiz9fJPHJdFgoaAggggAACCNwgkN7wGA8hgAACrQpM937spMk/9gafX+xbXYnYBp8XbJX65XIjmXBKxMvrf3bKwlN9+JYmPQqyLtt4duttuZFkPL89WzXSRQABBC4LdHSzN49Mlx1FrH+pralX2o7V20yRz3u1S7ttv5vQEDh/3Z1fhv7F2yIrbq8Ze33k80teK4KgIYAAApEKbGve5z8j7Xqm6Ch4nyqEz9qJbtvPTIt8HrqgBSTQ0Vz2FQcK318DbzQHe64W88tclzQEEEAAAQQQWFIgXXJ7NkcAAQQaFbBikPQ0+bPRQRkMgcsCZ3/9rdP15TpKVBFT0dbHYqwkVbGkHR3r7AM2CiYFEUijSCuQhWQaCCCAwGcCmW535tHT5baCAhIhzNt58dVMt+0LBmv52b+fLuc3uUBgYQF7rXUUdpkpthW7itDa+esn18QKhb2GLGgIIIAAAggsImA/J+1n5PllNt8p9PeqZ58taq72M7OYX9r1mYIWj0BHU92fh8vPeSvEsuemPUfPo9B1GgIIIIAAAghUIECBVgWIdIEAAvUKTPcO+/rP6mW9o9A7AssKlMdpmhanZTpJUv2yWp7OukfP82V7cWH76d7jLEk3tpMy6W2kZa8syw6nKnRhZRrJgSKtRpgZBAEEEHBGIJtncn7Z0W0Lay5/SfAhw6v/PdHdxfyh8y8S7OZ11+ebcoFAIwIdjWLRU2zPr9ttu+5iAdd5Adb56+fzS6VNQwABBBBAoDaBnnq2n5GdeejirPDZLjuKHbviYDt/P3r+c9NSzOd5nl/Ob3KBwEeBTNfsOX8eTb03PH++Fhr7Ykx0257DNAQQQAABBBCoUSCtsW+6RgABBCoTmO79MNARfJ5U1iEdIVCvwBvr/sNRt86uFWdH39LVpou4zoqvLIUk7XwI/fvhaFi6z9svYi13WnUCFGlVZ0lPCCCAQCgC9iXB9oXJfH77/KHr7j9/fJHLQhtZXNUK3WlxsRW6YUFDIBSBjiZicd6y8ysXLju6brFsm2mHyRU75RfuK3TdgoYAAggggIAvAttK1N6HnreOrlhcbJ9vc/Gx267nV2ww032TC/cXum5BQ6BKgY46s/j8+Zvpvtva589R2z6/sNPF6xfu5ioCCCCAAAIINCmQNjkYYyGAAALrCJzsPR6p4OXhOn2wLwKOCZwon+JiTmmazM6OynXxzmuufzja1aUvT23LjsLVvyi0/GhuClCk5ea6kBUCCCCAAAIIIIAAAggggAACCCCAAAIIIIAAAggggEAAAhRoBbCITAGBmASKvcNc870f05yZKwIIINCQwEl59+9eNx/aX9zREEAAAQQQQAABBBBAAAEEEEAAAQQQQAABBBBAAAEEEECgIoGNivqhGwQQQKARARUP7OtUcceNDMYgCCCAQFwCO+m7zXyaHdhh1GkIIIAAAggggAACCCCAAAIIIIAAAggggAACCCCAAAIIIFCRAEfQqgiSbhBAoDkBKx5I392ZaERO49YcOyMhgEA0AuVxefd9xpG0ollwJooAAggggAACCCCAAAIIIIAAAggggAACCCCAAAIIIFCzAEfQqhmY7hFAoHoBKxooNxIdSSt5W33v9IgAAgjELpDuciSt2J8DzB8BBBBAAAEEEEAAAQQQQAABBBBAAAEEEEAAAQQQQKBKAY6gVaUmfSGAQKMC068Pe+lpkmvQrUYHZjAEEEAgCgGOpBXFMjNJBBBAAAEEEEAAAQQQQAABBBBAAAEEEEAAAQQQQACB2gU4glbtxAyAAAJ1CXR/fzbRkbSyuvqnXwQQQCBuATuS1p1x3AbMHgEEEEAAAQQQQAABBBBAAAEEEEAAAQQQQAABBBBAAIH1BSjQWt+QHhBAoEWBsyKtJPmuxRQYGgEEEAhZ4P7J3uNRyBNkbggggAACCCCAAAIIIIAAAggggAACCCCAAAIIIIAAAgjULcApDusWpn8EEGhEYLp32Nd/aC8bGYxBEEAAgcgE0qR8tXP0vB/ZtJkuAggggAACCCCAAAIIIIAAAggggAACCCCAAAIIIIAAApUIUKBVCSOdIICACwIUabmwCuSAAAKhClCkFerKMi8EEEAAAQQQQAABBBBAAAEEEEAAAQQQQAABBBBAAIG6BSjQqluY/hFAoFEBirQa5WYwBBCITIAircgWnOkigAACCCCAAAIIIIAAAggggAACCCCAAAIIIIAAAghUIrBRSS90ggACCDgi0D16NiqT5DtH0iENBBBAICiBMkkfTu8dDoOaFJNBAAEEEEAAAQQQQAABBBBAAAEEEEAAAQQQQAABBBBAoGYBjqBVMzDdI4BAOwIcSasdd0ZFAIE4BKwQ1gpi45gts0QAAQQQQAABBBBAAAEEEEAAAQQQQAABBBBAAAEEEEBgPQEKtNbzY28EEHBYgCIthxeH1BBAwHsBirS8X0ImgAACCCCAAAIIIIAAAggggAACCCCAAAIIIIAAAggg0JAABVoNQTMMAgi0I0CRVjvujIoAAnEIUKQVxzozSwQQQAABBBBAAAEEEEAAAQQQQAABBBBAAAEEEEAAgfUEKNBaz4+9EUDAAwGKtDxYJFJEAAFvBSjS8nbpSBwBBBBAAAEEEEAAAQQQQAABBBBAAAEEEEAAAQQQQKAhAQq0GoJmGAQQaFeAIq12/RkdAQTCFqBIK+z1ZXYIIIAAAggggAACCCCAAAIIIIAAAggggAACCCCAAALrCVCgtZ4feyOAgEcCFGl5tFikigACvgm8LTf+v727SW7qWMMA3K1A4pm9A3xWgIeCCdoB3kF8d6CBfYvZdWYUdlWUFVyzA7MDMQEN7RUcswM0I8Gob0u+ISRlU2AfSefncRXB6Ofr73vaiAze6g6D4s3RWdMa1y8BAgQIECBAgAABAgQIECBAgAABAgQIECBAgACBZQsIaC1bWH0CBGolIKRVq+3QDAEC7RIQ0mrXfpqGAAECBAgQIECAAAECBAgQIECAAAECBAgQIECgIoFeRXWUIUCAQCMEisnRyfwqrtzstBENa5IAAQLNEdiMszAuHx/sNKdlnRIgQIAAAQIECBAgQIAAAQIECBAgQIAAAQIECBBYvoCA1vKNrUCAQM0EFiGtfBVXbktIq2Z7ox0CBBovsAhpNX4KAxAgQIAAAQIECBAgQIAAAQIECBAgQIAAAQIECBCoUEBAq0JMpQgQaI5A8eboLAlpNWfDdEqAQFMEpimk3aY0q08CBAgQIECAAAECBAgQIECAAAECBAgQIECAAAECqxAQ0FqFsjUIEKilwF8hrXReywY1RYAAgWYJTOfB12JyPG5W27olQIAAAQIECBAgQIAAAQIECBAgQIAAAQIECBAgsFwBAa3l+qpOgEDNBRYhrY3LQQhCWjXfKu0RIFBrgXS+CGfl0wlr3abmCBAgQIAAAQIECBAgQIAAAQIECBAgQIAAAQIECKxBQEBrDeiWJECgXgLFePQ+5ZBWjOFVvTrTDQECBJogkMNZ+TN0HnhtQrd6JECAAAECBAgQIECAAAECBAgQIECAAAECBAgQILBqgbjqBa1HgACBOgu86++fpBB/rnOPeiNAgEBdBGJIL2cbl8N50LUuPemDAAECBAgQIECAAAECBAgQIECAAAECBAgQIECAQN0EBLTqtiP6IUBg7QLlo/1hTPHXtTeiAQIECNRYYB7OejA53qtxi1ojQIAAAQIECBAgQIAAAQIECBAgQIAAAQIECBAgUAsBVxzWYhs0QYBAnQSKt8ejFMK/ck/TOvWlFwIECNRFYP4ZKZxVl93QBwECBAgQIECAAAECBAgQIECAAAECBAgQIECAQN0FnKBV9x3SHwECaxMoHx/sxFkY5wY219aEhQkQIFAvgWkKabeYHI/r1ZZuCBAgQIAAAQIECBAgQIAAAQIECBAgQIAAAQIECNRXwAla9d0bnREgsGaB4s3RWdr4uB1COl9zK5YnQIBADQTSeeqFgXBWDbZCCwQIECBAgAABAgQIECBAgAABAgQIECBAgAABAo0SENBq1HZplgCBVQsU49H7tHE5iCG9XPXa1iNAgECNBF7PPwvnwdUa9aQVAgQIECBAgAABAgQIECBAgAABAgQIECBAgAABAo0QcMVhI7ZJkwQI1EGgfLQ/jCn+Wode9ECAAIFVCaQYfiveHg1XtZ51CBAgQIAAAQIECBAgQIAAAQIECBAgQIAAAQIECLRNQECrbTtqHgIElipQ9vfzaVrxNC+yudSFFCdAgMD6BaYphGExOTpZfys6IECAAAECBAgQIECAAAECBAgQIECAAAECBAgQINBcAQGt5u6dzgkQWJNA2X+2HcNlDmnFh2tqwbIECBBYtsC71Au7rjRcNrP6BAgQIECAAAECBAgQIECAAAECBAgQIECAAAECXRDodWFIMxIgQKBKgWLy/CJtXOaTtNLLKuuqRYAAgZoIvE4bH3eEs2qyG9ogQIAAAQIECBAgQIAAAQIECBAgQIAAAQIECBBovIATtBq/hQYgQGCdAmX/YC9/kP53nT1YmwABAlUJpBB/KSYvDquqpw4BAgQIECBAgAABAgQIECBAgAABAgQIECBAgAABAvl+LggECBAgcDeB8vHBTpyFfOVheHC3St5NgACBtQlMU0i7xeR4vLYOLEyAAAECBAgQIECAAAECBAgQIECAAAECBAgQIECgpQKuOGzpxhqLAIHVCcyvAZtfBxZjeLW6Va1EgACBygTmVxpuC2dV5qkQAQIECBAgQIAAAQIECBAgQIAAAQIECBAgQIAAgb8JOEHrbxz+QIAAgbsJlI/2hzHFw1xl826VvJsAAQLLF3Cl4fKNrUCAAAECBAgQIECAAAECBAgQIECAAAECBAgQIEBAQMvPAAECBCoWuLryMJ3kW2QfVlxaOQIECFQl8C5fabjn1KyqONUhQIAAAQIECBAgQIAAAQIECBAgQIAAAQIECBAgcLOAKw5vtvEMAQIEbiVwdeXh5SDF8NutCngTAQIEligwv451fi2rcNYSkZUmQIAAAQIECBAgQIAAAQIECBAgQIAAAQIECBAg8IWAE7S+wPAtAQIEqhYoH/17N6b5aVquPKzaVj0CBL5bYJpCGBaTo5Pvfqc3ECBAgAABAgQIECBAgAABAgQIECBAgAABAgQIECBwawEBrVvTeSMBAgS+TaAcDLd6v98/SSk8/bZ3eBUBAgQqF3idwg/5SsPnF5VXVpAAAQIECBAgQIAAAQIECBAgQIAAAQIECBAgQIAAga8KCGh9lceTBAgQqE6gfLQ/jCke5oqb1VVViQABAl8XSCH+UkxeHH79VZ4lQIAAAQIECBAgQIAAAQIECBAgQIAAAQIECBAgQGBZAgJay5JVlwABAtcIlP1n2zF8OslPPbnmaQ8RIECgQoF0nnpxr3hzdFZhUaUIECBAgAABAgQIECBAgAABAgQIECBAgAABAgQIEPhOAQGt7wTzcgIECFQh4DStKhTVIEDgJgGnZt0k43ECBAgQIECAAAECBAgQIECAAAECBAgQIECAAAECqxcQ0Fq9uRUJECCwEHCalh8EAgSqF3BqVvWmKhIgQIAAAQIECBAgQIAAAQIECBAgQIAAAQIECBC4m4CA1t38vJsAAQJ3Fij7B3v5w3iUC23euZgCBAh0VWCaT80aFZMXh10FMDcBAgQIECBAgAABAgQIECBAgAABAgQIECBAgACBugoIaNV1Z/RFgECnBMrBcKv3+/2TlMLTTg1uWAIEqhB4ncIPe8Xk+UUVxdQgQIAAAQIECBAgQIAAAQIECBAgQIAAAQIECBAgQKBaAQGtaj1VI0CAwJ0Eyv7+IIZ4kos8uFMhbyZAoAsC+dSsMCwmRyddGNaMBAgQIECAAAECBAgQIECAAAECBAgQIECAAAECBJoq0Gtq4/omQIBAGwWKyfE4bXzcyVeV/dLG+cxEgEA1AjGkl/mzYls4qxpPVQgQIECAAAECBAgQIECAAAECBAgQIECAAAECBAgsU8AJWsvUVZsAAQJ3ECj7z7Zj+HSSSzy5QxlvJUCgVQLp/OrUrONxq8YyDAECBAgQIECAAAECBAgQIECAAAECBAgQIECAAIEWCwhotXhzjUaAQDsEykf/3o0pjfI0rj1sx5aagsBtBKYppsPi7fH8s8AXAQIECBAgQIAAAQIECBAgQIAAAQIECBAgQIAAAQINEnDFYYM2S6sECHRToHj74tS1h93ce1MTmAukGH5bXGconOUHggABAgQIECBAgAABAgQIECBAgAABAgQIECBAgEAjBZyg1cht0zQBAl0VmF972IufRimFp101MDeBDgm8Tr0wLN4cnXVoZqMSIECAAAECBAgQIECAAAECBAgQIECAAAECBAgQaJ2AgFbrttRABAh0QaDs7w9iiId51iddmNeMBDom8C7FOJyfntexuY1LgAABAgQIECBAgAABAgQIECBAgAABAgQIECBAoJUCAlqt3FZDESDQFYGyf7CXP8gP87wPujKzOQm0WGCaYjosXGXY4i02GgECBAgQIECAAAECBAgQIECAAAECBAgQIECAQBcFBLS6uOtmJkCgdQLlo/1hTIsTtTZbN5yBCLRfYJpCHIWNP0bFePS+/eOakAABAgQIECBAgAABAgQIECBAgAABAgQIECBAgEC3BAS0urXfpiVAoMUC5WC4FT78OIwhDfOYglot3mujtUcg/319Odu4HApmtWdPTUKAAAECBAgQIECAAAECBAgQIECAAAECBAgQIEDgnwICWv8U8WcCBAg0XOCLoNZ/Gj6K9gm0VmARzAr3DovJ84vWDmkwAgQIECBAgAABAgQIECBAgAABAgQIECBAgAABAgQWAgJafhAIECDQUoGy/2y7Fy4P89VpP7d0RGMRaJyAYFbjtkzDBAgQIECAAAECBAgQIECAAAECBAgQIECAAAECBO4sIKB1Z0IFCBAgUG8BQa1674/uuiEgmNWNfTYlAQIECBAgQIAAAQIECBAgQIAAAQIECBAgQIAAgesEBLSuU/EYAQIEWigwD2qF+GkYU9jL4222cEQjEaidgGBW7bZEQwQIECBAgAABAgQIECBAgAABAgQIECBAgAABAgRWLiCgtXJyCxIgQGC9AuVguBU+/DjMwZFh7kRQa73bYfV2Ckzz36/TWbh3WEyeX7RzRFMRIECAAAECBAgQIECAAAECBAgQIECAAAECBAgQIPCtAgJa3yrldQQIEGiZwBdBrb082oOWjWccAusQmKYQR2Hjj1ExHr1fRwPWJECAAAECBAgQIECAAAECBAgQIECAAAECBAgQIECgfgICWvXbEx0RIEBg5QJl/2Av/4NwmBcW1Fq5vgVbIPAuzf/+bHw8FcxqwW4agQABAgQIECBAgAABAgQIECBAgAABAgQIECBAgEDFAgJaFYMqR4AAgSYLlP39QS/GYUrhaZPn0DuBFQm8TjGOircvTle0nmUIECBAgAABAgQIECBAgAABAgQIECBAgAABAgQIEGiggIBWAzdNywQIEFi2QNl/tt0Ll4f5urbdvNbmstdTn0CTBGJIL2e9HMx6c3TWpL71SoAAAQIECBAgQIAAAQIECBAgQIAAAQIECBAgQIDAegQEtNbjblUCBAg0QqAcDLfCh/u7rj9sxHZpcrkC71JMo/DT5YlrDJcLrToBAgQIECBAgAABAgQIECBAgAABAgQIECBAgACBtgkIaLVtR81DgACBJQksrj8MYS+fqvXzkpZQlkDtBGIMr2YhnrjGsHZboyECBAgQIECAAAECBAgQIECAAAECBAgQIECAAAECjREQ0GrMVmmUAAEC9RBYnKr1+729mOIwd/SgHl3pgkClAlenZaV7p8Xk+UWllRUjQIAAAQIECBAgQIAAAQIECBAgQIAAAQIECBAgQKBzAgJandtyAxMgQKA6gfLxwU5vlob5VK3dXHWzusoqEVi5wDSGdDoL4aSYHI9XvroFCRAgQIAAAQIECBAgQIAAAQIECBAgQIAAAQIECBBorYCAVmu31mAECBBYrUDZP9jrxbCbUni62pWtRuD2AosrDFM4DRsfT4vx6P3tK3knAQIECBAgQIAAAQIECBAgQIAAAQIECBAgQIAAAQIErhcQ0LrexaMECBAgcEuBxRWIH+7v5tOI8hWI8eEty3gbgSUKpPMUw0lwheESjZUmQIAAAQIECBAgQIAAAQIECBAgQIAAAQIECBAgQOBPAQGtPyX8ToAAAQKVC5T9Z9shXu7GFPaEtSrnVfC7BISyvovLiwkQIECAAAECBAgQIECAAAECBAgQIECAAAECBAgQqExAQKsySoUIECBA4GsCwlpf0/HccgSEspbjqioBAgQIECBAgAABAgQIECBAgAABAgQIECBAgAABAt8jIKD1PVpeS4AAAQKVCCzCWuHToBfDbkrhaSVFFSGQBWIMr2YhjV1f6MeBAAECBAgQIECAAAECBAgQIECAAAECBAgQIECAAIG6CAho1WUn9EGAAIGOCpSD4Vb4/cdBL812U4iDzPCgoxTGvp3ANIZ0Oou90/DTH+NiPHp/uzLeRYAAAQIECBAgQIAAAQIECBAgQIAAAQIECBAgQIAAgeUICGgtx1VVAgQIELilQPn4YCekNIgp7uYST25ZxtvaLfA6h/nGoZdOizdHZ+0e1XQECBAgQIAAAQIECBAgQIAAAQIECBAgQIAAAQIECDRdQECr6TuofwIECLRY4M/TtUKYB7bSIF9g97DF4xrtRoF0nmIOZM1DWU7JulHJEwQIECBAgAABAgQIECBAgAABAgQIECBAgAABAgQI1FNAQKue+6IrAgQIELhGQGDrGpRWPiSQ1cptNRQBAgQIECBAgAABAgQIECBAgAABAgQIECBAgACBjgoIaHV0441NgACBNggsAlsf7u2E0BvEfMpWnsmViM3c2KsrC2M4c0JWMzdQ1wQIECBAgAABAgQIECBAgAABAgQIECBAgAABAgQI3CwgoHWzjWcIECBAoIEC5eODnTALO70c2Eoh5PCWaxHrtY3pPP/Px9lsfl1hL5wVb47O6tWfbggQIECAAAECBAgQIECAAAECBAgQIECAAAECBAgQIFCtgIBWtZ6qESBAgEANBcr+/iAHtbZDDDsxzUNbTtrKBqv4ep3mp2Kl/Cuki2JyPF7FotYgQIAAAQIECBAgQIAAAQIECBAgQIAAAQIECBAgQIBAnQQEtOq0G3ohQIAAgZUJlP1n2yFc5l+9QS/MtlOI+ftFeGsz/+7r2wWm+aVn+YrJi1noXYQwG4dwL4exnufvfREgQIAAAQIECBAgQIAAAQIECBAgQIAAAQIECBAgQICAgJafAQIECBAg8IVAORhuhQ/35lcjbs9/9WLaSSlshW6Ht65CWDG8n6W4OA1rfiJW2Lg8K8aj99nGFwECBAgQIECAAAECBAgQIECAAAECBAgQIECAAAECBAjcICCgdQOMhwkQIECAwHUCn0/eir2tfHVfDnLlGFdIg6vXphzkig+vvm/Kf9N57nkRssqniI0XXS+uJZzlx5yE1ZRd1CcBAgQIECBAgAABAgQIECBAgAABAgQIECBAgAABAvUVENCq797ojAABAgQaLlD29wefR/gi0PXXY2kr/j/k9fmxO36TFuGqq8DV51KfA1dXjxST4/Hn53xDgAABAgQIECBAgAABAgQIECBAgAABAgQIECBAgAABAgQIECBAgAABAgQIECBAgAABAgQIECBAgAABAgQIECBAgAABAgQIECBAgAABAgQIECBAgAABAgQIECBAgAABAgQIECBAgAABAgQIECBAgAABAgQIECBAgAABAgQIECBAgAABAgQIECBAgAABAgQIECBAgAABAgQIECBAgAABAgQIECBAgAABAgQIECBAgAABAgQIECBAgAABAgQIECBAgAABAgQIECBAgAABAgQIECBAgAABAgQIECBAgAABAgQIECBAgAABAgQIECBAgAABAgQIECBAgAABAgQIECBAgAABAgQIECBAgAABAgQIECBAgAABAgQIECBAgAABAgQIECBAgAABAgQIECBAgAABAgQIECBAgAABAgQIECBAgAABAgQIECBAgAABAgQIECBAgAABAgQIECBAgAABAgQIECBAgAABAgQIECBAgAABAgQIECBAgAABAgQIECBAgAABAgQIECBAgAABAgQIECBAgAABAgQIECBAgAABAgQIECBAgAABAgQIECBAgAABAgQIECBAgAABAgQIECBAgAABAgQIECBAgAABAgQIECBAgAABAgQIECBAgAABAgQIECBAgAABAgQIECBAgAABAgQIECBAgAABAgQIECBAgAABAgQIECBAgAABAgQIECBAgAABAgQIECBAgAABAgQIECBAgAABAgQIECBAgAABAgQIECBAgAABAgQIECBAgAABAgQIECBAgAABAgQIECBAgAABAgQIECBAgAABAgQIECBAgAABAgQIECBAgAABAgQIECBAgAABAgQIECBAgAABAgQIECBAgAABAgQIECBAgAABAgQIECBAgAABAgQIECBAgAABAgQIECBAgAABAgQIECBAgAABAgQIECBAgAABAgQIECBAgAABAgQIECBAgAABAgQIECBAgAABAgQIECBAgAABAgQIECBAgAABAgQIECBAgAABAgQIECBAgAABAgQIECBAgAABAgQIECBAgAABAgQIECBAgAABAgQIECBAgAABAgQIECBAgAABAgQIECBAgAABAgQIECBAgAABAgQIECBAgAABAgQIECBAgAABAgQIECBAgAABAgQIECBAgAABAgQIECBAgAABAgQIECBAgAABAgQIECBAgAABAgQIECBAgAABAgQIECBAgAABAgQIECBAgAABAgQIECBAgAABAgQIECBAgAABAgQIECBAgAABAgQIECBAgAABAgQIECBAgAABAgQIECBAgAABAgQIECBAgAABAgQIECBAgAABAgQIECBAgAABAgQIECBAgAABAgQIECBAgAABAgQIECBAgAABAgQIECBAgAABAgQIECBAgAABAgQIECBAgAABAgQIECBAgAABAgQIECBAgAABAgQIECBAgAABAgQIECBAgAABAgQIECBAgAABAgQIECBAgAABAgQIECBAgAABAgQIECBAgAABAgQIECBAgAABAgQIECBAgAABAgQIECBAgAABAgQIECBAgAABAgQIECBAgAABAgQIECBAgAABAgQIECBAgAABAgQIECBAgAABAgQIECBAgAABAgQIECBAgAABAgQIECBAgAABAgQIECBAgAABAgQIECBAgAABAgQIECBAgAABAgQIECBAgAABAgQIECBAgAABAgQIECBAgAABAgQIECBAgAABAgQIECBAgAABAgQIECBAgAABAgQIECBAgAABAgQIECBAgAABAgQIECBAgAABAgQIECBAgAABAgQIECBAgAABAgQIECBAgAABAgQIECBAgAABAgQIECBAgAABAgQIECBAgAABAgQIECBAgAABAgQIECBAgAABAgQIECBAgAABAgQIECBAgAABAgQIECBAgAABAgQIECBAgAABAgQIECBAgAABAgQIECBAgAABAgQIECBAgAABAgQIECBAgAABAgQIECBAgAABAgQIECBAgAABAgQIECBAgAABAgQIECBAgAABAgQIECBAgAABAgQIECBAgAABAgQIECBAgAABAgQIECBAgAABAgQIECBAgAABAgQIECBAgAABAgQIECBAgAABAgQIECBAgAABAgQIECBAgAABAgQIECBAgAABAgQIECBAgAABAgQIECBAgAABAgQIECBAgAABAgQIECBAgAABAgQIECBAgAABAgQIECBAgAABAgQIECBAgAABAgQIECBAgAABAgQIECBAgAABAgQIECBAgAABAgQIECBAgAABAgQIECBAgAABAgQIECBAgAABAgQIECBAgAABAgQIECBAgAABAgQIECBAgAABAgQIECBAgAABAgQIECBAgAABAgQIECBAgAABAgQIECBAgAABAgQIECBAgAABAgQIECBAgAABAgQIECBAgAABAgQIECBAgAABAgQIECBAgAABAgQIECBAgAABAgQIECBAgAABAgQIECBAgAABAgQIECBAgAABAgQIECBAgAABAgQIECBAgAABAgQIECBAgAABAgQIECBAgAABAgQIECBAgAABAgQIECBAgAABAgQIECBAgAABAgQIECBAgAABAgQIECBAgAABAgQIECBAgAABAgQIECBAgAABAgQIECBAgAABAgQIECBAgAABAgQIECBAgAABAgQIECBAgAABAgQIECBAgAABAgQIECBAgAABAgQIECBAgAABAgQIECBAgAABAgQIECBAgAABAgQIECBAgAABAgQIECBAgAABAgQIECBAgAABAgQIECBAgAABAgQIECBAgAABAgQIECBAgAABAgQIECBAgAABAgQIECBAgAABAgQIECBAgAABAgQIECBAgAABAgQIECBAgAABAgQIECBAgAABAgQIECBAgAABAgQIECBAgAABAgQIECBAgAABAgQIECBAgAABAgQIECBAgAABAgQIECBAgAABAgQIECBAgAABAgQIECBAgAABAgQIECBAgAABAgQIECBAgAABAgQIECBAgAABAgQIECBAgAABAgQIECBAgAABAgQIECBAgAABAgQIECBAgAABAgQIECBAgAABAgQIECBAgAABAgQIECBAgAABAgQIECBAgAABAgQIECBAgAABAgQIECBAgAABAgQIECBAgAABAgQIECBAgAABAgQIECBAgAABAgQIECBAgAABAgQIECBAgAABAgQIECBAgAABAgQIECBAgAABAgQIECBAgAABAgQIECBAgAABAgQIECBAgAABAgQIECBAgAABAgQIECBAgAABAgQIECBAgAABAgQIECBAgAABAgQIECBAgAABAgQIECBAgAABAgQIECBAgAABAgQIECBAgAABAgQIECBAgAABAgQIECBAgAABAgQIECBAgAABAgQIECBAgAABAgQIECBAgAABAgQIECBAgAABAgQIECBAgAABAgQIECBAgAABAgQIECBAgAABAgQIECBAgAABAgQIECBAgAABAgQIECBAgAABAgQIECBAgAABAgQIECBAgAABAgQIECBAgAABAgQIECBAgAABAgQIECBAgAABAgQIECBAgAABAgQIECBAgAABAgQIECBAgAABAgQIECBAgAABAgQIECBAgAABAgQIECBAgAABAgQIECBAgAABAgQIECBAgAABAgQIECBAgAABAgQIECBAgAABAgQIECBAgAABAgQIECBAgAABAgQIECBAgAABAgQIECBAgAABAgQIECBAgAABAgQIECBAgAABAgQIECBAgAABAgQIECBAgAABAgQIECBAgAABAgQIECBAgAABAgQIECBAgAABAgQIECBAgAABAgQIECBAgAABAgQIECBAgAABAgQIECBAgAABAgQIECBAgAABAgQIECBAgAABAgQIECBAgAABAgQIECBAgAABAgQIECBAgAABAgQIECBAgAABAgQIECBAgAABAgQIECBAgAABAgQIECBAgAABAgQIECBAgAABAgQIECBAgAABAgQIECBAgAABAgQIECBAgAABAgQIECBAgAABAgQIECBAgAABAgQIECBAgAABAgQIECBAgAABAgQIECBAgAABAgQIECBAgAABAgQIECBAgAABAgQIECBAgAABAgQIECBAgAABAgQIECBAgAABAgQIECBAgAABAgQIECBAgAABAgQIECBAgAABAgQIECBAgAABAgQIECBAgAABAgQIECBAgAABAgQIECBAgAABAgQIECBAgAABAgQIECBAgAABAgQIECBAgAABAgQIECBAgAABAgQIECBAgAABAgQIECBAgAABAgQIECBAgAABAgQIECBAgAABAgQIECBAgAABAgQIECBAgAABAgQIECBAgAABAgQIECBAgAABAgQIECBAgAABAgQIECBAgAABAgQIECBAgAABAgQIECBAgAABAgQIECBAgAABAgQIECBAgAABAgQIECBAgAABAgQIECBAgAABAgQIECBAgAABAgQIECBAgAABAgQIECBAgAABAgQIECBAgAABAgQIECBAgAABAgQIECBAgAABAgQIECBAgAABAgQIECBAgAABAgQIECBAgAABAgQIECBAgAABAgQIECBAgAABAgQIECBAgAABAgQIECBAgAABAgQIECBAgAABAgQIECBAgAABAgQIECBAgAABAgQIECBAgAABAgQIECBAgAABAgQIECBAgAABAgQIECBAgAABAgQIECBAgAABAgQIECBAgAABAgQIECBAgAABAgQIECBAgAABAgQIECBAgAABAgQIECBAgAABAgQIECBAgAABAgQIECBAgAABAgQIECBAgAABAgQIECBAgAABAgQIECBAgAABAgQIECBAgAABAgQIECBAgAABAgQIECBAgAABAgQIECBAgAABAgQIECBAgAABAgQIECBAgAABAgQIECBAgAABAgQIECBAgAABAgQIECBAgAABAgQIECBAgAABAgQIECBAgAABAgQIECBAgAABAgQIECBAgAABAgQIECBAgAABAgQIECBAgAABAgQIECBAgAABAgQIECBAgAABAgQIECBAgAABAgQIECBAgAABAgQIECBAgAABAgQIECBAgAABAgQIECBAgAABAgQIECBAgAABAgQIECBAgAABAgQIECBAgAABAgQIECBAgAABAgQIECBAgAABAgQIECBAgAABAgQIECBAgAABAgQIECBAgAABAgQIECBAgAABAgQIECBAgAABAgQIECBAgAABAgQIECBAgAABAgQIECBAgAABAgQIECBAgAABAgQIECBAgAABAgQIECBAgAABAgQIECBAgAABAgQIECBAgAABAgQIECBAgAABAgQIECBAgAABAgQIECBAgAABAgQIECBAgAABAgQIECBAgAABAgQIECBAgAABAgQIECBAgAABAgQIECBAgAABAgQIECBAgAABAgQIECBAgAABAgQIECBAgAABAgQIECBAgAABAgQIECBAgAABAgQIECBAgAABAgQIECBAgAABAgQIECBAgAABAgQIECBAgAABAgQIECBAgAABAgQIECBAgAABAgQIECBAgAABAgQIECBAgAABAgQIECBAgAABAgQIECBAgAABAgQIECBAgAABAgQIECBAgAABAgQIECBAgAABAgQIECBAgAABAgQIECBAgAABAgQIECBAgAABAgQIECBAgAABAgQIECBAgAABAgQIECBAgAABAgQIECBAgAABAgQIECBAgAABAgQIECBAgAABAgQIECBAgAABAgQIECBAgAABAgQIECBAgAABAgQIECBAgAABAgQIECBAgAABAgQIECBAgAABAgQIECBAgAABAgQIECBAgAABAgQIECBAgAABAgQIECBAgAABAgQIECBAgAABAgQIECBAgAABAgQIECBAgAABAgQIECBAgAABAgQIECBAgAABAgQIECBAgAABAgQIECBAgAABAgQIECBAgAABAgQIECBAgAABAgQIECBAgAABAgQIECBAgAABAgQIECBAgAABAgQIECBAgAABAgQIECBAgAABAgQIECBAgAABAgQIECBAgAABAgQIECBAgAABAgQIECBAgAABAgQIECBAgAABAgQIECBAgAABAgQIECBAgAABAgQIECBAgAABAgQIECBAgAABAgQIECBAgAABAgQIECBAgAABAgQIECBAgAABAgQIECBAgAABAgQIECBAgAABAgQIECBAgAABAgQIECBAgAABAgQIECBAgAABAgQIECBAgAABAgQIECBAgAABAgQIECBAgAABAgQIECBAgAABAgQIECBAgAABAgQIECBAgAABAgQIECBAgAABAgQIECBAgAABAgQIECBAgAABAgQIECBAgAABAgQIECBAgAABAgQIECBAgAABAgQIECBAgAABAgQIECBAgAABAgQIECBAgAABAgQIECBAgAABAgQIECBAgAABAgQIECBAgAABAgQIECBAgAABAgQIECBAgAABAgQIECBAgAABAgQIECBAgAABAgQIECBAgAABAgQIECBAgAABAgQIECBAgAABAgQIECBAgAABAgQIECBAgAABAgQIECBAgAABAgQIECBAgAABAgQIECBAgAABAgQIECBAgAABAgQIECBAgAABAgQIECBAgAABAgQIEAOLzoMAABISSURBVCBAgAABAgQIECBAgAABAgQIECBAgAABAgQIECBAgAABAgQIECBAgAABAgQIECBAgAABAgQIECBAgAABAgQIECBAgAABAgQIECBAgAABAgQIECBAgAABAgQIECBAgAABAgQIECBAgAABAgQIECBAgAABAgQIECBAgAABAgQIECBAgAABAgQIECBAgAABAgQIECBAgAABAgQIECBAgAABAgQIECBAgAABAgQIECBAgAABAgQIECBAgAABAgQIECBAgAABAgQIECBAgAABAgQIECBAgAABAgQIECBAgAABAgQIECBAgAABAgQIECBAgAABAgQIECBAgAABAgQIECBAgAABAgQIECBAgAABAgQIECBAgAABAgQIECBAgAABAgQIECBAgAABAgQIECBAgAABAgQIECBAgAABAgQIECBAgAABAgQIECBAgAABAgQIECBAgAABAgQIECBAgAABAgQIECBAgAABAgQIECBAgAABAgQIECBAgAABAgQIECBAgAABAgQIECBAgAABAgQIECBAgAABAgQIECBAgAABAgQIECBAgAABAgQIECBAgAABAgQIECBAgAABAgQIECBAgAABAgQIECBAgAABAgQIECBAgAABAgQIECBAgAABAgQIECBAgAABAgQIECBAgAABAgQIECBAgAABAgQIECBAgAABAgQIECBAgAABAgQIECBAgAABAgQIECBAgAABAgQIECBAgAABAgQIECBAgAABAgQIECBAgAABAgQIECBAgAABAgQIECBAgAABAgQIECBAgAABAgQIECBAgAABAgQIECBAgAABAgQIECBAgAABAgQIECBAgAABAgQIECBAgAABAgQIECBAgAABAgQIECBAgAABAgQIECBAgAABAgQIECBAgAABAgQIECBAgAABAgQIECBAgAABAgQIECBAgAABAgQIECBAgAABAgQIECBAgAABAgQIECBAgAABAgQIECBAgAABAgQIECBAgAABAgQIECBAgAABAgQIECBAgAABAgQIECBAgAABAgQIECBAgAABAgQIECBAgAABAgQIECBAgAABAgQIECBAgAABAgQIECBAgAABAgQIECBAgAABAgQIECBAgAABAgQIECBAgAABAgQIECBAgAABAgQIECBAgAABAgQIECBAgAABAgQIECBAgAABAgQIECBAgAABAgQIECBAgAABAgQIECBAgAABAgQIECBAgAABAgQIECBAgAABAgQIECBAgAABAgQIECBAgAABAgQIECBAgAABAgQIECBAgAABAgQIECBAgAABAgQIECBAgAABAgQIECBAgAABAgQIECBAgAABAgQIECBAgAABAgQIECBAgAABAgQIECBAgAABAgQIECBAgAABAgQIECBAgAABAgQIECBAgAABAgQIECBAgAABAgQIECBAgAABAgQIECBAgAABAgQIECBAgAABAgQIECBAgAABAgQIECBAgAABAgQIECBAgAABAgQIECBAgAABAgQIECBAgAABAgQIECBAgAABAgQIECBAgAABAgQIECBAgAABAgQIECBAgAABAgQIECBAgAABAgQIECBAgAABAgQIECBAgAABAgQIECBAgAABAgQIECBAgAABAgQIECBAgAABAgQIECBAgAABAgQIECBAgAABAgQIECBAgAABAgQIECBAgAABAgQIECBAgAABAgQIECBAgAABAgQIECBAgAABAgQIECBAgAABAgQIECBAgAABAgQIECBAgAABAgQIECBAgAABAgQIECBAgAABAgQIECBAgAABAgQIECBAgAABAgQIECBAgAABAgQIECBAgAABAgQIECBAgAABAgQIECBAgAABAgQIECBAgAABAgQIECBAgAABAgQIECBAgAABAgQIECBAgAABAgQIECBAgAABAgQIECBAgAABAgQIECBAgAABAgQIECBAgAABAgQIECBAgAABAgQIECBAgAABAgQIECBAgAABAgQIECBAgAABAgQIECBAgAABAgQIECBAgAABAgQIECBAgAABAgQIECBAgAABAgQIECBAgAABAgQIECBAgAABAgQIECBAgAABAgQIECBAgAABAgQIECBAgAABAgQIECBAgAABAgQIECBAgAABAgQIECBAgAABAgQIECBAgAABAgQIECBAgAABAgQIECBAgAABAgQIECBAgAABAgQIECBAgAABAgQIECBAgAABAgQIECBAgAABAgQIECBAgAABAgQIECBAgAABAgQIECBAgAABAgQIECBAgAABAgQIECBAgAABAgQIECBAgAABAgQIECBAgAABAgQIECBAgAABAgQIECBAgAABAgQIECBAgAABAgQIECBAgAABAgQIECBAgAABAgQIECBAgAABAgQIECBAgAABAgQIECBAgAABAgQIECBAgAABAgQIECBAgAABAgQIECBAgAABAgQIECBAgAABAgQIECBAgAABAgQIECBAgAABAgQIECBAgAABAgQIECBAgAABAgQIECBAgAABAgQIECBAgAABAgQIECBAgAABAgQIECBAgAABAgQIECBAgAABAgQIECBAgAABAgQIECBAgAABAgQIECBAgAABAgQIECBAgAABAgQIECBAgAABAgQIECBAgAABAgQIECBAgAABAgQIECBAgAABAgQIECBAgAABAgQIECBAgAABAgQIECBAgAABAgQIECBAgAABAgQIECBAgAABAgQIECBAgAABAgQIECBAgAABAgQIECBAgAABAgQIECBAgAABAgQIECBAgAABAgQIECBAgAABAgQIECBAgAABAgQIECBAgAABAgQIECBAgAABAgQIECBAgAABAgQIECBAgAABAgQIECBAgAABAgQIECBAgAABAgQIECBAgAABAgQIECBAgAABAgQIECBAgAABAgQIECBAgAABAgQIECBAgAABAgQIECBAgAABAgQIECBAgAABAgQIECBAgAABAgQIECBAgAABAgQIECBAgAABAgQIECBAgAABAgQIECBAgAABAgQIECBAgAABAgQIECBAgAABAgQIECBAgAABAgQIECBAgAABAgQIECBAgAABAgQIECBAgAABAgQIECBAgAABAgQIECBAgAABAgQIECBAgAABAgQIECBAgAABAgQIECBAgAABAgQIECBAgAABAgQIECBAgAABAgQIECBAgAABAgQIECBAgAABAgQIECBAgAABAgQIECBAgAABAgQIECBAgAABAgQIECBAgAABAgQIECBAgAABAgQIECBAgAABAgQIECBAgAABAgQIECBAgAABAgQIECBAgAABAgQIECBAgAABAgQIECBAgAABAgQIECBAgAABAgQIECBAgAABAgQIECBAgAABAgQIECBAgAABAgQIECBAgAABAgQIECBAgAABAgQIECBAgAABAgQIECBAgAABAgQIECBAgAABAgQIECBAgAABAgQIECBAgAABAgQIECBAgAABAgQIECBAgAABAgQIECBAgAABAgQIECBAgAABAgQIECBAgAABAgQIECBAgAABAgQIECBAgAABAgQIECBAgAABAgQIECBAgAABAgQIECBAgAABAgQIECBAgAABAgQIECBAgAABAgQIECBAgAABAgQIECBAgAABAgQIECBAgAABAgQIECBAgAABAgQIECBAgAABAgQIECBAgAABAgQIECBAgAABAgQIECBAgAABAgQIECBAgAABAgQIECBAgAABAgQIECBAgAABAgQIECBAgAABAgQIECBAgAABAgQIECBAgAABAgQIECBAgAABAgQIECBAgAABAgQIECBAgAABAgQIECBAgAABAgQIECBAgAABAgQIECBAgAABAgQIECBAgAABAgQIECBAgAABAgQIECBAgAABAgQIECBAgAABAgQIECBAgAABAgQIECBAgAABAgQIECBAgAABAgQIECBAgAABAgQIECBAgAABAgQIECBAgAABAgQIECBAgAABAgQIECBAgAABAgQIECBAgAABAgQIECBAgAABAgQIECBAgAABAgQIECBAgAABAgQIECBAgAABAgQIECBAgAABAgQIECBAgAABAgQIECBAgAABAgQIECBAgAABAgQIECBAgAABAgQIECBAgAABAgQIECBAgAABAgQIECBAgAABAgQIECBAgAABAgQIECBAgAABAgQIECBAgAABAgQIECBAgAABAgQIECBAgAABAgQIECBAgAABAgQIECBAgAABAgQIECBAgAABAgQIECBAgAABAgQIECBAgAABAgQIECBAgAABAgQIECBAgAABAgQIECBAgAABAgQIECBAgAABAgQIECBAgAABAgQIECBAgAABAgQIECBAgAABAgQIECBAgAABAgQIECBAgAABAgQIECBAgAABAgQIECBAgAABAgQIECBAgAABAgQIECBAgAABAgQIECBAgAABAgQIECBAgAABAgQIECBAgAABAgQIECBAgAABAgQIECBAgAABAgQIECBAgAABAgQIECBAgAABAgQIECBAgAABAgQIECBAgAABAgQIECBAgAABAgQIECBAgAABAgQIECBAgAABAgQIECBAgAABAgQIECBAgAABAgQIECBAgAABAgQIECBAgAABAgQIECBAgAABAgQIECBAgAABAgQIECBAgAABAgQIECBAgAABAgQIECBAgAABAgQIECBAgAABAgQIECBAgAABAgQIECBAgAABAgQIECBAgAABAgQIECBAgAABAgQIECBAgAABAgQIECBAgAABAgQIECBAgAABAgQIECBAgAABAgQIECBAgAABAgQIECBAgAABAgQIECBAgAABAgQIECBAgAABAgQIECBAgAABAgQIECBAgAABAgQIECBAgAABAgQIECBAgAABAgQIECBAgAABAgQIECBAgAABAgQIECBAgAABAgQIECBAgAABAgQIECBAgAABAgQIECBAgAABAgQIECBAgAABAgQIECBAgAABAgQIECBAgAABAgQIECBAgAABAgQIECBAgAABAgQIECBAgAABAgQIECBAgAABAgQIECBAgAABAgQIECBAgAABAgQIECBAgAABAgQIECBAgAABAgQIECBAgAABAgQIECBAgAABAgQIECBAgAABAgQIECBAgAABAgQIECBAgAABAgQIECBAgAABAgQIECBAgAABAgQIECBAgAABAgQIECBAgAABAgQIECBAgAABAgQIECBAgAABAgQIECBAgAABAgQIECBAgAABAgQIECBAgAABAgQIECBAgAABAgQIECBAgAABAgQIECBAgAABAgQIECBAgAABAgQIECBAgAABAgQIECBAgAABAgQIECBAgAABAgQIECBAgAABAgQIECBAgAABAgQIECBAgAABAgQIECBAgAABAgQIECBAgAABAgQIECBAgAABAgQIECBAgAABAgQIECBAgAABAgQIECBAgAABAgQIECBAgAABAgQIECBAgAABAgQIECBAgAABAgQIECBAgAABAgQIECBAgAABAgQIECBAgAABAgQIECBAgAABAgQIECBAgAABAgQIECBAgAABAgQIECBAgAABAgQIECBAgAABAgQIECBAgAABAgQIECBAgAABAgQIECBAgAABAgQIECBAgAABAgQIECBAgAABAgQIECBAgAABAgQIECBAgAABAgQIECBAgAABAgQIECBAgAABAgQIECBAgAABAgQIECBAgAABAgQIECBAgAABAgQIECBAgAABAgQIECBAgAABAgQIECBAgAABAgQIECBAgAABAgQIECBAgAABAgQIECBAgAABAgQIECBAgAABAgQIECBAgAABAgQIECBAgAABAgQIECBAgAABAgQIECBAgAABAgQIECBAgAABAgQIECBAgAABAgQIECBAgAABAgQIECBAgAABAgQIECBAgAABAgQIECBAgAABAgQIECBAgAABAgQIECBAgAABAgQIECBAgAABAgQIECBAgAABAgQIECBAgAABAgQIECBAgAABAgQIECBAgAABAgQIECBAgAABAgQIECBAgAABAgQIECBAgAABAgQIECBAgAABAgQIECBAgAABAgQIECBAgAABAgQIECBAgAABAgQIECBAgAABAgQIECBAgAABAgQIECBAgAABAgQIECBAgAABAgQIECBAgAABAgQIECBAgAABAgQIEOiOwP8AX9dqkx2R/9sAAAAASUVORK5CYII=;" vertex="1" parent="1">
          <mxGeometry x="770.9" y="486.33" width="180.1" height="78.98" as="geometry" />
        </mxCell>
      </root>
    </mxGraphModel>
  </diagram>
</mxfile>
